<svg width="114" height="68" viewBox="0 0 114 68" fill="none" xmlns="http://www.w3.org/2000/svg">
<path d="M99.82 0H14.18C6.34862 0 0 6.61084 0 14.7657V53.2343C0 61.3892 6.34862 68 14.18 68H99.82C107.651 68 114 61.3892 114 53.2343V14.7657C114 6.61084 107.651 0 99.82 0Z" fill="#77C3FF"/>
<path d="M82.3673 33.6591H31.1779V60.3109H82.3673V33.6591Z" fill="white"/>
<path d="M56.6817 4.71798L24.9637 35.0144L27.3109 37.8715L59.0288 7.57507L56.6817 4.71798Z" fill="white"/>
<path d="M56.8636 4.4432L88.5815 34.7396L86.2343 37.5967L54.5164 7.30029L56.8636 4.4432Z" fill="white"/>
<path d="M41.0377 34.978C41.3359 34.0443 42.0573 33.3582 42.681 32.6508C43.3419 31.92 44.2365 31.5282 45.0466 31.0173C45.8286 30.4374 46.7384 30.0782 47.6228 29.704C47.8023 29.5667 47.9731 29.4161 48.1614 29.2923C48.3717 29.154 48.5996 29.0471 48.816 28.9193C49.0461 28.7835 49.2751 28.6457 49.5006 28.5017C49.7419 28.3476 49.9723 28.1752 50.2161 28.0253C50.655 27.7554 51.112 27.519 51.5587 27.2633C52.6592 26.553 51.607 27.2511 52.6614 26.4957C53.1134 26.1719 53.2512 26.1257 53.6724 25.7576C54.0103 25.4623 54.3195 25.1331 54.6439 24.822C55.3606 24.031 54.8128 24.6703 55.4811 23.7879C55.806 23.3589 55.9409 23.2512 56.2165 22.7861C56.2444 22.7389 56.704 21.8315 56.746 21.7488C58.6944 18.4415 57.6636 20.4959 49.1963 16.1059C48.9747 15.9911 48.9366 16.5467 48.7801 16.7463C48.5425 17.0492 48.0449 17.4805 47.7678 17.7331C46.8608 18.6832 47.5716 17.8903 46.7086 19.005C45.7336 20.2645 46.5921 19.0564 45.6214 20.4139C45.4143 20.7036 45.2314 21.0129 45.0084 21.2895C44.7845 21.5673 44.5254 21.812 44.2839 22.0732C43.9991 22.3587 43.0009 23.3675 42.7138 23.6213C42.4357 23.867 42.1355 24.0841 41.8471 24.3167C41.3415 24.7242 40.7407 25.228 40.2109 25.606C39.9602 25.7848 39.6974 25.9446 39.4407 26.1139C38.7194 26.6204 37.9268 27.0105 37.1956 27.4991C36.9547 27.6601 36.7295 27.8453 36.4958 28.0174C36.2019 28.252 35.9126 28.4848 35.595 28.6834C35.504 28.7404 35.407 28.7875 35.3199 28.8506C35.22 28.923 35.1301 29.0095 35.0353 29.089C34.9252 29.1649 34.8151 29.2408 34.705 29.3166C34.09 29.8723 33.3713 30.279 32.6391 30.6397C32.2514 30.844 32.0203 31.2465 31.675 31.5083C31.5117 31.6508 31.2766 31.7568 31.1097 31.8839C30.9335 32.0181 30.7867 32.207 30.6417 32.3751C30.4874 32.6073 30.2942 32.7998 30.0727 32.96L37.8193 38.002C38.0428 37.7772 38.2703 37.5568 38.4942 37.3325C38.7558 37.0372 39.0587 36.7889 39.3779 36.5636C39.6889 36.2999 40.0049 36.0529 40.2645 35.7317C40.8451 35.1886 41.4644 34.6913 42.1614 34.3179C42.4006 34.1691 42.6539 34.0451 42.8892 33.8898C43.3005 33.6184 43.6266 33.2133 44.0364 32.9381C45.1352 31.8465 43.3834 33.5784 44.6198 32.3873C45.4605 31.5775 44.3761 32.5796 45.319 31.6649C45.6646 31.3296 46.041 31.0297 46.3751 30.6811C47.8652 29.3048 46.1405 30.8867 47.7948 29.4079C48.3307 28.9288 48.8427 28.4209 49.3823 27.9463C49.6824 27.6824 50.0042 27.4456 50.3008 27.1775C50.5762 26.9285 50.8318 26.6565 51.0973 26.3961C52.5968 24.7318 51.0337 26.4291 52.629 24.8117C54.0345 23.3869 52.559 24.8392 53.8036 23.4765C54.1596 23.0868 54.5412 22.7628 54.9318 22.4144C55.1628 22.2357 55.7862 21.7175 56.0828 21.6273C56.2436 21.5784 56.7231 21.7441 56.585 21.6454C54.1458 19.9025 51.6071 18.3155 49.1182 16.6506C49.1488 16.7257 49.2088 16.7944 49.2101 16.8761C49.2126 17.0162 49.1557 17.1506 49.1285 17.2878C49.0772 17.4452 49.0366 17.6068 48.9746 17.76C48.6064 18.6696 47.9964 19.4487 47.332 20.1397C47.197 20.284 47.0727 20.44 46.927 20.5726C46.7336 20.7485 46.1328 21.1769 45.9234 21.3406C45.4278 21.7279 44.936 22.1185 44.4275 22.4882C44.0801 22.7579 43.6438 23.1092 43.276 23.3398C42.7966 23.6405 42.3027 23.8691 41.7976 24.1162C41.5695 24.2278 41.3482 24.3559 41.1128 24.4497C40.8679 24.5474 40.6111 24.6093 40.3603 24.6891C39.8711 24.9504 39.3736 25.1812 38.8564 25.3777C38.3675 25.5634 37.8644 25.7103 37.4232 26.011C36.7657 26.7118 36.0278 27.3384 35.269 27.9146C35.1285 28.0472 34.9804 28.1715 34.8476 28.3124C34.2923 28.9015 33.8742 29.6548 33.1806 30.088L41.0377 34.978V34.978Z" fill="white"/>
<path d="M39.1907 37.3136C39.3112 36.9063 39.3966 36.5784 39.5809 36.1797C39.6935 35.9363 39.8373 35.7099 39.9659 35.4752C40.0198 35.3768 40.8054 33.9452 40.8519 33.8698C41.0002 33.6293 41.1723 33.4057 41.3325 33.1737C41.9243 32.3061 42.6442 31.549 43.2804 30.7191C44.0843 29.9338 44.9143 29.176 45.8147 28.5108C46.0172 28.3612 46.2304 28.2277 46.4383 28.0861C47.3012 27.5273 48.187 27.0097 49.0597 26.468C49.1799 26.3915 49.4124 26.2517 49.5184 26.1519C49.6096 26.066 49.6795 25.9575 49.7702 25.871C49.8605 25.7848 49.965 25.7161 50.0598 25.6354C50.2553 25.4689 50.5153 25.2264 50.7018 25.0551C50.8199 24.9509 50.9336 24.841 51.0561 24.7425C51.1679 24.6525 51.2934 24.5817 51.4039 24.49C51.5194 24.3943 51.621 24.2816 51.7327 24.1812C51.8378 24.0866 51.9529 24.004 52.0542 23.905C52.1456 23.8157 52.6681 23.2237 52.735 23.1484C53.3678 22.5948 53.9976 22.0404 54.6228 21.4777C54.9257 21.2812 55.1586 21.0017 55.4205 20.7568C55.5194 20.6643 55.6299 20.586 55.7316 20.4968C56.3301 19.9725 55.8295 20.3626 56.4858 19.8796C57.2251 19.4683 57.8741 18.9297 58.4501 18.2988C58.5333 18.2258 58.618 18.1545 58.6996 18.0796C58.9333 17.8653 58.962 17.8031 59.2301 17.6231C59.5118 17.4341 59.8226 17.3057 60.1369 17.192C60.806 16.9174 61.3831 16.4674 61.9917 16.0814C62.4157 15.7611 62.8075 15.3916 63.2469 15.094C63.551 14.8695 63.8205 14.5964 64.0681 14.307C64.2361 14.1932 64.3361 14.0108 64.474 13.8658L56.5248 8.91174C56.4249 9.06202 56.3236 9.20861 56.1988 9.33864C55.978 9.58507 55.7299 9.80061 55.4962 10.0333C55.1502 10.3924 54.7719 10.7145 54.395 11.0377C54.1532 11.2377 53.9035 11.4288 53.6318 11.5839C53.328 11.7573 53.2975 11.742 52.97 11.8866C52.8652 11.9329 52.7628 11.9847 52.6593 12.0337C52.0038 12.427 51.3451 12.8535 50.8278 13.4349C50.2813 13.9748 49.7647 14.5538 49.1297 14.9875C48.4119 15.4826 47.6554 15.9327 47.0337 16.5607C46.4478 17.0974 47.024 16.55 46.5205 17.0829C46.4272 17.1816 46.3215 17.2673 46.2314 17.3691C45.9329 17.7061 45.6945 18.1045 45.3343 18.3823C45.0693 18.599 44.7944 18.8026 44.5336 19.0248C44.0972 19.3967 43.6984 19.8166 43.2431 20.1649C43.0033 20.3377 42.7583 20.5026 42.5196 20.6771C42.4161 20.7527 42.3215 20.8414 42.215 20.9124C41.9518 21.0879 41.6546 21.2067 41.4424 21.4593C40.7792 22.1398 40.0925 22.7968 39.3484 23.3817C38.7367 23.8564 38.1157 24.3162 37.4826 24.7597C37.2018 24.9564 36.5865 25.3597 36.3049 25.5805C36.1511 25.7011 36.0097 25.838 35.862 25.9667C35.5427 26.2267 35.3132 26.3649 35.089 26.7148C35.0116 26.8355 34.9659 26.9753 34.9103 27.1084C34.6693 27.6854 34.4519 28.274 34.1572 28.8258C34.0277 29.0773 33.91 29.3358 33.7687 29.5803C33.5069 30.0333 33.0823 30.6431 32.7646 31.0591C32.3806 31.562 32.217 31.7738 31.7385 32.156C31.6117 32.2573 31.4685 32.3344 31.3335 32.4235L39.1907 37.3136V37.3136Z" fill="white"/>
<path d="M47.246 37.5909C47.2749 37.4035 47.2795 37.2103 47.3327 37.0287C47.4005 36.7973 47.5076 36.58 47.6066 36.3611C47.8786 35.7594 48.2445 35.0434 48.6117 34.5118C48.6911 34.3968 50.2587 32.4452 50.2919 32.4038C50.6398 31.9987 50.9648 31.5711 51.3354 31.1885C52.0133 30.4888 52.9425 29.7552 53.6955 29.1451C54.0961 28.8206 54.4894 28.4857 54.9013 28.1769C55.9309 27.4048 56.2768 27.228 57.3526 26.5715C58.3625 25.8856 58.7258 25.6056 59.7948 25.0134C63.807 22.7908 58.4346 25.8805 62.0142 23.8536C62.3269 23.6766 63.2367 23.1193 63.5803 22.9099C64.3567 22.321 63.9553 22.6597 64.6314 22.0196C64.895 21.77 65.182 21.5202 65.4174 21.2392C65.5817 21.043 65.8499 20.6409 66.0001 20.4213C66.1668 20.114 66.3159 19.7876 66.5403 19.5188C66.6462 19.392 66.7842 19.2856 66.907 19.1773C67.0602 19.0473 67.1868 18.8864 67.3506 18.7694C67.3784 18.7496 67.4108 18.7381 67.441 18.7225C67.4763 18.697 67.5116 18.6715 67.5468 18.646C67.696 18.5204 67.6197 18.5714 67.7727 18.4881L60.0034 13.2976C59.8294 13.435 59.9147 13.3718 59.7483 13.4884C59.485 13.6926 59.2776 13.9525 59.0585 14.2048C58.6759 14.706 58.5659 15.2182 58.3331 15.7999C58.28 15.9193 58.2356 16.0435 58.1737 16.1582C58.0095 16.4623 57.8495 16.646 57.6367 16.9186C57.2761 17.3805 56.8994 17.8264 56.4976 18.2503C56.0414 18.7236 55.851 18.9388 55.3409 19.3871C54.0145 20.5527 52.5332 21.4836 51.0077 22.3377C50.2478 22.9271 49.4956 23.5271 48.7346 24.1148C48.3117 24.4414 47.8687 24.7403 47.4577 25.083C46.314 26.0368 46.2962 26.2273 45.1882 27.2468C44.7739 27.628 44.3358 27.9801 43.9096 28.3468C40.9855 31.0906 44.5023 27.7443 41.9293 30.3275C40.7263 31.5353 41.3166 30.8101 40.2928 31.9192C40.1258 32.1002 39.9867 32.3085 39.813 32.4826C39.6686 32.6272 39.4991 32.742 39.3422 32.8717L47.246 37.5909V37.5909Z" fill="white"/>
<path d="M52.9135 37.6246C52.95 37.3775 52.9387 37.1173 53.023 36.8832C53.1376 36.5651 53.3295 36.2827 53.5009 35.9936C54.192 34.8283 54.5989 34.1958 55.6348 33.2376C56.9345 32.0353 57.8265 31.597 59.3161 30.6924C59.9641 30.3332 60.5953 29.939 61.2601 29.6148C62.3374 29.0895 63.8578 28.5459 64.9966 28.1487C66.3854 27.6644 67.7849 27.2529 69.2013 26.8688C70.3422 26.5709 71.5415 26.2944 72.4769 25.5109C72.9431 25.0856 72.9981 24.4098 73.0679 23.8055C73.0842 23.3844 73.0723 22.9581 73.0349 22.5378C73.0324 22.4793 73.0293 22.4208 73.0269 22.3624L64.8204 18.0564C64.8229 18.12 64.8254 18.1836 64.8281 18.2472C64.8397 18.666 64.9126 19.0811 64.9715 19.4947C65.021 19.8789 64.9778 20.2577 64.7394 20.568C64.6521 20.6918 64.5552 20.8369 64.4529 20.9462C63.9325 21.502 63.2404 21.8581 62.6263 22.2808C61.7015 22.8448 61.6551 22.891 60.6232 23.4343C60.1604 23.6781 59.6871 23.8998 59.2247 24.1444C57.3272 25.1483 57.9277 24.8844 55.943 25.988C55.2766 26.3586 54.6021 26.7132 53.9316 27.0758C52.163 28.2851 51.9602 28.4611 50.0832 29.5863C49.4276 29.9793 48.7507 30.3329 48.0961 30.7277C47.603 31.0252 47.126 31.3509 46.641 31.6625C46.3409 31.8917 46.0573 32.1462 45.7409 32.3502C45.5044 32.5027 45.2398 32.6019 44.9893 32.7277L52.9135 37.6246H52.9135Z" fill="white"/>
<path d="M77.7877 36.756C77.918 36.6055 78.0902 36.507 78.234 36.3733C78.8145 35.8338 78.3289 36.1919 79.0361 35.6152C79.4543 35.2743 79.6776 35.1418 80.1226 34.8468C80.8679 34.3644 81.6906 34.0428 82.4925 33.6833C82.8144 33.5626 83.1356 33.4022 83.377 33.1467C83.5179 32.9368 83.454 33.0467 83.5684 32.8168L75.482 28.0419C75.4817 28.0424 75.4885 28.0677 75.4728 28.0595C75.2717 28.2026 75.1023 28.3961 74.8943 28.5312C74.2427 29.0366 73.5808 29.5257 72.9412 30.0477C72.7566 30.1758 72.0401 30.6796 71.8426 30.791C71.2976 31.0982 70.6961 31.2927 70.1115 31.4967L77.7877 36.756L77.7877 36.756Z" fill="white"/>
<path d="M67.3086 37.7483C67.3336 37.5899 67.3234 37.4208 67.3835 37.2729C67.5588 36.8415 68.0741 36.202 68.3515 35.8835C68.6006 35.5974 68.8551 35.3151 69.1307 35.0567C69.7203 34.5037 70.2489 34.1513 70.8945 33.6847C71.6459 33.0261 72.501 32.5201 73.29 31.9156C73.5729 31.6989 73.8325 31.4495 74.1234 31.2446C74.6614 30.8656 75.2977 30.5471 75.8752 30.2387C76.6156 29.8233 77.4197 29.5435 78.1653 29.1402C78.6028 28.8767 78.3909 28.996 78.7992 28.7788C79.1109 28.5871 78.9628 28.672 79.2417 28.5207L71.5229 23.4143C71.3249 23.617 71.4268 23.514 71.2171 23.7233C70.4927 24.3754 69.7582 25.0157 69.0016 25.6274C68.4429 26.0722 68.0582 26.3983 67.4505 26.793C67.1277 27.0027 66.7811 27.1711 66.4588 27.3817C65.6201 27.9294 64.8944 28.6306 64.1057 29.2482C63.5851 29.7572 63.0707 30.285 62.4995 30.7344C62.1707 30.9931 61.8142 31.2114 61.4765 31.4574C60.7539 31.9836 60.0776 32.5763 59.3237 33.0548L67.3086 37.7483V37.7483Z" fill="white"/>
<path d="M73.0921 37.5133C73.2115 37.351 73.3037 37.1625 73.4502 37.0265C73.8559 36.6498 74.4379 36.3989 74.9138 36.1562L68.0959 31.4597C67.2524 31.8552 66.4104 32.2703 65.4973 32.4655L73.0921 37.5133Z" fill="white"/>
<path d="M71.0721 36.3293C71.1903 36.1962 71.2903 36.0427 71.4267 35.93C71.6031 35.7843 71.8091 35.6822 72.0018 35.5611C72.2297 35.4179 72.452 35.2642 72.6884 35.137C73.0764 34.9283 73.7215 34.6709 74.1324 34.4999L67.0696 29.6533C66.5473 29.981 66.3624 30.1196 65.7784 30.3822C65.5097 30.5029 65.232 30.601 64.9569 30.7048C64.7183 30.7947 64.4838 30.901 64.2371 30.9634C64.0052 31.0221 63.7643 31.032 63.5279 31.0663L71.0721 36.3293Z" fill="white"/>
<path d="M73.914 37.6993C74.1113 37.1989 74.4992 37.0498 74.8929 36.7628C75.0617 36.6398 75.2108 36.489 75.3807 36.3676C75.6566 36.1703 76.1283 35.9108 76.4245 35.7419C76.9348 35.4534 77.43 35.1417 77.9332 34.841L70.3267 29.8262C69.9604 30.1962 69.5771 30.5491 69.1615 30.8587C68.9161 31.0338 68.4371 31.384 68.1833 31.5298C67.9947 31.6381 67.793 31.7201 67.6001 31.82C67.2861 31.9824 66.9658 32.1962 66.6166 32.2771C66.4728 32.3103 66.3224 32.2928 66.1754 32.3007L73.914 37.6993V37.6993Z" fill="white"/>
<path d="M58.0328 36.9005C58.1288 36.7499 58.1981 36.5766 58.3208 36.4488C58.6553 36.1003 59.4603 35.5836 59.835 35.3548C60.9029 34.703 60.6585 34.9 61.7581 34.3399C62.0821 34.1748 62.4004 33.9976 62.7215 33.8265C64.2615 32.9139 65.9865 32.4101 67.5301 31.5034C67.7756 31.3592 68.0084 31.1927 68.2476 31.0373C68.9839 30.6241 69.7491 30.2724 70.4903 29.8695L63.0234 24.9156C62.4892 25.4517 61.9246 25.9487 61.2992 26.3686C58.5592 28.1092 62.4671 25.598 59.9506 27.3046C59.311 27.7384 58.9156 27.9154 58.2212 28.2765C56.8626 28.9831 57.5804 28.635 56.1233 29.2894C55.7785 29.4507 55.4279 29.5992 55.0889 29.7732C54.7776 29.9329 54.482 30.1242 54.1736 30.2898C52.9512 30.9463 51.6759 31.5313 50.3185 31.8032L58.0328 36.9005Z" fill="white"/>
<path d="M39.7141 19.0086C35.6326 23.4111 35.2002 29.8717 38.7484 33.4387C42.2966 37.0058 48.4817 36.3285 52.5633 31.926C56.6448 27.5235 57.0772 21.0629 53.529 17.4959C49.9808 13.9288 43.7957 14.6061 39.7141 19.0086Z" fill="black"/>
<path d="M39.3519 34.0441L54.2101 18.0175L37.4032 1.12126L22.545 17.1479L39.3519 34.0441Z" fill="black"/>
<path d="M39.8203 19.0194C36.3515 22.8729 36.1243 28.6151 39.3127 31.8451C42.5012 35.075 47.898 34.5696 51.3668 30.7161C54.8355 26.8626 55.0628 21.1204 51.8743 17.8904C48.6859 14.6605 43.2891 15.166 39.8203 19.0194Z" fill="white"/>
<path d="M39.8564 32.3945L52.4837 18.3669L37.3811 3.06797L24.7539 17.0955L39.8564 32.3945Z" fill="white"/>
<path d="M74.1428 19.4776C78.2243 23.8801 78.6567 30.3407 75.1085 33.9077C71.5603 37.4748 65.3751 36.7975 61.2936 32.395C57.2121 27.9925 56.7797 21.5319 60.3279 17.9649C63.8761 14.3978 70.0612 15.0751 74.1428 19.4776Z" fill="black"/>
<path d="M74.505 34.5131L59.6467 18.4865L76.4536 1.59025L91.3119 17.6169L74.505 34.5131Z" fill="black"/>
<path d="M74.0366 19.4884C77.5054 23.3419 77.7326 29.0841 74.5441 32.3141C71.3557 35.544 65.9589 35.0385 62.4901 31.1851C59.0213 27.3316 58.7941 21.5894 61.9825 18.3594C65.171 15.1295 70.5678 15.635 74.0366 19.4884Z" fill="white"/>
<path d="M74.0004 32.8635L61.3732 18.8359L76.4757 3.53696L89.103 17.5645L74.0004 32.8635Z" fill="white"/>
<path d="M57.1809 51.8064C63.0612 51.8064 67.8282 47.6463 67.8282 42.5146C67.8282 37.3829 63.0612 33.2229 57.1809 33.2229C51.3005 33.2229 46.5335 37.3829 46.5335 42.5146C46.5335 47.6463 51.3005 51.8064 57.1809 51.8064Z" fill="black"/>
<path d="M67.8282 41.6503H46.4196V65.96H67.8282V41.6503Z" fill="black"/>
<path d="M56.5592 49.0616C56.5402 49.0309 56.4938 48.7927 56.489 48.7013C56.487 48.6696 56.4755 48.6501 56.4628 48.6579C56.45 48.6658 56.4207 48.6494 56.3974 48.6215C56.3742 48.5935 56.3415 48.5792 56.3246 48.5895C56.3078 48.5999 56.2941 48.592 56.2941 48.572C56.2941 48.552 56.2699 48.5356 56.2404 48.5356C56.2109 48.5356 56.1963 48.5201 56.2081 48.5012C56.2198 48.4824 56.212 48.4669 56.1909 48.4669C56.1697 48.4669 56.1618 48.4516 56.1734 48.4329C56.1859 48.4128 56.1708 48.4082 56.1355 48.4216C56.0882 48.4397 56.0804 48.4295 56.096 48.3696C56.1068 48.3286 56.1012 48.3037 56.0844 48.3143C56.0523 48.3341 56.0499 48.3287 56.0366 48.2071C56.032 48.1682 56.0019 48.0954 55.9691 48.0455C55.9363 47.9956 55.9189 47.9397 55.9303 47.9213C55.9416 47.9028 55.9368 47.8789 55.9189 47.868C55.9013 47.8571 55.8908 47.7865 55.8956 47.7111C55.9008 47.6299 55.889 47.5737 55.8668 47.5734C55.8462 47.5731 55.8526 47.5576 55.881 47.539C55.9269 47.509 55.9269 47.5015 55.881 47.4714C55.8526 47.4528 55.8448 47.4374 55.8638 47.4371C55.9176 47.4362 55.9064 46.9762 55.8509 46.9095C55.8103 46.8607 55.8114 46.8527 55.8579 46.8527C55.8877 46.8527 55.9497 46.8697 55.9956 46.8906C56.0716 46.9251 56.0784 46.9468 56.072 47.131C56.0681 47.2424 56.0797 47.3335 56.0977 47.3335C56.1157 47.3335 56.1111 47.3567 56.0875 47.385C56.053 47.4265 56.0539 47.4366 56.0921 47.4371C56.1211 47.4374 56.1258 47.4473 56.1043 47.4628C56.0474 47.5037 56.067 47.8291 56.1322 47.9285C56.1645 47.9777 56.191 48.0417 56.191 48.0707C56.191 48.0997 56.2091 48.1234 56.2312 48.1234C56.2532 48.1234 56.2613 48.1335 56.249 48.1457C56.2367 48.158 56.2597 48.1966 56.3002 48.2316C56.3406 48.2665 56.3617 48.2952 56.347 48.2952C56.3324 48.2952 56.3395 48.3182 56.3628 48.3463C56.3862 48.3744 56.4184 48.3894 56.4342 48.3797C56.4673 48.3593 56.5143 48.5239 56.5663 48.8427C56.6005 49.052 56.5982 49.1247 56.5594 49.0616L56.5592 49.0616Z" fill="black"/>
<path d="M54.7501 48.3275C54.7553 48.2449 54.7801 48.1753 54.8118 48.1568C54.8412 48.1397 54.8536 48.1252 54.8393 48.1246C54.8251 48.124 54.8406 48.0951 54.8738 48.0603C54.9069 48.0255 54.9457 48.0032 54.9599 48.0108C54.9741 48.0184 54.9857 47.9918 54.9857 47.9518C54.9857 47.9118 54.9997 47.8877 55.0167 47.8982C55.0606 47.9252 55.1155 47.7476 55.0993 47.6311C55.0912 47.5728 55.0994 47.5421 55.1198 47.5546C55.1409 47.5677 55.1488 47.5107 55.1407 47.403C55.1318 47.2856 55.1407 47.2304 55.1685 47.23C55.193 47.2297 55.1887 47.2161 55.1578 47.1962C55.1285 47.1773 55.1235 47.1627 55.1462 47.1624C55.1708 47.1621 55.1803 47.1242 55.1708 47.0641C55.1525 46.9482 55.2044 46.896 55.3677 46.866C55.4718 46.8468 55.4781 46.8497 55.4241 46.8915C55.375 46.9296 55.3604 47.0067 55.3482 47.2915C55.3399 47.4855 55.3227 47.6611 55.3099 47.6817C55.2971 47.7022 55.3079 47.7326 55.3342 47.7491C55.3714 47.7726 55.372 47.7791 55.3368 47.7796C55.312 47.7799 55.3013 47.7955 55.313 47.8144C55.3247 47.8333 55.3176 47.8488 55.2978 47.8488C55.2778 47.8488 55.2632 47.8604 55.2655 47.8745C55.2674 47.8887 55.2674 47.9389 55.2649 47.9862C55.261 48.0548 55.2536 48.0617 55.227 48.0205C55.2001 47.9791 55.1935 47.9845 55.1931 48.0483C55.1928 48.0923 55.1773 48.1182 55.1581 48.1064C55.1392 48.0947 55.1237 48.1135 55.1237 48.1482C55.1237 48.2079 54.9354 48.4051 54.9062 48.376C54.8986 48.3685 54.8728 48.3859 54.8489 48.4147C54.7754 48.5031 54.7418 48.4734 54.7504 48.3275L54.7501 48.3275Z" fill="black"/>
<path d="M57.2478 51.68C62.2769 51.68 66.3537 47.9397 66.3537 43.3257C66.3537 38.7118 62.2769 34.9714 57.2478 34.9714C52.2188 34.9714 48.142 38.7118 48.142 43.3257C48.142 47.9397 52.2188 51.68 57.2478 51.68Z" fill="white" stroke="white" stroke-width="0.0999999"/>
<path d="M66.3537 42.5486H48.0446V64.4057H66.3537V42.5486Z" fill="white" stroke="white" stroke-width="0.1"/>
<path d="M59.9939 42.0292H51.5211V43.6806H59.9939V42.0292Z" fill="black"/>
<path d="M57.8513 46.3035H53.5662V49.412H57.8513V46.3035Z" fill="black"/>
<path d="M56.2931 43.5835H55.0271V46.7892H56.2931V43.5835Z" fill="black"/>
<path d="M65.0581 49.1206H51.8132V51.7435H65.0581V49.1206Z" fill="black"/>
<path d="M51.6058 49.1881C51.428 49.2568 51.0722 49.3941 50.7507 49.6003C50.4292 49.8064 50.1422 50.0812 49.97 50.3905C49.7978 50.6999 49.7404 51.0434 49.6945 51.4212C49.6486 51.799 49.6142 52.2112 49.6028 52.6062C49.5913 53.0012 49.6028 53.3783 49.6143 53.7561L52.8509 53.7904L52.9542 51.6954L51.7835 49.1195C51.7835 49.1195 51.7835 49.1195 51.6058 49.1881H51.6058Z" fill="black"/>
<path d="M60.5981 48.1921H59.634V52.8631H60.5981V48.1921Z" fill="black"/>
<path d="M66.8648 48.0548H61.9754V52.7601H66.8648V48.0548Z" fill="black"/>
<path d="M45.195 22.4581H40.9037V28.3838H45.195V22.4581Z" fill="black"/>
<path d="M43.2825 25.761C46.3481 25.761 48.8333 23.2092 48.8333 20.0613C48.8333 16.9134 46.3481 14.3616 43.2825 14.3616C40.217 14.3616 37.7318 16.9134 37.7318 20.0613C37.7318 23.2092 40.217 25.761 43.2825 25.761Z" fill="black"/>
<path d="M43.1083 31.5998C44.3354 31.5998 45.3302 31.0982 45.3302 30.4793C45.3302 29.8604 44.3354 29.3588 43.1083 29.3588C41.8812 29.3588 40.8864 29.8604 40.8864 30.4793C40.8864 31.0982 41.8812 31.5998 43.1083 31.5998Z" fill="black"/>
<path d="M45.3349 29.0881H40.8803V30.4967H45.3349V29.0881Z" fill="black"/>
<path d="M65.9558 20.2058L67.7749 23.4115L67.4951 23.7515L66.9353 24.3343L66.5622 24.7715L66.2823 25.2572L66.1424 25.8886L66.0957 26.7143L66.189 27.2972L66.3289 27.8315L66.6554 28.3172L66.982 28.56L67.5883 28.8515L68.4746 28.9486L69.1743 28.7543L69.6874 28.3658L70.0139 27.7829L70.2937 26.9572V26.3258L70.1538 25.5001L67.1219 20.7401L67.4018 15.7858L72.9059 24.7715L73.4189 26.0829L73.5589 27.6372L73.3723 28.7058L72.5327 30.6L71.4132 31.62L69.9672 32.3486L68.1947 32.5429L67.1219 32.3L66.0024 32.0572L64.8363 31.28L63.8101 30.0172L62.9239 28.2686L62.7373 26.4715L63.0172 24.8686L63.6236 23.3629L64.4165 21.9058L65.9558 20.2058Z" fill="black"/>
</svg>
