<svg width="90" height="90" viewBox="0 0 90 90" fill="none" xmlns="http://www.w3.org/2000/svg">
<g clip-path="url(#clip0_565_447)">
<rect y="45" width="64" height="64" rx="5" transform="rotate(-45 0 45)" fill="#3498DB"/>
<path d="M49.3776 26.104L48.4176 49.096H41.4576L40.4976 26.104H49.3776ZM45.0576 61.384C43.6176 61.384 42.4336 60.968 41.5056 60.136C40.6096 59.272 40.1616 58.216 40.1616 56.968C40.1616 55.688 40.6096 54.616 41.5056 53.752C42.4336 52.888 43.6176 52.456 45.0576 52.456C46.4656 52.456 47.6176 52.888 48.5136 53.752C49.4416 54.616 49.9056 55.688 49.9056 56.968C49.9056 58.216 49.4416 59.272 48.5136 60.136C47.6176 60.968 46.4656 61.384 45.0576 61.384Z" fill="white"/>
</g>
<defs>
<clipPath id="clip0_565_447">
<rect y="45" width="64" height="64" rx="5" transform="rotate(-45 0 45)" fill="white"/>
</clipPath>
</defs>
</svg>
