<svg width="136" height="80" viewBox="0 0 136 80" fill="none" xmlns="http://www.w3.org/2000/svg">
<path d="M121 0H15C6.71573 0 0 6.71573 0 15V65C0 73.2843 6.71573 80 15 80H121C129.284 80 136 73.2843 136 65V15C136 6.71573 129.284 0 121 0Z" fill="#3498DB"/>
<path d="M72.2009 43.7609C73.8842 44.3689 85.6027 48.6018 86.9297 49.0812C88.0298 49.4782 89.2012 49.2494 90.0609 48.5814C90.7029 48.2979 90.8387 48.1545 92.9428 46.5907C91.0694 47.0091 91.511 46.9103 89.6723 47.3209C86.9404 47.9316 84.2176 46.2113 83.6052 43.469C82.9963 40.7419 84.7177 38.0138 87.4572 37.4021L95.2828 35.6547L100.289 28.6722L96.7522 37.8767C92.6515 38.7925 92.8676 38.7442 87.9995 39.8311C86.583 40.1475 85.7271 41.5513 86.0342 42.9264C86.0398 42.9515 86.0476 42.9754 86.0538 43.0001C86.399 44.3591 87.762 45.1976 89.1296 44.8917L99.2389 42.6344C100.086 42.4453 100.783 41.8446 101.094 41.0339L104.999 30.8696L103.968 38.3964L107.835 35.5223C109.262 34.4619 109.559 32.443 108.496 31.0167L104.582 25.7627C103.498 24.3087 101.425 24.0363 100.003 25.1628L81.2251 40.0374C76.8028 38.44 78.3363 38.9939 73.2368 37.1519C72.468 36.8742 71.6227 36.8931 70.8674 37.2056L53.5422 44.3647C51.8661 45.0572 51.0689 46.9773 51.7615 48.6533C52.4538 50.329 54.3734 51.1268 56.0503 50.4342L72.2009 43.7609Z" fill="black"/>
<path d="M105.32 22.4511C107.421 24.3203 110.628 24.5406 112.991 22.7847C115.688 20.7801 116.25 16.9686 114.245 14.2714C112.24 11.5743 108.429 11.0128 105.732 13.0174C102.641 15.3145 102.431 19.8795 105.32 22.4511Z" fill="black"/>
<path d="M120.263 34.3915C118.972 32.7855 116.624 32.5302 115.017 33.8212L92.1377 52.2132H59.7198C57.6589 52.2132 55.9883 53.8839 55.9883 55.9448C55.9883 58.0058 57.6589 59.6764 59.7198 59.6764H61.1744V62.2632C61.1744 63.6416 62.2917 64.7587 63.6699 64.7587C65.0483 64.7587 66.1655 63.6416 66.1655 62.2632V59.6764H87.4619V62.2632C87.4619 63.6416 88.5793 64.7587 89.9577 64.7587C91.3359 64.7587 92.4535 63.6416 92.4535 62.2632V59.6764H93.4516C94.3019 59.6764 95.1267 59.386 95.7896 58.8532L119.693 39.6379C121.299 38.3465 121.555 35.9976 120.263 34.3915Z" fill="black"/>
<path d="M36.6973 18.0502C39.902 18.0502 42.5 15.4522 42.5 12.2474C42.5 9.04268 39.902 6.4447 36.6973 6.4447C33.4925 6.4447 30.8945 9.04268 30.8945 12.2474C30.8945 15.4522 33.4925 18.0502 36.6973 18.0502Z" fill="black"/>
<path d="M45.5992 41.1201C45.9163 40.8477 46.174 40.497 46.3358 40.0799C46.8612 38.7264 46.19 37.2032 44.8365 36.6775L36.3591 33.3861L34.5307 25.0598L37.6115 31.0521L40.2682 32.0836L41.2961 25.7646C41.6437 23.6277 40.1932 21.6138 38.0564 21.2661L32.0614 20.291C29.2502 19.4949 27.0244 21.1328 26.6583 23.3836C26.3294 25.4904 23.8993 41.242 23.7962 42.5991C23.7221 43.566 24.0933 44.4638 24.7356 45.0933H21.1186C19.7404 45.0935 18.623 46.2107 18.623 47.5891V62.263C18.623 63.6414 19.7404 64.7585 21.1186 64.7585C22.497 64.7585 23.6142 63.6414 23.6142 62.263V58.1593H33.4981V62.263C33.4981 63.6414 34.6155 64.7585 35.9937 64.7585C37.3721 64.7585 38.4892 63.6414 38.4892 62.263C38.4892 46.299 38.5337 47.3804 38.3855 46.8797L41.3883 47.1095L39.1442 61.1038C38.8682 62.8242 40.0392 64.4423 41.7595 64.7185C43.4846 64.9942 45.0987 63.8194 45.3742 62.1032L48.1613 44.7252C48.4243 43.0851 47.3443 41.4308 45.5992 41.1201ZM33.4983 54.8317H23.6144V50.0849H33.4983V54.8317ZM31.7073 40.0408L31.1643 39.83C29.7472 39.2797 28.8991 37.8935 28.958 36.4548L29.3951 26.1878L31.5259 35.8908C31.7149 36.7507 32.3215 37.4591 33.1422 37.7778L40.7538 40.7331L31.7073 40.0408Z" fill="black"/>
</svg>
