<svg width="136" height="80" viewBox="0 0 136 80" fill="none" xmlns="http://www.w3.org/2000/svg">
<path d="M8.13873 78.3544C6.33133 77.4645 3.85304 75.3368 2.63142 73.6261C0.477263 70.6095 0.40146 69.6349 0.117429 41.3026C-0.161446 13.4851 -0.0770896 11.8969 1.88323 8.05863C3.22295 5.43548 5.32202 3.3245 7.89383 2.01389C11.7155 0.0663643 13.6967 0 68 0C122.303 0 124.284 0.0663359 128.106 2.01389C130.678 3.3245 132.777 5.43548 134.117 8.05863C136.077 11.8969 136.161 13.4851 135.883 41.3026C135.598 69.6838 135.526 70.6048 133.356 73.6432C128.698 80.1671 130.212 80.0202 67.8487 79.9951C17.924 79.9753 11.0464 79.7858 8.13873 78.3544ZM83.8009 72.5543C85.7094 70.3618 86.2855 70.2108 89.0583 71.1763C99.4726 74.8027 109.908 65.6078 107.119 55.2623C103.746 42.7483 87.4281 41.5699 81.6163 53.4205C79.9202 56.8788 79.8495 57.8398 80.97 62.2067L82.228 67.1098L78.6187 70.6113C76.6335 72.5372 75.0093 74.3162 75.0093 74.5648C75.0093 74.8134 76.5051 75.0167 78.3334 75.0167C80.6173 75.0167 82.3281 74.2462 83.8009 72.5543ZM87.5262 63.8322C84.2731 59.9703 84.6621 55.7074 88.582 52.2617C94.0888 47.421 102.245 51.1529 102.245 58.5131C102.245 66.6405 92.7748 70.063 87.5262 63.8322ZM75.8299 62.764C75.5152 60.5503 75.2234 60.5053 57.9867 60.0134L40.4634 59.5133V53.512V47.5106L60.0845 47.2398C79.5153 46.9719 79.7283 46.9451 82.038 44.4892L84.3704 42.0093H62.1666H39.9628V31.0068V20.0043H67.4993H95.0359V30.0066C95.0359 35.5078 95.4496 40.0088 95.9553 40.0088C96.461 40.0088 97.5875 40.2822 98.4586 40.616C99.8533 41.1506 100.043 39.6567 100.043 28.1132V15.0032H88.5273C81.1842 15.0032 77.012 14.6244 77.012 13.9576C77.012 13.3824 75.9059 11.8071 74.5542 10.4568C72.7291 8.63375 71.0195 8.00169 67.9134 8.00169C64.4301 8.00169 63.1777 8.58715 60.4252 11.5024L57.1199 15.0032H46.038H34.9561V40.0088V65.0144H55.553H76.1499L75.8299 62.764ZM64.4953 14.0031C64.8357 13.453 66.4128 13.0029 68 13.0029C69.5872 13.0029 71.1643 13.453 71.5047 14.0031C71.879 14.6081 70.494 15.0033 68 15.0033C65.506 15.0033 64.121 14.6081 64.4953 14.0031ZM69.8148 37.7439C70.1999 35.7467 67.3442 34.2626 65.8972 35.708C64.4959 37.1077 65.9652 40.1618 67.8642 39.7965C68.7523 39.6255 69.6301 38.702 69.8148 37.7439Z" fill="#75C1FD"/>
<path d="M75.0093 74.5648C75.0093 74.3162 76.6335 72.5372 78.6187 70.6114L82.228 67.1099L80.97 62.2067C79.8495 57.8398 79.9202 56.8789 81.6163 53.4205C87.4281 41.5699 103.746 42.7484 107.119 55.2623C109.908 65.6078 99.4726 74.8028 89.0583 71.1763C86.2855 70.2108 85.7094 70.3618 83.8009 72.5544C82.3281 74.2463 80.6174 75.0168 78.3334 75.0168C76.5051 75.0168 75.0093 74.8135 75.0093 74.5648ZM99.5862 64.7301C105.245 59.868 101.527 50.0112 94.0346 50.0112C90.3227 50.0112 86.1869 53.6511 85.4335 57.5809C84.9734 59.9805 85.4295 61.3435 87.5262 63.8322C90.8659 67.7968 95.6062 68.1498 99.5862 64.7301ZM34.9561 40.009V15.0034H46.038H57.1199L60.4252 11.5026C63.1777 8.58729 64.4301 8.00183 67.9134 8.00183C71.0195 8.00183 72.7291 8.63389 74.5542 10.4569C75.9059 11.8072 77.012 13.3826 77.012 13.9577C77.012 14.6245 81.1842 15.0034 88.5273 15.0034H100.043V28.1133C100.043 39.6569 99.8533 41.1507 98.4586 40.6161C97.5875 40.2822 96.461 40.009 95.9553 40.009C95.4496 40.009 95.0359 35.508 95.0359 30.0067V20.0045H67.4993H39.9628V31.007V42.0094H62.1666H84.3704L82.038 44.4894C79.7283 46.9452 79.5153 46.9719 60.0846 47.24L40.4635 47.5107V53.5121V59.5134L57.9867 60.0135C75.2234 60.5055 75.5152 60.5504 75.8299 62.7641L76.1499 65.0146H55.553H34.9561V40.009ZM71.5047 14.0032C71.1643 13.453 69.5872 13.0029 68 13.0029C66.4128 13.0029 64.8357 13.453 64.4954 14.0032C64.121 14.6081 65.506 15.0034 68 15.0034C70.494 15.0034 71.879 14.6081 71.5047 14.0032ZM65.5898 38.3905C65.2271 37.4463 65.3654 36.2392 65.8972 35.708C67.3442 34.2626 70.1999 35.7469 69.8148 37.744C69.3636 40.0845 66.414 40.5359 65.5898 38.3905Z" fill="white"/>
</svg>
