<svg width="103" height="69" viewBox="0 0 103 69" fill="none" xmlns="http://www.w3.org/2000/svg">
<g filter="url(#filter0_d_429_1401)">
<path d="M87.174 0H15C6.71573 0 0 6.71573 0 15V53.2356C0 61.5199 6.71573 68.2356 15 68.2356H87.174C95.4583 68.2356 102.174 61.5199 102.174 53.2356V15C102.174 6.71573 95.4583 0 87.174 0Z" fill="#77C3FF"/>
<path d="M86.8317 56.0215C86.7752 55.8784 85.4022 52.4712 83.2213 48.7165C79.9224 43.0385 76.5448 39.5723 72.8985 38.1204C72.8898 38.1172 66.2541 35.5643 66.2541 35.5643L63.3578 33.538L58.7755 37.3187L61.5985 54.1869C61.6083 54.2397 61.5922 54.2936 61.5543 54.3365L58.6618 57.6208C58.6157 57.6733 58.5425 57.704 58.4641 57.704C58.3858 57.704 58.3124 57.673 58.2665 57.6208L55.374 54.3365C55.3363 54.2936 55.3203 54.2396 55.3298 54.1869L58.1451 37.3655L53.508 33.5381L50.6114 35.5644C50.6114 35.5644 37.7852 40.4321 33.2772 41.4855C33.9568 39.1874 34.9769 36.2597 36.0912 33.5006C36.9814 31.2961 35.5501 28.9094 32.8922 28.1709C30.2355 27.4316 27.3578 28.6185 26.4673 30.823C26.4131 30.9571 25.1287 34.1436 24.0029 37.5949C21.8638 44.1564 21.7347 46.9096 23.4765 48.9257C24.5344 50.1516 26.1781 50.8577 27.9828 50.8638H28.0193C30.984 50.8638 36.5706 49.6459 42.3693 47.8177L42.3734 62.5602H74.4903L74.4941 53.1058C75.5614 55.0199 76.377 56.7811 76.8215 57.7912C76.6285 58.6953 76.174 60.3663 75.1659 62.5602H85.8836C86.8671 59.7651 87.0526 57.971 87.0794 57.6301C87.1239 57.0856 87.0394 56.5392 86.8317 56.0215Z" fill="white"/>
<path d="M58.4317 33.3691C65.8567 33.3691 71.3967 27.6307 71.5225 18.0065C71.6041 11.3285 67.77 7.33252 58.4317 7.33252C49.0936 7.33252 45.2603 11.3285 45.3432 18.0065C45.4677 27.6307 51.0071 33.3691 58.4317 33.3691Z" fill="white"/>
<path d="M24.8364 17.4718C25.5566 18.3472 26.3018 19.2514 26.3475 20.4766L26.4103 22.8698C26.4103 23.2272 26.759 23.5171 27.1884 23.5171H27.6645C27.8117 24.1975 28.5284 24.7134 29.3908 24.7134C30.2529 24.7134 30.9686 24.1975 31.1158 23.5171H31.5926C32.0219 23.5171 32.3713 23.2272 32.3713 22.8698L32.4371 20.4775C32.4824 19.2543 33.2265 18.3483 33.9467 17.4724C34.8074 16.423 35.7002 15.3374 35.7005 13.424C35.7005 10.6811 32.8702 8.44995 29.3907 8.44995C25.9108 8.44995 23.0804 10.6809 23.0804 13.424C23.0804 15.3364 23.9732 16.4219 24.8364 17.4718ZM29.3903 18.8289L28.4225 14.2611C28.4003 14.1233 28.4923 14.0165 28.5336 13.9764C28.6111 13.9018 28.7139 13.855 28.7972 13.855C28.9029 13.855 28.9843 13.9201 29.0235 13.9597C29.1139 14.0503 29.2475 14.1037 29.3903 14.1037C29.5325 14.1037 29.6654 14.0503 29.7563 13.9597C29.7958 13.9201 29.8761 13.855 29.9814 13.855C30.0742 13.855 30.1791 13.9003 30.2562 13.9746C30.3051 14.0211 30.3803 14.1203 30.3578 14.2606L29.3903 18.8289ZM29.3907 9.74339C32.0108 9.74339 34.141 11.3948 34.141 13.4242C34.141 14.9384 33.454 15.7747 32.6572 16.7458C31.9955 17.5517 31.1928 18.5266 30.9494 19.8119L30.1476 19.8118L31.2945 14.3917C31.295 14.3886 31.2956 14.3863 31.2961 14.3835C31.3565 14.0507 31.2408 13.7152 30.9778 13.4606C30.7222 13.2134 30.3502 13.0664 29.9814 13.0664C29.7741 13.0664 29.5718 13.1125 29.3903 13.199C29.2069 13.1125 29.0046 13.0664 28.7972 13.0664C28.4318 13.0664 28.0731 13.2103 27.8135 13.4614C27.5449 13.7204 27.4246 14.0565 27.4832 14.3824C27.4842 14.3853 27.4849 14.3884 27.4854 14.3916L28.6315 19.811L27.8347 19.8108C27.5914 18.5248 26.7866 17.5489 26.1231 16.7431C25.3278 15.7731 24.6388 14.9368 24.6388 13.4239C24.6388 11.3948 26.7709 9.74339 29.3907 9.74339Z" fill="white"/>
<path d="M29.3907 7.26324C29.7991 7.26324 30.13 6.98855 30.13 6.64969L30.1299 3.18742C30.1299 2.84842 29.7991 2.57373 29.3903 2.57373C28.9819 2.57373 28.6511 2.84856 28.6511 3.18742V3.18755V6.64969C28.6511 6.81892 28.7337 6.97244 28.8675 7.08345C29.0013 7.19447 29.1857 7.26324 29.3907 7.26324Z" fill="white"/>
<path d="M35.1653 9.007C35.3765 9.007 35.5859 8.93254 35.7322 8.78782L38.4146 6.13541C38.6773 5.87588 38.6365 5.48869 38.3235 5.27086C38.0106 5.05316 37.5435 5.08714 37.2816 5.34667L34.5993 7.99908C34.3365 8.25861 34.3775 8.64567 34.6905 8.8635C34.8287 8.96003 34.9973 9.007 35.1653 9.007Z" fill="white"/>
<path d="M37.5101 12.916C37.5736 13.2137 37.8856 13.4231 38.2375 13.4231C38.2803 13.4231 38.3234 13.4202 38.3669 13.4137L42.4766 12.8122C42.8791 12.7533 43.1475 12.435 43.0768 12.1013C43.0057 11.7676 42.6214 11.545 42.2198 11.6036L38.1101 12.205C37.7077 12.2639 37.4389 12.5822 37.5101 12.916Z" fill="white"/>
<path d="M37.5409 17.2992C37.1865 17.1295 36.7346 17.2304 36.5307 17.5238C36.3265 17.8171 36.4478 18.1924 36.8011 18.3618L40.4155 20.0929C40.5324 20.1487 40.6593 20.1752 40.7846 20.1752C41.04 20.1752 41.289 20.0653 41.4261 19.8682C41.6301 19.5748 41.509 19.1995 41.1552 19.03L37.5409 17.2992Z" fill="white"/>
<path d="M22.2499 17.5237C22.0457 17.2302 21.5936 17.1296 21.2396 17.2991L17.6258 19.0303C17.272 19.1998 17.151 19.5751 17.3551 19.8686C17.4918 20.0654 17.7409 20.1755 17.9964 20.1755C18.1219 20.1755 18.2492 20.1489 18.3658 20.0932L21.9795 18.362C22.3328 18.1925 22.4543 17.8171 22.2499 17.5237Z" fill="white"/>
<path d="M20.5432 13.4228C20.8955 13.4228 21.2072 13.2132 21.2706 12.9155C21.3418 12.5818 21.0729 12.2636 20.6705 12.2047L16.5607 11.6036C16.1585 11.5449 15.7752 11.7677 15.7042 12.1014C15.6334 12.4352 15.9018 12.7534 16.3045 12.8123L20.4138 13.4133C20.4573 13.4197 20.5004 13.4228 20.5432 13.4228Z" fill="white"/>
<path d="M23.0487 8.78767C23.1949 8.93213 23.4044 9.00686 23.6155 9.00686H23.616C23.7838 9.00686 23.9525 8.95974 24.0911 8.86335C24.4037 8.64539 24.4447 8.25846 24.1824 7.9988L21.4997 5.34652C21.237 5.08713 20.7705 5.05315 20.4575 5.27098C20.301 5.37996 20.2127 5.53118 20.1961 5.68782C20.1793 5.84419 20.2351 6.00584 20.3661 6.13567L23.0487 8.78767Z" fill="white"/>
</g>
<defs>
<filter id="filter0_d_429_1401" x="-20" y="-10" width="142.174" height="108.236" filterUnits="userSpaceOnUse" color-interpolation-filters="sRGB">
<feFlood flood-opacity="0" result="BackgroundImageFix"/>
<feColorMatrix in="SourceAlpha" type="matrix" values="0 0 0 0 0 0 0 0 0 0 0 0 0 0 0 0 0 0 127 0" result="hardAlpha"/>
<feOffset dy="10"/>
<feGaussianBlur stdDeviation="10"/>
<feColorMatrix type="matrix" values="0 0 0 0 0.770833 0 0 0 0 0.619075 0 0 0 0 0.56849 0 0 0 0.1 0"/>
<feBlend mode="normal" in2="BackgroundImageFix" result="effect1_dropShadow_429_1401"/>
<feBlend mode="normal" in="SourceGraphic" in2="effect1_dropShadow_429_1401" result="shape"/>
</filter>
</defs>
</svg>
