<svg width="102" height="70" viewBox="0 0 102 70" fill="none" xmlns="http://www.w3.org/2000/svg">
<path d="M6.10404 68.5601C4.74849 67.7815 2.88977 65.9197 1.97356 64.4229C0.357936 61.7833 0.301087 60.9306 0.0880642 36.1398C-0.121089 11.7995 -0.0578214 10.4098 1.41242 7.05134C2.4172 4.75607 3.99151 2.90894 5.92037 1.76217C8.78664 0.0580834 10.2725 0 51 0C91.7274 0 93.2134 0.0580841 96.0796 1.76217C98.0085 2.90894 99.5828 4.75607 100.588 7.05134C102.058 10.4098 102.121 11.7995 101.912 36.1398C101.699 60.9733 101.645 61.7792 100.017 64.4378C96.5233 70.1462 97.659 70.0177 50.8865 69.9957C13.443 69.9781 8.28479 69.8127 6.10404 68.5601ZM47.2186 62.1964C47.6462 61.2653 47.996 56.5393 47.996 51.6941V42.8846H51.3755H54.755V51.6941C54.755 64.045 54.6367 63.8893 64.0187 63.8893C69.0131 63.8893 72.0448 63.5195 72.6287 62.839C73.2644 62.0982 73.5299 57.0397 73.5299 45.6688V29.5489L76.1952 31.918C78.8564 34.2835 81.0399 34.3743 81.0399 32.1195C81.0399 30.6362 52.9569 4.37598 51.3707 4.37598C50.736 4.37598 48.0273 6.38112 45.3514 8.83184L40.486 13.2877V10.5247C40.486 6.44502 39.2641 4.37598 36.8548 4.37598C33.5783 4.37598 32.9761 5.80027 32.9761 13.5493V20.6222L27.3436 25.6749C24.2457 28.4538 21.7111 31.3091 21.7111 32.0199C21.7111 34.3729 23.9392 34.3625 26.6003 31.9972L29.2211 29.6676V45.7282C29.2211 57.0528 29.4868 62.0985 30.1223 62.839C30.7062 63.5195 33.7379 63.8893 38.7323 63.8893C45.5852 63.8893 46.5275 63.7013 47.2186 62.1964ZM32.9841 43.1417L32.9921 25.8183L41.8083 17.7229C46.6572 13.2705 50.8999 9.52905 51.2366 9.40858C51.5732 9.28811 55.8659 12.931 60.7759 17.5039L69.703 25.8183L69.739 43.1417L69.775 60.4652L64.3302 60.208L58.8855 59.9509L58.6746 49.2297L58.4638 38.5086H51.3755H44.2873L44.0764 49.2297L43.8656 59.9509L38.4208 60.208L32.9761 60.4652L32.9841 43.1417Z" fill="#77C3FF"/>
<path d="M34.0313 63.667C32.321 63.5209 30.8713 63.3552 30.3179 63.0614C29.3908 62.5691 29.1365 60.3381 29.1812 43.5705L29.2185 29.5663L27.4972 31.2561C25.4631 33.2529 24.4467 33.6412 23.3628 33.7326C22.6361 33.7939 22.3878 33.7358 22.0645 33.359C21.8127 33.0655 21.6674 32.5971 21.6674 32.1944C21.6674 31.1105 23.6856 28.84 29.3974 23.7425L32.8796 20.6349L32.95 14.3497C32.9791 11.7522 32.9547 12.1703 33.2435 8.42192C33.4631 5.57106 34.3358 4.77707 35.6634 4.44526C37.8818 3.89082 39.3767 4.89248 40.0987 7.09725C40.3702 7.9265 40.4314 8.65373 40.4867 10.8305C40.5228 12.252 40.7121 14.0179 40.5355 13.2882C40.4797 13.0578 41.8141 11.8981 43.4405 10.4043C46.4692 7.62255 49.7167 4.84085 50.843 4.57093L51.3032 4.38041L51.8047 4.59481C55.9704 6.37589 74.8309 24.9281 79.9506 30.6404C81.0772 31.8974 81.1538 32.0732 81.0664 32.6C80.9259 33.4461 80.3406 33.8915 79.4721 33.8076C78.4547 33.7093 77.3901 33.0054 75.3971 31.2387C74.4497 30.399 73.6168 29.5378 73.5767 29.5378C73.5366 29.5378 73.5027 33.95 73.5013 39.3427C73.4985 50.434 73.4656 58.582 73.1691 60.8797C72.9257 62.7664 72.7171 63.1647 71.3636 63.4394C69.9023 63.7359 66.4684 63.8297 63.295 63.8292C60.0236 63.8287 58.2498 63.8621 57.2166 63.4622C56.3409 63.1232 55.3698 62.1479 55.0707 60.9946C54.7288 59.6764 54.7822 56.0456 54.7789 49.1066L54.7509 42.9459L51.3397 42.8298L48.028 42.9749L48.034 50.6706C48.0412 59.9201 47.7434 61.7105 46.9272 62.7477C46.2424 63.618 45.2746 63.8665 40.2018 63.9283C37.7235 63.9585 34.9468 63.7452 34.0313 63.667H34.0313ZM39.8249 60.1197C42.0321 60.0181 43.8509 59.9514 43.8666 59.9361C43.8888 59.9145 44.2313 39.6251 44.2313 38.6296C44.2313 38.4217 45.3318 38.4762 51.4212 38.4762H58.4121L58.5184 40.4674C58.5298 43.5418 58.8177 59.9026 58.8757 59.9662C58.9055 59.9989 60.704 59.9618 62.8725 60.061C65.041 60.1603 67.5707 60.2968 68.4037 60.3424L69.7183 60.4144L69.681 43.9314C69.6743 34.7382 69.7761 26.8147 69.7248 26.3946L69.6139 25.7128L64.9495 21.4033C57.3756 14.4057 53.8768 11.2729 52.0676 9.97559C51.4415 9.52668 51.3286 9.48051 51.0274 9.64042C50.5344 9.90222 45.9141 13.847 40.6242 18.7023C38.146 20.977 35.3902 23.7773 34.517 24.5499L33.1398 25.7685L32.9578 43.1366L32.95 60.4177L34.3933 60.3176C35.1871 60.2626 37.6177 60.2214 39.8249 60.1197Z" fill="white"/>
</svg>
