<svg width="102" height="66" viewBox="0 0 102 66" fill="none" xmlns="http://www.w3.org/2000/svg">
<g clip-path="url(#clip0_423_1424)">
<path d="M9.37247 64.6979C7.72949 64.0063 5.41969 62.4315 4.2395 61.1983C0.349791 57.134 -0.263885 52.6948 0.083774 31.136C0.460986 7.74606 1.01948 5.90055 8.85947 2.13698C13.2132 0.0469618 13.8489 0.0150642 51.194 0.0150642C104.679 0.0150642 101.977 -1.77465 101.977 33.6609C101.977 55.3187 101.873 56.595 99.8942 59.1235C98.7485 60.5875 96.3298 62.7402 94.5192 63.9073C91.2397 66.0212 91.0795 66.029 51.7936 65.9922C21.1574 65.9636 11.6933 65.6748 9.37247 64.6979ZM64.126 60.3903C65.272 58.6343 62.6865 55.8728 59.3398 55.2781L55.9805 54.6813L55.3339 42.6729C54.9782 36.0683 54.6854 28.0121 54.6832 24.7704L54.6803 18.8762H62.1485C67.8217 18.8762 69.6166 19.1879 69.6166 20.1731C69.6166 20.8864 67.9963 24.8118 66.016 28.8964C64.0357 32.9809 61.572 38.1598 60.5412 40.4051L58.6669 44.4873L61.5758 47.2422C64.1377 49.6686 65.1903 49.9971 70.4015 49.9971C77.0195 49.9971 81.5656 47.6128 81.5656 44.1417C81.5656 43.0712 79.2547 37.3635 76.4303 31.4581C71.8374 21.855 71.4291 20.4836 72.5647 18.4739C73.2631 17.2381 73.5726 15.8257 73.2526 15.3352C72.9325 14.8448 68.6887 13.903 63.8218 13.2423L54.9729 12.0411L55.0757 8.74824C55.1993 4.78492 52.7301 2.68824 49.9506 4.39627C48.7607 5.12756 48.2725 6.50514 48.4113 8.74045L48.6145 12.0137L39.6651 13.2286C34.7429 13.8968 30.4538 14.8448 30.1337 15.3352C29.8137 15.8257 30.1224 17.2381 30.8216 18.4739C31.9573 20.4836 31.549 21.855 26.956 31.4581C24.1316 37.3635 21.8207 43.0712 21.8207 44.1417C21.8207 47.6128 26.3668 49.9971 32.9849 49.9971C38.1983 49.9971 39.2481 49.6691 41.8156 47.2375C45.1523 44.0773 45.3604 45.0598 38.3401 30.8337C35.8264 25.7399 33.7698 20.9657 33.7698 20.2243C33.7698 19.1754 35.4272 18.8762 41.2378 18.8762H48.706L48.7032 24.7704C48.701 28.0121 48.4081 36.0683 48.0525 42.6729L47.4058 54.6813L44.0465 55.2781C40.6998 55.8728 38.1144 58.6343 39.2603 60.3903C39.5989 60.9092 45.0474 61.3139 51.6945 61.3139C58.3416 61.3139 63.7901 60.9092 64.1287 60.3903H64.126ZM41.2863 58.5398C41.8066 58.0515 44.3607 57.1147 46.9621 56.4581C50.7776 55.4951 52.6062 55.4951 56.4217 56.4581C64.9332 58.6064 63.625 59.4277 51.6919 59.4277C44.5883 59.4277 40.6943 59.0955 41.2863 58.5398ZM49.7004 47.168C49.7004 41.1953 49.8901 40.5666 51.6919 40.5666C53.4937 40.5666 53.6834 41.1953 53.6834 47.168C53.6834 53.1407 53.4937 53.7694 51.6919 53.7694C49.89 53.7694 49.7004 53.1407 49.7004 47.168ZM25.6638 46.2563L23.313 44.4016H32.7726H42.2323L39.8815 46.2563C38.2656 47.5312 36.0432 48.111 32.7726 48.111C29.502 48.111 27.2796 47.5312 25.6638 46.2563ZM63.5022 46.2563L61.1515 44.4016H70.6111H80.0707L77.72 46.2563C76.1042 47.5312 73.8818 48.111 70.6111 48.111C67.3405 48.111 65.1181 47.5312 63.5022 46.2563ZM28.0086 33.9652C30.2537 29.2971 32.3975 25.4777 32.7726 25.4777C33.1477 25.4777 35.2915 29.2971 37.5366 33.9652L41.6187 42.4527H32.7726H23.9265L28.0086 33.9652ZM64.1008 37.5016C70.7315 23.4829 70.3113 24.1281 71.4724 26.1828C72.0593 27.2213 74.0965 31.3069 75.9995 35.2618L79.4596 42.4527H70.6093H61.759L64.1008 37.5016ZM50.6961 25.0061C50.6961 16.5186 51.0738 11.3318 51.6919 11.3318C52.3099 11.3318 52.6876 16.5186 52.6876 25.0061C52.6876 33.4937 52.3099 38.6805 51.6919 38.6805C51.0738 38.6805 50.6961 33.4937 50.6961 25.0061ZM38.2492 15.52C46.1839 13.8243 48.7046 13.8377 48.7046 15.5757C48.7046 16.7266 47.1734 16.9722 40.4897 16.8936L32.2747 16.7971L38.2492 15.52ZM54.6791 15.4872C54.6791 14.2234 55.481 14.0885 59.7143 14.64C69.5584 15.9222 70.6228 16.8228 62.3962 16.9092C55.9627 16.9768 54.6791 16.7402 54.6791 15.4872ZM49.8899 7.79541C50.0745 6.88774 50.8854 6.14508 51.6919 6.14508C52.4984 6.14508 53.3093 6.88774 53.4938 7.79541C53.7292 8.95335 53.1916 9.44579 51.6919 9.44579C50.1921 9.44579 49.6545 8.95335 49.8899 7.79541Z" fill="#75C0FB"/>
<path d="M39.2577 60.3903C38.1118 58.6343 40.6972 55.8727 44.0439 55.2781L47.4032 54.6813L48.0499 42.6729C48.4056 36.0683 48.6984 28.0121 48.7006 24.7703L48.7034 18.8762H41.2353C35.4247 18.8762 33.7672 19.1754 33.7672 20.2243C33.7672 20.9657 35.8238 25.7399 38.3375 30.8337C45.3579 45.0598 45.1497 44.0773 41.813 47.2375C39.2455 49.6691 38.1958 49.9971 32.9823 49.9971C26.3643 49.9971 21.8182 47.6127 21.8182 44.1416C21.8182 43.0711 24.1291 37.3635 26.9535 31.4581C31.5464 21.855 31.9547 20.4836 30.819 18.4739C30.1207 17.238 29.8112 15.8256 30.1312 15.3352C30.4512 14.8448 34.7403 13.8968 39.6625 13.2286L48.6119 12.0137L48.4087 8.74042C48.2699 6.50512 48.7581 5.12754 49.9481 4.39625C52.7275 2.68821 55.1967 4.7849 55.0731 8.74821L54.9704 12.0411L63.8193 13.2422C68.6862 13.9029 72.93 14.8448 73.2501 15.3352C73.5701 15.8256 73.2613 17.238 72.5622 18.4739C71.4265 20.4836 71.8348 21.855 76.4277 31.4581C79.2521 37.3635 81.563 43.0711 81.563 44.1416C81.563 47.6127 77.0169 49.9971 70.3989 49.9971C65.1878 49.9971 64.1352 49.6686 61.5732 47.2422L58.6644 44.4872L60.5386 40.405C61.5694 38.1598 64.0331 32.9809 66.0134 28.8964C67.9938 24.8118 69.614 20.8863 69.614 20.1731C69.614 19.1879 67.8191 18.8762 62.1459 18.8762H54.6778L54.6806 24.7703C54.6828 28.0121 54.9756 36.0683 55.3313 42.6729L55.978 54.6813L59.3373 55.2781C62.684 55.8727 65.2694 58.6343 64.1235 60.3903C63.7848 60.9092 58.3363 61.3138 51.6893 61.3138C45.0422 61.3138 39.5937 60.9092 39.2551 60.3903H39.2577ZM62.0975 58.5398C61.5772 58.0515 59.0231 57.1147 56.4217 56.4581C52.6062 55.4951 50.7776 55.4951 46.9621 56.4581C38.4506 58.6064 39.7587 59.4277 51.6919 59.4277C58.7955 59.4277 62.6894 59.0954 62.0975 58.5398ZM53.6834 47.168C53.6834 41.1953 53.4937 40.5666 51.6919 40.5666C49.8901 40.5666 49.7004 41.1953 49.7004 47.168C49.7004 53.1407 49.8901 53.7694 51.6919 53.7694C53.4937 53.7694 53.6834 53.1407 53.6834 47.168ZM39.8815 46.2563L42.2323 44.4015H32.7726H23.313L25.6638 46.2563C27.2797 47.5312 29.502 48.111 32.7726 48.111C36.0433 48.111 38.2657 47.5312 39.8815 46.2563ZM77.72 46.2563L80.0708 44.4015H70.6111H61.1515L63.5023 46.2563C65.1181 47.5312 67.3405 48.111 70.6111 48.111C73.8818 48.111 76.1042 47.5312 77.72 46.2563ZM37.5367 33.9652C35.2915 29.297 33.1477 25.4776 32.7726 25.4776C32.3975 25.4776 30.2537 29.297 28.0086 33.9652L23.9266 42.4527H32.7726H41.6187L37.5367 33.9652ZM75.9995 35.2618C74.0965 31.3068 72.0593 27.2213 71.4724 26.1828C70.3114 24.1281 70.7315 23.4829 64.1008 37.5016L61.759 42.4527H70.6093H79.4596L75.9995 35.2618ZM52.6877 25.0061C52.6877 16.5186 52.31 11.3318 51.6919 11.3318C51.0739 11.3318 50.6961 16.5186 50.6961 25.0061C50.6961 33.4936 51.0739 38.6805 51.6919 38.6805C52.31 38.6805 52.6877 33.4936 52.6877 25.0061ZM48.7047 15.5755C48.7047 13.8377 46.1839 13.8243 38.2493 15.5199L32.2747 16.7967L40.4897 16.8932C47.1734 16.9718 48.7047 16.7261 48.7047 15.5753V15.5755ZM67.4313 16.0618C65.9563 15.6405 62.4836 15.0005 59.7143 14.6398C55.481 14.0884 54.6791 14.2233 54.6791 15.487C54.6791 16.7401 55.9627 16.9766 62.3962 16.9091C67.9924 16.8502 69.3762 16.6174 67.4313 16.0618ZM53.4938 7.79527C53.3092 6.8876 52.4984 6.14493 51.6919 6.14493C50.8854 6.14493 50.0745 6.8876 49.8899 7.79527C49.6545 8.95321 50.1921 9.44565 51.6919 9.44565C53.1916 9.44565 53.7293 8.95321 53.4938 7.79527Z" fill="white"/>
</g>
<defs>
<clipPath id="clip0_423_1424">
<rect width="102" height="66" fill="white"/>
</clipPath>
</defs>
</svg>
