<svg width="103" height="69" viewBox="0 0 103 69" fill="none" xmlns="http://www.w3.org/2000/svg">
<g clip-path="url(#clip0_429_1416)">
<path d="M87.174 0H15C6.71573 0 0 6.71573 0 15V53.2356C0 61.5199 6.71573 68.2356 15 68.2356H87.174C95.4583 68.2356 102.174 61.5199 102.174 53.2356V15C102.174 6.71573 95.4583 0 87.174 0Z" fill="#77C3FF"/>
<path d="M64.2616 43.3735C64.1506 43.4552 61.549 45.4167 61.549 49.0402V53.9636C61.549 54.507 62.066 54.9482 62.7057 54.9482C63.3454 54.9482 63.8624 54.507 63.8624 53.9636V49.0402C63.8624 46.3481 65.7051 44.9164 65.8369 44.813L73.9339 37.9204C74.3932 37.5294 74.9658 37.303 75.5464 37.2833C76.1363 37.2616 76.643 37.4428 77.0651 37.8012C77.4861 38.1606 77.6979 38.6076 77.6736 39.094C77.6504 39.5883 77.3845 40.0758 76.9252 40.4666L71.1419 45.3901C70.6896 45.7751 70.6896 46.3974 71.1419 46.7824C71.5941 47.1674 72.3253 47.1674 72.7775 46.7824L78.5612 41.86C79.4323 41.1185 79.9378 40.1645 79.9863 39.1739C80.036 38.1389 79.5803 37.1563 78.7011 36.4089C77.822 35.6615 76.6826 35.2766 75.4519 35.3149C74.2894 35.3562 73.1685 35.7865 72.2986 36.528L64.2616 43.3735Z" fill="white"/>
<path d="M30.3174 53.9635C30.6136 53.9635 30.9097 53.8671 31.1352 53.6751C31.5876 53.29 31.5876 52.6677 31.1352 52.2828L21.8155 44.3543C21.7379 44.2962 19.9069 42.9058 19.9069 40.1783V25.4083C19.9069 24.3223 20.9444 23.439 22.2204 23.439C23.4962 23.439 24.5339 24.3222 24.5339 25.4083V33.2039C24.5339 33.7474 25.0509 34.1885 25.6906 34.1885C26.3302 34.1885 26.8472 33.7474 26.8472 33.2039V25.4083C26.8472 23.2361 24.772 21.4697 22.2204 21.4697C19.6686 21.4696 17.5934 23.2361 17.5934 25.4082V40.1782C17.5934 43.8549 20.2064 45.774 20.2457 45.7977L29.4996 53.6751C29.7252 53.8671 30.0212 53.9635 30.3174 53.9635Z" fill="white"/>
<path d="M24.6044 39.1738C24.6529 40.1644 25.1584 41.1184 26.0294 41.8589L31.8131 46.7823C32.2655 47.1673 32.9965 47.1673 33.4487 46.7823C33.9009 46.3972 33.9009 45.7749 33.4487 45.39L27.665 40.4657C27.2058 40.0758 26.9398 39.5884 26.9166 39.094C26.8924 38.6077 27.104 38.1605 27.5251 37.8012C27.9474 37.4428 28.4575 37.2616 29.0439 37.2833C29.6246 37.3031 30.1972 37.5295 30.6563 37.9204L38.8077 44.8564C38.8853 44.9165 40.7279 46.3482 40.7279 49.0402V53.9635C40.7279 54.5069 41.2449 54.9481 41.8846 54.9481C42.5242 54.9481 43.0412 54.5069 43.0412 53.9635V49.0401C43.0412 45.4165 40.4398 43.4551 40.3888 43.4206L32.2919 36.528C31.4221 35.7865 30.3012 35.3562 29.1387 35.3149C27.9032 35.2784 26.7674 35.6615 25.8894 36.4089C25.0103 37.1563 24.5546 38.1389 24.6044 39.1738Z" fill="white"/>
<path d="M52.2953 16.5463C53.5711 16.5463 54.6088 17.4295 54.6088 18.5156C54.6088 19.0591 55.1258 19.5003 55.7655 19.5003C56.4051 19.5003 56.9221 19.0591 56.9221 18.5156C56.9221 16.6861 55.4427 15.157 53.452 14.7168V14.5769C53.452 14.0334 52.935 13.5923 52.2953 13.5923C51.6556 13.5923 51.1386 14.0334 51.1386 14.5769V14.7168C49.1478 15.1569 47.6684 16.6861 47.6684 18.5156C47.6684 20.6879 49.7436 22.4543 52.2953 22.4543C53.5711 22.4543 54.6088 23.3375 54.6088 24.4236C54.6088 25.5098 53.5712 26.393 52.2953 26.393C51.0194 26.393 49.9818 25.5098 49.9818 24.4236C49.9818 23.8801 49.4648 23.439 48.8251 23.439C48.1854 23.439 47.6684 23.8801 47.6684 24.4236C47.6684 26.2531 49.1478 27.7823 51.1386 28.2225V28.3624C51.1386 28.9059 51.6556 29.347 52.2953 29.347C52.935 29.347 53.452 28.9059 53.452 28.3624V28.2225C55.4427 27.7824 56.9221 26.2531 56.9221 24.4236C56.9221 22.2514 54.8469 20.485 52.2953 20.485C51.0194 20.485 49.9818 19.6018 49.9818 18.5156C49.9818 17.4296 51.0194 16.5463 52.2953 16.5463Z" fill="white"/>
<path d="M44.1982 56.9175H25.6904C25.0507 56.9175 24.5337 57.3586 24.5337 57.9021V61.8407C24.5337 62.3842 25.0507 62.8254 25.6904 62.8254C26.3301 62.8254 26.8471 62.3842 26.8471 61.8407V58.8867H43.0414V61.8407C43.0414 62.3842 43.5584 62.8254 44.198 62.8254C44.8377 62.8254 45.3547 62.3842 45.3547 61.8407V57.9021C45.3549 57.3586 44.8379 56.9175 44.1982 56.9175Z" fill="white"/>
<path d="M78.9001 56.9175H60.3923C59.7527 56.9175 59.2357 57.3586 59.2357 57.9021V61.8407C59.2357 62.3842 59.7527 62.8254 60.3923 62.8254C61.032 62.8254 61.549 62.3842 61.549 61.8407V58.8867H77.7433V61.8407C77.7433 62.3842 78.2603 62.8254 78.9 62.8254C79.5397 62.8254 80.0567 62.3842 80.0567 61.8407V57.9021C80.0568 57.3586 79.5398 56.9175 78.9001 56.9175Z" fill="white"/>
<path d="M52.2953 7.68433C43.3653 7.68433 36.101 13.868 36.101 21.4697C36.101 29.0714 43.3653 35.255 52.2953 35.255C61.2252 35.255 68.4895 29.0712 68.4895 21.4697C68.4895 13.8681 61.2252 7.68433 52.2953 7.68433ZM52.2953 33.2856C44.6412 33.2856 38.4145 27.9852 38.4145 21.4697C38.4145 14.9541 44.6412 9.65369 52.2953 9.65369C59.9493 9.65369 66.176 14.9541 66.176 21.4697C66.176 27.9852 59.9493 33.2856 52.2953 33.2856Z" fill="white"/>
<path d="M82.3703 21.4695C79.8185 21.4695 77.7434 23.236 77.7434 25.4081V33.2036C77.7434 33.7471 78.2604 34.1883 78.9001 34.1883C79.5398 34.1883 80.0568 33.7471 80.0568 33.2036V25.4081C80.0568 24.322 81.0943 23.4387 82.3703 23.4387C83.6463 23.4387 84.6838 24.3219 84.6838 25.4081V40.1781C84.6838 42.9055 82.8527 44.2959 82.7093 44.4053L73.4553 52.2826C73.0029 52.6677 73.0029 53.29 73.4553 53.6749C73.6808 53.8669 73.977 53.9634 74.2731 53.9634C74.5693 53.9634 74.8653 53.8669 75.0909 53.6749L84.2731 45.8538C84.3841 45.774 86.9972 43.8549 86.9972 40.1782V25.4082C86.9972 23.236 84.922 21.4695 82.3703 21.4695Z" fill="white"/>
<path d="M73.1164 21.4696C73.1164 11.6968 63.7758 3.74561 52.2953 3.74561C40.8148 3.74561 31.4741 11.6968 31.4741 21.4696C31.4741 31.2423 40.8148 39.1935 52.2953 39.1935C63.7758 39.1935 73.1164 31.2423 73.1164 21.4696ZM52.2953 37.2242C42.0906 37.2242 33.7876 30.1563 33.7876 21.4696C33.7876 12.7829 42.0906 5.71497 52.2953 5.71497C62.4999 5.71497 70.8029 12.7829 70.8029 21.4696C70.8029 30.1563 62.4999 37.2242 52.2953 37.2242Z" fill="white"/>
</g>
<defs>
<clipPath id="clip0_429_1416">
<rect width="102.174" height="68.2356" fill="white"/>
</clipPath>
</defs>
</svg>
