<svg width="103" height="69" viewBox="0 0 103 69" fill="none" xmlns="http://www.w3.org/2000/svg">
<g clip-path="url(#clip0_433_1420)">
<path d="M87.174 0H15C6.71573 0 0 6.71573 0 15V53.2356C0 61.5199 6.71573 68.2356 15 68.2356H87.174C95.4583 68.2356 102.174 61.5199 102.174 53.2356V15C102.174 6.71573 95.4583 0 87.174 0Z" fill="#77C3FF"/>
<path d="M50.1326 35.0616C48.352 35.1803 46.6901 34.4681 44.9096 33.8745C35.5319 30.7882 26.1542 27.7019 16.8952 24.4969C16.3017 24.2594 15.8269 24.022 15.3521 23.6659C14.7585 23.1911 14.7585 22.5976 15.3521 22.1228C15.8269 21.7666 16.4204 21.4105 17.0139 21.2918C26.9851 18.3242 36.9563 15.3566 46.9275 12.2703C49.1829 11.558 51.4383 11.558 53.8124 12.2703C63.6649 15.2379 73.6361 18.2055 83.4886 21.1731C84.0822 21.4105 84.6757 21.6479 85.2692 22.004C85.9814 22.4789 85.9814 23.1911 85.2692 23.6659C84.7944 24.022 84.3196 24.2594 83.8447 24.3781C73.9922 27.7019 64.021 31.0256 54.0498 34.2306C52.7441 34.8242 51.557 35.0616 50.1326 35.0616Z" fill="white"/>
<path d="M30.4275 35.5364C29.0031 35.1803 28.647 36.13 28.647 36.8422C28.647 40.6407 28.647 44.3206 28.647 48.1191C28.647 49.4249 29.1218 50.2558 29.9527 51.0868C30.3088 51.4429 30.665 51.6803 31.0211 51.9177C33.3952 53.5796 36.1254 54.6479 38.9743 55.3601C44.5534 56.9033 50.2512 57.1407 55.9491 56.4285C59.6289 55.9537 63.3088 55.004 66.7512 53.4609C68.2944 52.7486 69.7188 51.9177 70.7872 50.7306C71.4994 50.0184 71.8555 49.3062 71.7368 48.2378C71.8555 44.6767 71.8555 40.9968 71.8555 37.317C71.8555 35.299 70.4311 35.5364 69.8375 35.6551C64.6145 37.4357 59.2728 39.0976 54.0498 40.8781C51.4383 41.7091 48.9455 41.7091 46.334 40.8781L30.4275 35.5364Z" fill="white"/>
<path d="M79.8088 32.0939C79.334 32.2126 79.2152 32.45 79.2152 32.9248C79.2152 36.2486 79.2152 39.5723 79.2152 42.896C79.2152 43.2522 79.0965 43.6083 78.9778 43.9644C78.2656 45.745 77.4347 47.5255 76.8412 49.3061C76.2476 50.968 76.6037 52.6298 77.7908 53.9356C78.1469 54.4104 78.6217 54.7665 79.0965 55.1226C79.5714 55.4787 80.2836 55.7162 80.8771 55.8349C81.9455 55.9536 82.7764 55.36 83.4886 54.7665C83.8447 54.4104 84.2009 54.0543 84.557 53.6982C85.3879 52.6298 85.6253 51.0867 85.2692 49.6622C84.7944 47.6442 83.9634 45.8637 83.0138 44.0831C82.7764 43.727 82.6577 43.2522 82.6577 42.896C82.6577 39.2162 82.6577 35.655 82.6577 31.9752C82.6577 31.263 82.0642 31.3817 81.8268 31.5004L79.8088 32.0939Z" fill="white"/>
</g>
<defs>
<clipPath id="clip0_433_1420">
<rect width="102.174" height="68.2356" fill="white"/>
</clipPath>
</defs>
</svg>
