<svg width="103" height="69" viewBox="0 0 103 69" fill="none" xmlns="http://www.w3.org/2000/svg">
<g clip-path="url(#clip0_433_1400)">
<path d="M87.174 0H15C6.71573 0 0 6.71573 0 15V53.2356C0 61.5199 6.71573 68.2356 15 68.2356H87.174C95.4583 68.2356 102.174 61.5199 102.174 53.2356V15C102.174 6.71573 95.4583 0 87.174 0Z" fill="#77C3FF"/>
<path d="M58.6128 42.3134C58.7148 41.8834 58.7848 41.4284 58.8058 40.9414C59.2098 32.0984 54.3778 24.8574 47.1348 20.2024C42.8268 17.4324 38.7408 20.4524 37.7028 24.3034C35.0328 22.1784 30.4088 25.3584 32.4888 28.8514C32.5648 28.9784 32.6428 29.1064 32.7208 29.2344C30.6328 29.2264 23.9788 29.2054 25.8418 29.2364C28.0438 29.2744 33.3278 35.2004 33.3278 35.2004V30.2004C34.9508 32.6824 37.0258 35.0044 40.1138 35.3554C41.5218 35.5164 42.6848 35.0804 43.6408 34.3174C44.8478 35.7944 45.4628 37.4524 45.5828 39.4424C44.5258 39.4264 43.4658 39.4694 42.3958 39.5944C38.7048 40.0294 36.4268 40.8424 35.6808 44.7034C34.5588 50.5274 37.5878 54.7814 40.8548 59.2334C43.5128 62.8544 49.6308 59.3454 46.9378 55.6734C44.7358 52.6734 42.5208 50.2084 42.6118 46.7224C44.7638 46.3954 46.9038 46.4834 49.0888 46.6924C50.1578 47.1524 51.3638 47.3384 52.5578 47.2454C54.3388 53.2004 57.7208 58.5044 62.1008 63.0284C65.2668 66.2994 70.2438 61.3064 67.0828 58.0494C62.7398 53.5574 59.8308 48.3604 58.6128 42.3134Z" fill="white"/>
<path d="M31.9478 13.7263C31.9568 13.8263 31.9598 13.9263 31.9738 14.0273C32.4228 17.2873 35.4278 19.5663 38.6858 19.1173C41.9458 18.6693 44.2218 15.6653 43.7758 12.4053C43.6838 11.7273 43.4758 11.0963 43.1818 10.5203C43.3828 10.4233 43.4738 10.1923 43.4058 9.71135L43.2118 8.28835C42.9918 6.69735 41.5248 5.58335 39.9358 5.80335L33.5938 6.67335C31.9988 6.89335 30.8878 8.36035 31.1068 9.95335L31.2618 11.1043C30.3728 11.8133 29.6218 12.7093 29.7848 13.6593C29.9268 14.5023 30.8608 14.2933 31.9478 13.7263Z" fill="white"/>
<path d="M48.0368 19.1744C48.0368 19.1744 62.3168 26.8304 60.6298 38.1144C56.9318 47.5224 73.0788 57.2124 81.8588 35.5144C81.8578 35.5144 93.0378 5.77636 48.0368 19.1744ZM72.2138 36.8804V38.6944H70.2838V36.9874C69.3898 36.9034 68.5008 36.6084 67.9258 36.2004L67.6548 36.0054L68.3548 34.0474L68.8248 34.3604C69.4338 34.7674 70.2208 35.0024 70.9748 35.0024C71.8978 35.0024 72.5138 34.5234 72.5138 33.8124C72.5138 33.3324 72.3228 32.8114 70.9098 32.2394C69.4178 31.6554 67.8888 30.8044 67.8888 28.9524C67.8888 27.4634 68.8678 26.3024 70.4028 25.9154V24.1524H72.3158V25.7954C73.0468 25.8694 73.6858 26.0724 74.2608 26.4094L74.5818 26.5994L73.8518 28.5274L73.4018 28.2714C73.1378 28.1204 72.5148 27.7634 71.5258 27.7634C70.5508 27.7634 70.2038 28.2754 70.2038 28.7544C70.2038 29.2734 70.4618 29.6094 71.9948 30.2454C73.3208 30.7854 74.8478 31.6674 74.8478 33.6964C74.8448 35.2334 73.8018 36.4754 72.2138 36.8804Z" fill="white"/>
</g>
<defs>
<clipPath id="clip0_433_1400">
<rect width="102.174" height="68.2356" fill="white"/>
</clipPath>
</defs>
</svg>
