<svg width="102" height="68" viewBox="0 0 102 68" fill="none" xmlns="http://www.w3.org/2000/svg">
<g clip-path="url(#clip0_423_1400)">
<g filter="url(#filter0_d_423_1400)">
<path d="M90.4001 0H11.6C5.1935 0 3.05176e-05 5.58935 3.05176e-05 12.4842V55.5158C3.05176e-05 62.4106 5.1935 68 11.6 68H90.4001C96.8066 68 102 62.4106 102 55.5158V12.4842C102 5.58935 96.8066 0 90.4001 0Z" fill="#77C3FF"/>
</g>
<path d="M43.2794 10.9638C43.2794 10.5266 43.2794 9.79498 44.9855 9.79498C46.6914 9.79498 46.6914 10.5266 46.6914 10.9638V21.9881C46.6914 23.1038 47.6217 24.0083 48.7689 24.0083C49.9162 24.0083 50.8464 23.1038 50.8464 21.9881V8.51119C50.8464 8.07399 50.8464 7.34212 52.5523 7.34212C54.2581 7.34212 54.2581 8.07399 54.2581 8.51119V21.9881C54.2581 23.1038 55.1885 24.0083 56.3356 24.0083C57.483 24.0083 58.4131 23.1038 58.4131 21.9881V10.9638C58.4131 10.5266 58.4131 9.79498 60.119 9.79498C61.8253 9.79498 61.8253 10.5266 61.8253 10.9638V25.3215C61.8253 26.437 62.7554 27.3415 63.9026 27.3415C65.0499 27.3415 65.98 26.437 65.98 25.3215V17.4713C65.98 17.1125 65.98 16.1583 67.6863 16.1583C69.3922 16.1583 69.3922 17.1125 69.3922 17.4713V45.3493C69.3922 45.3812 69.3935 45.4225 69.3952 45.4546C69.3969 45.491 69.5474 49.122 67.3213 51.3922C66.0614 52.6772 64.193 53.3289 61.7685 53.3289C60.6212 53.3289 59.691 54.2334 59.691 55.3491V62.0157C59.691 63.1312 60.6212 64.0358 61.7685 64.0358C62.9157 64.0358 63.846 63.1312 63.846 62.0157V57.2406C66.5117 56.8959 68.6962 55.8601 70.3594 54.1489C73.6378 50.7755 73.5733 45.9726 73.5474 45.306V17.4713C73.5474 14.3195 71.1372 12.118 67.6866 12.118C67.0832 12.118 66.5127 12.1867 65.9802 12.3145V10.9638C65.9802 7.84803 63.625 5.75466 60.1192 5.75466C59.2934 5.75466 58.5325 5.87224 57.8501 6.09043C56.9532 4.36024 55.0438 3.302 52.5523 3.302C50.0607 3.302 48.1513 4.36024 47.2546 6.09043C46.5722 5.87245 45.8115 5.75466 44.9855 5.75466C41.4797 5.75466 39.1245 7.84782 39.1245 10.9638V25.6475C38.5922 25.5197 38.0217 25.4512 37.4186 25.4512C33.9677 25.4512 31.5575 27.6525 31.5575 30.8045V45.3495C31.5575 45.3959 31.5592 45.4426 31.5622 45.489C31.571 45.6098 31.7922 48.4815 33.4703 51.3484C34.8915 53.776 37.5885 56.6155 42.5522 57.2427V62.0157C42.5522 63.1312 43.4826 64.0358 44.6297 64.0358C45.7771 64.0358 46.7072 63.1312 46.7072 62.0157V55.3489C46.7072 54.2332 45.7771 53.3287 44.6297 53.3287C41.2146 53.3287 38.6965 52.0265 37.146 49.4581C36.0025 47.5641 35.7484 45.5941 35.7125 45.2593V30.8043C35.7125 30.4452 35.7125 29.4911 37.4186 29.4911C39.1245 29.4911 39.1318 30.4452 39.1318 30.8043V34.6463C39.132 34.6483 39.1316 34.6504 39.1318 34.6522C39.18 35.1328 39.3882 35.5822 39.7564 35.9139C39.8693 36.0158 39.9907 36.1033 40.1183 36.1775C39.9501 36.8075 39.8599 37.4685 39.8599 38.1494C39.8599 45.2475 51.42 52.0038 52.7382 52.7508C53.0614 52.9341 53.4227 53.0257 53.7844 53.0257C54.1456 53.0257 54.5069 52.9343 54.8306 52.7508C56.1485 52.0038 67.7074 45.2475 67.7074 38.1494C67.7074 33.8386 64.1183 30.3313 59.7064 30.3313C57.3612 30.3313 55.2486 31.3225 53.7841 32.8989C52.3195 31.3225 50.2067 30.3313 47.8613 30.3313C46.1579 30.3313 44.5784 30.8559 43.2794 31.7458V10.9638ZM47.8613 34.3715C49.9819 34.3715 51.7069 36.0663 51.7069 38.1494C51.7069 39.2649 52.637 40.1696 53.7844 40.1696C54.9315 40.1696 55.8618 39.2649 55.8618 38.1494C55.8618 36.0663 57.5864 34.3715 59.7064 34.3715C61.827 34.3715 63.5524 36.0663 63.5524 38.1494C63.5524 41.4783 57.9376 46.0763 53.7831 48.6404C49.6288 46.0812 44.0148 41.4877 44.0148 38.1494C44.0148 36.0665 45.7403 34.3715 47.8613 34.3715Z" fill="#FDFEFF"/>
</g>
<defs>
<filter id="filter0_d_423_1400" x="-303.038" y="-3.28946" width="411.617" height="156.384" filterUnits="userSpaceOnUse" color-interpolation-filters="sRGB">
<feFlood flood-opacity="0" result="BackgroundImageFix"/>
<feColorMatrix in="SourceAlpha" type="matrix" values="0 0 0 0 0 0 0 0 0 0 0 0 0 0 0 0 0 0 127 0" result="hardAlpha"/>
<feOffset dy="3.28946"/>
<feGaussianBlur stdDeviation="3.28946"/>
<feColorMatrix type="matrix" values="0 0 0 0 0.770833 0 0 0 0 0.619075 0 0 0 0 0.56849 0 0 0 0.1 0"/>
<feBlend mode="normal" in2="BackgroundImageFix" result="effect1_dropShadow_423_1400"/>
<feBlend mode="normal" in="SourceGraphic" in2="effect1_dropShadow_423_1400" result="shape"/>
</filter>
<clipPath id="clip0_423_1400">
<rect width="102" height="68" fill="white"/>
</clipPath>
</defs>
</svg>
