<svg width="1429" height="303" viewBox="0 0 1429 303" fill="none" xmlns="http://www.w3.org/2000/svg">
<g filter="url(#filter0_d_78_641)">
<rect x="4" width="460" height="295" rx="44" fill="white"/>
<path d="M37.5519 135V112.152H55.6319V135H50.7999V116.184H42.3839V135H37.5519ZM77.8836 126.232C77.8836 127.683 77.681 128.973 77.2756 130.104C76.8916 131.235 76.3263 132.195 75.5796 132.984C74.8543 133.752 73.969 134.339 72.9236 134.744C71.8783 135.128 70.6943 135.32 69.3716 135.32C68.1556 135.32 67.025 135.128 65.9796 134.744C64.9556 134.339 64.0703 133.752 63.3236 132.984C62.577 132.195 61.9903 131.235 61.5636 130.104C61.1583 128.973 60.9556 127.683 60.9556 126.232C60.9556 124.291 61.297 122.659 61.9796 121.336C62.6623 119.992 63.6436 118.968 64.9236 118.264C66.2036 117.56 67.7183 117.208 69.4676 117.208C71.1103 117.208 72.561 117.56 73.8196 118.264C75.0783 118.968 76.0703 119.992 76.7956 121.336C77.521 122.659 77.8836 124.291 77.8836 126.232ZM65.8196 126.232C65.8196 127.384 65.937 128.355 66.1716 129.144C66.4276 129.912 66.8223 130.499 67.3556 130.904C67.889 131.288 68.5823 131.48 69.4356 131.48C70.289 131.48 70.9716 131.288 71.4836 130.904C72.017 130.499 72.401 129.912 72.6356 129.144C72.8916 128.355 73.0196 127.384 73.0196 126.232C73.0196 125.08 72.8916 124.12 72.6356 123.352C72.401 122.584 72.017 122.008 71.4836 121.624C70.9503 121.24 70.257 121.048 69.4036 121.048C68.145 121.048 67.2276 121.485 66.6516 122.36C66.097 123.213 65.8196 124.504 65.8196 126.232ZM102.061 117.528H107.309L100.397 125.912L107.917 135H102.509L95.3734 126.136V135H90.6054V117.528H95.3734V126.008L102.061 117.528ZM126.906 122.104C126.906 123.043 126.607 123.843 126.01 124.504C125.434 125.165 124.57 125.592 123.418 125.784V125.912C124.634 126.061 125.605 126.477 126.33 127.16C127.077 127.843 127.45 128.717 127.45 129.784C127.45 130.531 127.301 131.224 127.002 131.864C126.725 132.504 126.277 133.059 125.658 133.528C125.039 133.997 124.239 134.36 123.258 134.616C122.298 134.872 121.125 135 119.738 135H111.418V117.528H119.738C121.103 117.528 122.319 117.677 123.386 117.976C124.474 118.253 125.327 118.723 125.946 119.384C126.586 120.045 126.906 120.952 126.906 122.104ZM122.522 129.528C122.522 128.845 122.255 128.355 121.722 128.056C121.189 127.736 120.389 127.576 119.322 127.576H116.186V131.704H119.418C120.314 131.704 121.05 131.544 121.626 131.224C122.223 130.883 122.522 130.317 122.522 129.528ZM122.074 122.488C122.074 121.933 121.861 121.528 121.434 121.272C121.007 121.016 120.378 120.888 119.546 120.888H116.186V124.344H119.002C120.005 124.344 120.762 124.205 121.274 123.928C121.807 123.629 122.074 123.149 122.074 122.488ZM137.151 124.44C137.151 124.803 137.13 125.251 137.087 125.784C137.066 126.317 137.034 126.861 136.991 127.416C136.97 127.971 136.938 128.461 136.895 128.888C136.852 129.315 136.82 129.613 136.799 129.784L144.863 117.528H150.591V135H145.983V128.024C145.983 127.448 146.004 126.819 146.047 126.136C146.09 125.432 146.132 124.781 146.175 124.184C146.239 123.565 146.282 123.096 146.303 122.776L138.271 135H132.543V117.528H137.151V124.44ZM171.038 121.112H165.31V135H160.542V121.112H154.814V117.528H171.038V121.112ZM182.43 117.176C184.776 117.176 186.568 117.688 187.806 118.712C189.064 119.715 189.694 121.261 189.694 123.352V135H186.366L185.438 132.632H185.31C184.819 133.251 184.307 133.763 183.774 134.168C183.262 134.573 182.664 134.861 181.982 135.032C181.32 135.224 180.499 135.32 179.518 135.32C178.494 135.32 177.566 135.128 176.734 134.744C175.923 134.339 175.283 133.731 174.814 132.92C174.344 132.088 174.11 131.043 174.11 129.784C174.11 127.928 174.76 126.563 176.062 125.688C177.363 124.792 179.315 124.301 181.918 124.216L184.958 124.12V123.352C184.958 122.435 184.712 121.763 184.222 121.336C183.752 120.909 183.091 120.696 182.238 120.696C181.384 120.696 180.552 120.824 179.742 121.08C178.931 121.315 178.12 121.613 177.31 121.976L175.742 118.744C176.68 118.253 177.715 117.869 178.846 117.592C179.998 117.315 181.192 117.176 182.43 117.176ZM183.102 126.968C181.566 127.011 180.499 127.288 179.902 127.8C179.304 128.312 179.006 128.984 179.006 129.816C179.006 130.541 179.219 131.064 179.646 131.384C180.072 131.683 180.627 131.832 181.31 131.832C182.334 131.832 183.198 131.533 183.902 130.936C184.606 130.317 184.958 129.453 184.958 128.344V126.904L183.102 126.968ZM200.342 117.528V124.248H206.998V117.528H211.766V135H206.998V127.8H200.342V135H195.574V117.528H200.342ZM236.834 141.272H232.546V135H217.762V117.528H222.53V131.416H229.506V117.528H234.274V131.512H236.834V141.272ZM245.401 124.44C245.401 124.803 245.38 125.251 245.337 125.784C245.316 126.317 245.284 126.861 245.241 127.416C245.22 127.971 245.188 128.461 245.145 128.888C245.102 129.315 245.07 129.613 245.049 129.784L253.113 117.528H258.841V135H254.233V128.024C254.233 127.448 254.254 126.819 254.297 126.136C254.34 125.432 254.382 124.781 254.425 124.184C254.489 123.565 254.532 123.096 254.553 122.776L246.521 135H240.793V117.528H245.401V124.44ZM269.432 124.44C269.432 124.803 269.411 125.251 269.368 125.784C269.347 126.317 269.315 126.861 269.272 127.416C269.251 127.971 269.219 128.461 269.176 128.888C269.133 129.315 269.101 129.613 269.08 129.784L277.144 117.528H282.872V135H278.264V128.024C278.264 127.448 278.285 126.819 278.328 126.136C278.371 125.432 278.413 124.781 278.456 124.184C278.52 123.565 278.563 123.096 278.584 122.776L270.552 135H264.824V117.528H269.432V124.44ZM312.125 122.104C312.125 123.043 311.826 123.843 311.229 124.504C310.653 125.165 309.789 125.592 308.637 125.784V125.912C309.853 126.061 310.823 126.477 311.549 127.16C312.295 127.843 312.669 128.717 312.669 129.784C312.669 130.531 312.519 131.224 312.221 131.864C311.943 132.504 311.495 133.059 310.877 133.528C310.258 133.997 309.458 134.36 308.477 134.616C307.517 134.872 306.343 135 304.957 135H296.637V117.528H304.957C306.322 117.528 307.538 117.677 308.605 117.976C309.693 118.253 310.546 118.723 311.165 119.384C311.805 120.045 312.125 120.952 312.125 122.104ZM307.741 129.528C307.741 128.845 307.474 128.355 306.941 128.056C306.407 127.736 305.607 127.576 304.541 127.576H301.405V131.704H304.637C305.533 131.704 306.269 131.544 306.845 131.224C307.442 130.883 307.741 130.317 307.741 129.528ZM307.293 122.488C307.293 121.933 307.079 121.528 306.653 121.272C306.226 121.016 305.597 120.888 304.765 120.888H301.405V124.344H304.221C305.223 124.344 305.981 124.205 306.493 123.928C307.026 123.629 307.293 123.149 307.293 122.488ZM324.487 124.536C324.487 121.955 324.807 119.768 325.447 117.976C326.087 116.163 327.1 114.723 328.487 113.656C329.874 112.568 331.687 111.832 333.927 111.448C335.058 111.256 336.199 111.096 337.351 110.968C338.524 110.819 339.73 110.669 340.967 110.52L341.511 114.68C340.978 114.744 340.391 114.819 339.751 114.904C339.111 114.968 338.46 115.043 337.799 115.128C337.159 115.192 336.54 115.267 335.943 115.352C335.346 115.437 334.802 115.512 334.311 115.576C333.522 115.704 332.828 115.885 332.231 116.12C331.634 116.333 331.132 116.643 330.727 117.048C330.322 117.453 330.002 118.008 329.767 118.712C329.554 119.395 329.415 120.28 329.351 121.368H329.575C329.831 120.963 330.183 120.557 330.631 120.152C331.1 119.747 331.676 119.405 332.359 119.128C333.042 118.851 333.82 118.712 334.695 118.712C336.082 118.712 337.287 119 338.311 119.576C339.335 120.152 340.124 121.005 340.679 122.136C341.234 123.267 341.511 124.675 341.511 126.36C341.511 128.344 341.148 129.997 340.423 131.32C339.698 132.643 338.695 133.645 337.415 134.328C336.135 134.989 334.652 135.32 332.967 135.32C331.687 135.32 330.524 135.085 329.479 134.616C328.434 134.147 327.538 133.453 326.791 132.536C326.044 131.619 325.468 130.488 325.063 129.144C324.679 127.8 324.487 126.264 324.487 124.536ZM333.255 131.448C333.938 131.448 334.524 131.299 335.015 131C335.527 130.701 335.922 130.211 336.199 129.528C336.498 128.845 336.647 127.928 336.647 126.776C336.647 125.389 336.412 124.291 335.943 123.48C335.495 122.648 334.706 122.232 333.575 122.232C332.892 122.232 332.252 122.403 331.655 122.744C331.079 123.064 330.588 123.437 330.183 123.864C329.778 124.269 329.5 124.621 329.351 124.92C329.351 125.752 329.415 126.563 329.543 127.352C329.671 128.12 329.884 128.813 330.183 129.432C330.482 130.051 330.876 130.541 331.367 130.904C331.879 131.267 332.508 131.448 333.255 131.448ZM353.617 117.176C355.964 117.176 357.756 117.688 358.993 118.712C360.252 119.715 360.881 121.261 360.881 123.352V135H357.553L356.625 132.632H356.497C356.006 133.251 355.494 133.763 354.961 134.168C354.449 134.573 353.852 134.861 353.169 135.032C352.508 135.224 351.686 135.32 350.705 135.32C349.681 135.32 348.753 135.128 347.921 134.744C347.11 134.339 346.47 133.731 346.001 132.92C345.532 132.088 345.297 131.043 345.297 129.784C345.297 127.928 345.948 126.563 347.249 125.688C348.55 124.792 350.502 124.301 353.105 124.216L356.145 124.12V123.352C356.145 122.435 355.9 121.763 355.409 121.336C354.94 120.909 354.278 120.696 353.425 120.696C352.572 120.696 351.74 120.824 350.929 121.08C350.118 121.315 349.308 121.613 348.497 121.976L346.929 118.744C347.868 118.253 348.902 117.869 350.033 117.592C351.185 117.315 352.38 117.176 353.617 117.176ZM354.289 126.968C352.753 127.011 351.686 127.288 351.089 127.8C350.492 128.312 350.193 128.984 350.193 129.816C350.193 130.541 350.406 131.064 350.833 131.384C351.26 131.683 351.814 131.832 352.497 131.832C353.521 131.832 354.385 131.533 355.089 130.936C355.793 130.317 356.145 129.453 356.145 128.344V126.904L354.289 126.968ZM371.53 117.528V124.248H378.186V117.528H382.954V135H378.186V127.8H371.53V135H366.762V117.528H371.53ZM400.405 117.528H405.653L398.741 125.912L406.261 135H400.853L393.717 126.136V135H388.949V117.528H393.717V126.008L400.405 117.528ZM416.337 117.208C417.958 117.208 419.345 117.517 420.497 118.136C421.67 118.755 422.577 119.651 423.217 120.824C423.857 121.997 424.177 123.437 424.177 125.144V127.448H412.913C412.955 128.792 413.35 129.848 414.097 130.616C414.865 131.384 415.921 131.768 417.265 131.768C418.395 131.768 419.419 131.661 420.337 131.448C421.254 131.213 422.203 130.861 423.185 130.392V134.072C422.331 134.499 421.425 134.808 420.465 135C419.526 135.213 418.385 135.32 417.041 135.32C415.291 135.32 413.745 135 412.401 134.36C411.057 133.699 410.001 132.707 409.233 131.384C408.465 130.061 408.081 128.397 408.081 126.392C408.081 124.344 408.422 122.648 409.105 121.304C409.809 119.939 410.779 118.915 412.017 118.232C413.254 117.549 414.694 117.208 416.337 117.208ZM416.369 120.6C415.451 120.6 414.683 120.899 414.065 121.496C413.467 122.093 413.115 123.021 413.009 124.28H419.697C419.697 123.576 419.569 122.947 419.313 122.392C419.078 121.837 418.715 121.4 418.225 121.08C417.734 120.76 417.115 120.6 416.369 120.6ZM109.671 188.952C107.623 186.947 106.023 184.397 104.871 181.304C103.74 178.211 103.175 174.872 103.175 171.288C103.175 167.619 103.772 164.195 104.967 161.016C106.183 157.816 107.911 155.181 110.151 153.112H113.191V153.4C110.801 155.64 108.999 158.339 107.783 161.496C106.588 164.632 105.991 167.896 105.991 171.288C105.991 174.595 106.556 177.752 107.687 180.76C108.839 183.768 110.513 186.403 112.711 188.664V188.952H109.671ZM124.594 165.528C126.066 165.528 127.325 165.848 128.37 166.488C129.437 167.128 130.247 168.035 130.802 169.208C131.378 170.36 131.666 171.715 131.666 173.272V174.968H119.922C119.965 176.909 120.455 178.392 121.394 179.416C122.354 180.419 123.687 180.92 125.394 180.92C126.482 180.92 127.442 180.824 128.274 180.632C129.127 180.419 130.002 180.12 130.898 179.736V182.2C130.023 182.584 129.159 182.861 128.306 183.032C127.453 183.224 126.439 183.32 125.266 183.32C123.645 183.32 122.205 182.989 120.946 182.328C119.709 181.667 118.738 180.685 118.034 179.384C117.351 178.061 117.01 176.451 117.01 174.552C117.01 172.675 117.319 171.064 117.938 169.72C118.578 168.376 119.463 167.341 120.594 166.616C121.746 165.891 123.079 165.528 124.594 165.528ZM124.562 167.832C123.218 167.832 122.151 168.269 121.362 169.144C120.594 169.997 120.135 171.192 119.986 172.728H128.722C128.722 171.747 128.573 170.893 128.274 170.168C127.975 169.443 127.517 168.877 126.898 168.472C126.301 168.045 125.522 167.832 124.562 167.832ZM143.913 183.32C142.398 183.32 141.043 183.011 139.849 182.392C138.675 181.773 137.747 180.813 137.065 179.512C136.403 178.211 136.073 176.547 136.073 174.52C136.073 172.408 136.425 170.691 137.129 169.368C137.833 168.045 138.782 167.075 139.977 166.456C141.193 165.837 142.569 165.528 144.105 165.528C144.979 165.528 145.822 165.624 146.633 165.816C147.443 165.987 148.105 166.2 148.617 166.456L147.753 168.792C147.241 168.6 146.643 168.419 145.961 168.248C145.278 168.077 144.638 167.992 144.041 167.992C142.889 167.992 141.939 168.237 141.193 168.728C140.446 169.219 139.891 169.944 139.529 170.904C139.166 171.864 138.985 173.059 138.985 174.488C138.985 175.853 139.166 177.016 139.529 177.976C139.891 178.936 140.435 179.661 141.161 180.152C141.886 180.643 142.793 180.888 143.881 180.888C144.819 180.888 145.641 180.792 146.345 180.6C147.07 180.408 147.731 180.173 148.329 179.896V182.392C147.753 182.691 147.113 182.915 146.409 183.064C145.726 183.235 144.894 183.32 143.913 183.32ZM165.248 168.216H159.648V183H156.864V168.216H151.328V165.848H165.248V168.216ZM177.53 172.888C179.024 172.888 180.261 173.069 181.242 173.432C182.224 173.795 182.96 174.339 183.45 175.064C183.962 175.768 184.218 176.664 184.218 177.752C184.218 178.819 183.973 179.747 183.482 180.536C183.013 181.325 182.277 181.933 181.274 182.36C180.272 182.787 178.981 183 177.402 183H169.626V165.848H172.442V172.888H177.53ZM181.402 177.912C181.402 176.867 181.029 176.163 180.282 175.8C179.557 175.416 178.533 175.224 177.21 175.224H172.442V180.728H177.274C178.469 180.728 179.45 180.515 180.218 180.088C181.008 179.661 181.402 178.936 181.402 177.912ZM209.302 165.848H212.374L205.046 174.104L212.982 183H209.718L201.974 174.296V183H199.158V165.848H201.974V174.168L209.302 165.848ZM231.382 174.392C231.382 175.821 231.19 177.091 230.806 178.2C230.443 179.288 229.91 180.216 229.206 180.984C228.523 181.752 227.681 182.339 226.678 182.744C225.697 183.128 224.598 183.32 223.382 183.32C222.251 183.32 221.206 183.128 220.246 182.744C219.286 182.339 218.454 181.752 217.75 180.984C217.046 180.216 216.491 179.288 216.086 178.2C215.702 177.091 215.51 175.821 215.51 174.392C215.51 172.493 215.83 170.893 216.47 169.592C217.11 168.269 218.027 167.267 219.222 166.584C220.417 165.88 221.835 165.528 223.478 165.528C225.035 165.528 226.401 165.88 227.574 166.584C228.769 167.267 229.697 168.269 230.358 169.592C231.041 170.893 231.382 172.493 231.382 174.392ZM218.422 174.392C218.422 175.736 218.593 176.909 218.934 177.912C219.297 178.893 219.851 179.651 220.598 180.184C221.345 180.717 222.294 180.984 223.446 180.984C224.598 180.984 225.547 180.717 226.294 180.184C227.041 179.651 227.585 178.893 227.926 177.912C228.289 176.909 228.47 175.736 228.47 174.392C228.47 173.027 228.289 171.864 227.926 170.904C227.563 169.944 227.009 169.208 226.262 168.696C225.537 168.163 224.587 167.896 223.414 167.896C221.665 167.896 220.395 168.472 219.606 169.624C218.817 170.776 218.422 172.365 218.422 174.392ZM255.245 165.848V183H252.717V172.056C252.717 171.608 252.728 171.139 252.749 170.648C252.792 170.157 252.834 169.677 252.877 169.208H252.781L247.181 183H244.813L239.373 169.208H239.277C239.32 169.677 239.341 170.157 239.341 170.648C239.362 171.139 239.373 171.64 239.373 172.152V183H236.845V165.848H240.589L245.997 179.64L251.501 165.848H255.245ZM264.376 176.312C264.376 176.504 264.365 176.781 264.344 177.144C264.344 177.485 264.333 177.859 264.312 178.264C264.291 178.648 264.269 179.021 264.248 179.384C264.227 179.725 264.205 180.003 264.184 180.216L273.368 165.848H276.824V183H274.2V172.888C274.2 172.547 274.2 172.099 274.2 171.544C274.221 170.989 274.243 170.445 274.264 169.912C274.285 169.357 274.307 168.941 274.328 168.664L265.208 183H261.72V165.848H264.376V176.312ZM290.163 183.32C288.648 183.32 287.293 183.011 286.099 182.392C284.925 181.773 283.997 180.813 283.315 179.512C282.653 178.211 282.323 176.547 282.323 174.52C282.323 172.408 282.675 170.691 283.379 169.368C284.083 168.045 285.032 167.075 286.227 166.456C287.443 165.837 288.819 165.528 290.355 165.528C291.229 165.528 292.072 165.624 292.883 165.816C293.693 165.987 294.355 166.2 294.867 166.456L294.003 168.792C293.491 168.6 292.893 168.419 292.211 168.248C291.528 168.077 290.888 167.992 290.291 167.992C289.139 167.992 288.189 168.237 287.443 168.728C286.696 169.219 286.141 169.944 285.779 170.904C285.416 171.864 285.235 173.059 285.235 174.488C285.235 175.853 285.416 177.016 285.779 177.976C286.141 178.936 286.685 179.661 287.411 180.152C288.136 180.643 289.043 180.888 290.131 180.888C291.069 180.888 291.891 180.792 292.595 180.6C293.32 180.408 293.981 180.173 294.579 179.896V182.392C294.003 182.691 293.363 182.915 292.659 183.064C291.976 183.235 291.144 183.32 290.163 183.32ZM306.538 183.32C305.023 183.32 303.668 183.011 302.474 182.392C301.3 181.773 300.372 180.813 299.69 179.512C299.028 178.211 298.698 176.547 298.698 174.52C298.698 172.408 299.05 170.691 299.754 169.368C300.458 168.045 301.407 167.075 302.602 166.456C303.818 165.837 305.194 165.528 306.73 165.528C307.604 165.528 308.447 165.624 309.258 165.816C310.068 165.987 310.73 166.2 311.242 166.456L310.378 168.792C309.866 168.6 309.268 168.419 308.586 168.248C307.903 168.077 307.263 167.992 306.666 167.992C305.514 167.992 304.564 168.237 303.818 168.728C303.071 169.219 302.516 169.944 302.154 170.904C301.791 171.864 301.61 173.059 301.61 174.488C301.61 175.853 301.791 177.016 302.154 177.976C302.516 178.936 303.06 179.661 303.786 180.152C304.511 180.643 305.418 180.888 306.506 180.888C307.444 180.888 308.266 180.792 308.97 180.6C309.695 180.408 310.356 180.173 310.954 179.896V182.392C310.378 182.691 309.738 182.915 309.034 183.064C308.351 183.235 307.519 183.32 306.538 183.32ZM318.689 176.312C318.689 176.504 318.678 176.781 318.657 177.144C318.657 177.485 318.646 177.859 318.625 178.264C318.603 178.648 318.582 179.021 318.561 179.384C318.539 179.725 318.518 180.003 318.497 180.216L327.681 165.848H331.137V183H328.513V172.888C328.513 172.547 328.513 172.099 328.513 171.544C328.534 170.989 328.555 170.445 328.577 169.912C328.598 169.357 328.619 168.941 328.641 168.664L319.521 183H316.033V165.848H318.689V176.312ZM338.651 183H335.387L340.283 175.8C339.622 175.629 338.982 175.363 338.363 175C337.744 174.616 337.243 174.093 336.859 173.432C336.475 172.749 336.283 171.907 336.283 170.904C336.283 169.261 336.838 168.013 337.947 167.16C339.056 166.285 340.528 165.848 342.363 165.848H350.043V183H347.227V176.184H343.067L338.651 183ZM339.003 170.936C339.003 171.917 339.366 172.653 340.091 173.144C340.838 173.613 341.872 173.848 343.195 173.848H347.227V168.184H342.651C341.35 168.184 340.411 168.44 339.835 168.952C339.28 169.464 339.003 170.125 339.003 170.936ZM355.286 188.952V188.664C357.483 186.403 359.147 183.768 360.278 180.76C361.43 177.752 362.006 174.595 362.006 171.288C362.006 167.896 361.398 164.632 360.182 161.496C358.987 158.339 357.195 155.64 354.806 153.4V153.112H357.846C360.086 155.181 361.803 157.816 362.998 161.016C364.214 164.195 364.822 167.619 364.822 171.288C364.822 174.872 364.246 178.211 363.094 181.304C361.963 184.397 360.374 186.947 358.326 188.952H355.286Z" fill="#14142B"/>
<rect x="6.5" y="2.5" width="455" height="290" rx="41.5" stroke="#2394BC" stroke-width="5"/>
</g>
<g filter="url(#filter1_d_78_641)">
<rect x="965" width="460" height="295" rx="44" fill="white"/>
<path d="M1070.07 135H1065.24V126.168C1063.9 126.637 1062.66 126.989 1061.53 127.224C1060.42 127.459 1059.3 127.576 1058.17 127.576C1056.03 127.576 1054.36 127.064 1053.14 126.04C1051.95 124.995 1051.35 123.512 1051.35 121.592V112.152H1056.18V120.216C1056.18 121.325 1056.44 122.157 1056.95 122.712C1057.46 123.267 1058.33 123.544 1059.54 123.544C1060.44 123.544 1061.34 123.448 1062.23 123.256C1063.13 123.064 1064.13 122.776 1065.24 122.392V112.152H1070.07V135ZM1083.63 117.208C1085.25 117.208 1086.64 117.517 1087.79 118.136C1088.97 118.755 1089.87 119.651 1090.51 120.824C1091.15 121.997 1091.47 123.437 1091.47 125.144V127.448H1080.21C1080.25 128.792 1080.65 129.848 1081.39 130.616C1082.16 131.384 1083.22 131.768 1084.56 131.768C1085.69 131.768 1086.72 131.661 1087.63 131.448C1088.55 131.213 1089.5 130.861 1090.48 130.392V134.072C1089.63 134.499 1088.72 134.808 1087.76 135C1086.82 135.213 1085.68 135.32 1084.34 135.32C1082.59 135.32 1081.04 135 1079.7 134.36C1078.35 133.699 1077.3 132.707 1076.53 131.384C1075.76 130.061 1075.38 128.397 1075.38 126.392C1075.38 124.344 1075.72 122.648 1076.4 121.304C1077.11 119.939 1078.08 118.915 1079.31 118.232C1080.55 117.549 1081.99 117.208 1083.63 117.208ZM1083.67 120.6C1082.75 120.6 1081.98 120.899 1081.36 121.496C1080.76 122.093 1080.41 123.021 1080.31 124.28H1086.99C1086.99 123.576 1086.87 122.947 1086.61 122.392C1086.37 121.837 1086.01 121.4 1085.52 121.08C1085.03 120.76 1084.41 120.6 1083.67 120.6ZM1106.07 117.208C1108.03 117.208 1109.62 117.976 1110.84 119.512C1112.05 121.027 1112.66 123.267 1112.66 126.232C1112.66 128.216 1112.37 129.891 1111.8 131.256C1111.22 132.6 1110.43 133.613 1109.43 134.296C1108.43 134.979 1107.26 135.32 1105.94 135.32C1105.11 135.32 1104.38 135.213 1103.76 135C1103.17 134.787 1102.65 134.509 1102.23 134.168C1101.8 133.827 1101.43 133.464 1101.11 133.08H1100.85C1100.94 133.485 1101 133.912 1101.04 134.36C1101.09 134.787 1101.11 135.213 1101.11 135.64V142.68H1096.34V117.528H1100.21L1100.88 119.8H1101.11C1101.43 119.331 1101.81 118.904 1102.26 118.52C1102.71 118.115 1103.24 117.795 1103.86 117.56C1104.5 117.325 1105.24 117.208 1106.07 117.208ZM1104.53 121.016C1103.7 121.016 1103.04 121.187 1102.55 121.528C1102.06 121.869 1101.69 122.392 1101.46 123.096C1101.25 123.779 1101.13 124.643 1101.11 125.688V126.2C1101.11 127.331 1101.21 128.291 1101.43 129.08C1101.64 129.848 1102 130.435 1102.52 130.84C1103.03 131.245 1103.72 131.448 1104.6 131.448C1105.32 131.448 1105.92 131.245 1106.39 130.84C1106.86 130.435 1107.21 129.837 1107.44 129.048C1107.68 128.259 1107.8 127.299 1107.8 126.168C1107.8 124.461 1107.53 123.181 1107 122.328C1106.48 121.453 1105.66 121.016 1104.53 121.016ZM1124.79 117.208C1126.41 117.208 1127.8 117.517 1128.95 118.136C1130.12 118.755 1131.03 119.651 1131.67 120.824C1132.31 121.997 1132.63 123.437 1132.63 125.144V127.448H1121.37C1121.41 128.792 1121.8 129.848 1122.55 130.616C1123.32 131.384 1124.37 131.768 1125.72 131.768C1126.85 131.768 1127.87 131.661 1128.79 131.448C1129.71 131.213 1130.66 130.861 1131.64 130.392V134.072C1130.78 134.499 1129.88 134.808 1128.92 135C1127.98 135.213 1126.84 135.32 1125.49 135.32C1123.74 135.32 1122.2 135 1120.85 134.36C1119.51 133.699 1118.45 132.707 1117.69 131.384C1116.92 130.061 1116.53 128.397 1116.53 126.392C1116.53 124.344 1116.88 122.648 1117.56 121.304C1118.26 119.939 1119.23 118.915 1120.47 118.232C1121.71 117.549 1123.15 117.208 1124.79 117.208ZM1124.82 120.6C1123.9 120.6 1123.14 120.899 1122.52 121.496C1121.92 122.093 1121.57 123.021 1121.46 124.28H1128.15C1128.15 123.576 1128.02 122.947 1127.77 122.392C1127.53 121.837 1127.17 121.4 1126.68 121.08C1126.19 120.76 1125.57 120.6 1124.82 120.6ZM1143.86 117.208C1145.12 117.208 1146.3 117.379 1147.38 117.72C1148.49 118.04 1149.38 118.541 1150.04 119.224C1150.72 119.907 1151.06 120.781 1151.06 121.848C1151.06 122.893 1150.74 123.725 1150.1 124.344C1149.49 124.963 1148.64 125.411 1147.58 125.688V125.848C1148.32 126.019 1148.99 126.264 1149.59 126.584C1150.19 126.883 1150.66 127.299 1151 127.832C1151.36 128.344 1151.54 129.037 1151.54 129.912C1151.54 130.872 1151.23 131.768 1150.62 132.6C1150.02 133.411 1149.08 134.072 1147.8 134.584C1146.54 135.075 1144.92 135.32 1142.94 135.32C1142 135.32 1141.11 135.277 1140.28 135.192C1139.45 135.107 1138.69 134.989 1138.01 134.84C1137.33 134.669 1136.73 134.467 1136.22 134.232V130.296C1136.94 130.637 1137.83 130.947 1138.87 131.224C1139.94 131.501 1141.07 131.64 1142.26 131.64C1143.14 131.64 1143.92 131.576 1144.6 131.448C1145.3 131.32 1145.86 131.107 1146.26 130.808C1146.69 130.509 1146.9 130.115 1146.9 129.624C1146.9 129.155 1146.72 128.771 1146.36 128.472C1146 128.152 1145.45 127.917 1144.73 127.768C1144 127.619 1143.07 127.544 1141.94 127.544H1140.09V124.248H1141.85C1143.43 124.248 1144.64 124.12 1145.5 123.864C1146.37 123.608 1146.81 123.128 1146.81 122.424C1146.81 121.869 1146.53 121.453 1145.98 121.176C1145.42 120.877 1144.51 120.728 1143.26 120.728C1142.42 120.728 1141.52 120.824 1140.54 121.016C1139.55 121.208 1138.63 121.485 1137.75 121.848L1136.34 118.52C1137.35 118.136 1138.45 117.827 1139.64 117.592C1140.83 117.336 1142.24 117.208 1143.86 117.208ZM1176.09 117.528V121.112H1168.8V135H1164.03V117.528H1176.09ZM1195.87 126.232C1195.87 127.683 1195.67 128.973 1195.26 130.104C1194.88 131.235 1194.31 132.195 1193.56 132.984C1192.84 133.752 1191.95 134.339 1190.91 134.744C1189.86 135.128 1188.68 135.32 1187.36 135.32C1186.14 135.32 1185.01 135.128 1183.96 134.744C1182.94 134.339 1182.05 133.752 1181.31 132.984C1180.56 132.195 1179.97 131.235 1179.55 130.104C1179.14 128.973 1178.94 127.683 1178.94 126.232C1178.94 124.291 1179.28 122.659 1179.96 121.336C1180.65 119.992 1181.63 118.968 1182.91 118.264C1184.19 117.56 1185.7 117.208 1187.45 117.208C1189.09 117.208 1190.55 117.56 1191.8 118.264C1193.06 118.968 1194.05 119.992 1194.78 121.336C1195.51 122.659 1195.87 124.291 1195.87 126.232ZM1183.8 126.232C1183.8 127.384 1183.92 128.355 1184.16 129.144C1184.41 129.912 1184.81 130.499 1185.34 130.904C1185.87 131.288 1186.57 131.48 1187.42 131.48C1188.27 131.48 1188.96 131.288 1189.47 130.904C1190 130.499 1190.39 129.912 1190.62 129.144C1190.88 128.355 1191 127.384 1191 126.232C1191 125.08 1190.88 124.12 1190.62 123.352C1190.39 122.584 1190 122.008 1189.47 121.624C1188.93 121.24 1188.24 121.048 1187.39 121.048C1186.13 121.048 1185.21 121.485 1184.64 122.36C1184.08 123.213 1183.8 124.504 1183.8 126.232ZM1207.91 135.32C1206.18 135.32 1204.71 135.011 1203.5 134.392C1202.28 133.752 1201.35 132.771 1200.71 131.448C1200.07 130.125 1199.75 128.429 1199.75 126.36C1199.75 124.227 1200.12 122.488 1200.84 121.144C1201.57 119.8 1202.57 118.808 1203.85 118.168C1205.15 117.528 1206.64 117.208 1208.33 117.208C1209.52 117.208 1210.56 117.325 1211.43 117.56C1212.33 117.795 1213.11 118.072 1213.77 118.392L1212.36 122.072C1211.61 121.773 1210.91 121.528 1210.25 121.336C1209.61 121.144 1208.97 121.048 1208.33 121.048C1207.5 121.048 1206.8 121.251 1206.25 121.656C1205.69 122.04 1205.28 122.627 1205 123.416C1204.74 124.184 1204.62 125.155 1204.62 126.328C1204.62 127.48 1204.76 128.44 1205.03 129.208C1205.33 129.955 1205.76 130.52 1206.31 130.904C1206.87 131.267 1207.54 131.448 1208.33 131.448C1209.33 131.448 1210.22 131.32 1210.98 131.064C1211.75 130.787 1212.5 130.413 1213.22 129.944V134.008C1212.5 134.477 1211.73 134.808 1210.92 135C1210.13 135.213 1209.13 135.32 1207.91 135.32ZM1215.75 117.528H1220.97L1224.26 127.352C1224.37 127.672 1224.45 127.992 1224.52 128.312C1224.6 128.632 1224.67 128.963 1224.71 129.304C1224.77 129.645 1224.82 130.008 1224.84 130.392H1224.93C1225 129.837 1225.08 129.315 1225.19 128.824C1225.32 128.312 1225.46 127.821 1225.61 127.352L1228.84 117.528H1233.96L1226.57 137.24C1226.12 138.435 1225.53 139.437 1224.81 140.248C1224.1 141.059 1223.28 141.667 1222.34 142.072C1221.4 142.477 1220.38 142.68 1219.27 142.68C1218.74 142.68 1218.27 142.648 1217.86 142.584C1217.48 142.541 1217.14 142.488 1216.84 142.424V138.648C1217.07 138.691 1217.35 138.733 1217.67 138.776C1218.01 138.819 1218.36 138.84 1218.73 138.84C1219.39 138.84 1219.95 138.701 1220.42 138.424C1220.91 138.147 1221.32 137.763 1221.64 137.272C1221.96 136.803 1222.21 136.291 1222.41 135.736L1222.69 134.872L1215.75 117.528ZM1244.57 135.32C1242.84 135.32 1241.37 135.011 1240.15 134.392C1238.94 133.752 1238.01 132.771 1237.37 131.448C1236.73 130.125 1236.41 128.429 1236.41 126.36C1236.41 124.227 1236.77 122.488 1237.5 121.144C1238.22 119.8 1239.22 118.808 1240.5 118.168C1241.81 117.528 1243.3 117.208 1244.98 117.208C1246.18 117.208 1247.21 117.325 1248.09 117.56C1248.98 117.795 1249.76 118.072 1250.42 118.392L1249.02 122.072C1248.27 121.773 1247.57 121.528 1246.9 121.336C1246.26 121.144 1245.62 121.048 1244.98 121.048C1244.15 121.048 1243.46 121.251 1242.9 121.656C1242.35 122.04 1241.93 122.627 1241.66 123.416C1241.4 124.184 1241.27 125.155 1241.27 126.328C1241.27 127.48 1241.41 128.44 1241.69 129.208C1241.99 129.955 1242.41 130.52 1242.97 130.904C1243.52 131.267 1244.2 131.448 1244.98 131.448C1245.99 131.448 1246.87 131.32 1247.64 131.064C1248.41 130.787 1249.16 130.413 1249.88 129.944V134.008C1249.16 134.477 1248.39 134.808 1247.58 135C1246.79 135.213 1245.78 135.32 1244.57 135.32ZM1270.55 135H1265.78V121.112H1261.4C1261.18 123.672 1260.92 125.859 1260.6 127.672C1260.3 129.464 1259.92 130.925 1259.45 132.056C1259 133.187 1258.42 134.019 1257.72 134.552C1257.01 135.064 1256.15 135.32 1255.13 135.32C1254.57 135.32 1254.07 135.277 1253.62 135.192C1253.17 135.107 1252.77 134.979 1252.41 134.808V131C1252.64 131.085 1252.89 131.16 1253.14 131.224C1253.4 131.288 1253.66 131.32 1253.94 131.32C1254.24 131.32 1254.52 131.203 1254.77 130.968C1255.05 130.733 1255.31 130.317 1255.54 129.72C1255.8 129.123 1256.03 128.301 1256.25 127.256C1256.46 126.211 1256.65 124.899 1256.82 123.32C1257.01 121.72 1257.18 119.789 1257.33 117.528H1270.55V135ZM1274.03 117.528H1279.25L1282.54 127.352C1282.65 127.672 1282.74 127.992 1282.8 128.312C1282.88 128.632 1282.95 128.963 1282.99 129.304C1283.06 129.645 1283.1 130.008 1283.12 130.392H1283.22C1283.28 129.837 1283.36 129.315 1283.47 128.824C1283.6 128.312 1283.74 127.821 1283.89 127.352L1287.12 117.528H1292.24L1284.85 137.24C1284.4 138.435 1283.81 139.437 1283.09 140.248C1282.38 141.059 1281.56 141.667 1280.62 142.072C1279.68 142.477 1278.66 142.68 1277.55 142.68C1277.02 142.68 1276.55 142.648 1276.14 142.584C1275.76 142.541 1275.42 142.488 1275.12 142.424V138.648C1275.35 138.691 1275.63 138.733 1275.95 138.776C1276.29 138.819 1276.64 138.84 1277.01 138.84C1277.67 138.84 1278.23 138.701 1278.7 138.424C1279.19 138.147 1279.6 137.763 1279.92 137.272C1280.24 136.803 1280.5 136.291 1280.69 135.736L1280.98 134.872L1274.03 117.528ZM1307.81 117.528V121.112H1300.51V135H1295.75V117.528H1307.81ZM1316.64 124.44C1316.64 124.803 1316.61 125.251 1316.57 125.784C1316.55 126.317 1316.52 126.861 1316.48 127.416C1316.45 127.971 1316.42 128.461 1316.38 128.888C1316.34 129.315 1316.3 129.613 1316.28 129.784L1324.35 117.528H1330.08V135H1325.47V128.024C1325.47 127.448 1325.49 126.819 1325.53 126.136C1325.57 125.432 1325.62 124.781 1325.66 124.184C1325.72 123.565 1325.77 123.096 1325.79 122.776L1317.76 135H1312.03V117.528H1316.64V124.44ZM1077.2 188.952C1075.15 186.947 1073.55 184.397 1072.4 181.304C1071.27 178.211 1070.71 174.872 1070.71 171.288C1070.71 167.619 1071.3 164.195 1072.5 161.016C1073.71 157.816 1075.44 155.181 1077.68 153.112H1080.72V153.4C1078.33 155.64 1076.53 158.339 1075.31 161.496C1074.12 164.632 1073.52 167.896 1073.52 171.288C1073.52 174.595 1074.09 177.752 1075.22 180.76C1076.37 183.768 1078.04 186.403 1080.24 188.664V188.952H1077.2ZM1084.61 172.696C1084.61 170.2 1084.85 168.077 1085.34 166.328C1085.85 164.557 1086.63 163.149 1087.68 162.104C1088.74 161.037 1090.11 160.323 1091.77 159.96C1093.16 159.661 1094.51 159.395 1095.84 159.16C1097.16 158.925 1098.4 158.712 1099.55 158.52L1100.03 160.984C1099.47 161.069 1098.86 161.176 1098.17 161.304C1097.49 161.411 1096.8 161.528 1096.09 161.656C1095.39 161.763 1094.71 161.88 1094.05 162.008C1093.41 162.115 1092.84 162.221 1092.35 162.328C1091.65 162.477 1091.02 162.733 1090.46 163.096C1089.91 163.437 1089.43 163.907 1089.02 164.504C1088.64 165.101 1088.33 165.837 1088.09 166.712C1087.86 167.587 1087.72 168.621 1087.68 169.816H1087.87C1088.17 169.411 1088.57 168.995 1089.09 168.568C1089.62 168.141 1090.25 167.779 1090.97 167.48C1091.72 167.181 1092.56 167.032 1093.5 167.032C1094.99 167.032 1096.23 167.363 1097.21 168.024C1098.22 168.664 1098.96 169.56 1099.45 170.712C1099.97 171.864 1100.22 173.208 1100.22 174.744C1100.22 176.643 1099.89 178.232 1099.23 179.512C1098.57 180.792 1097.65 181.752 1096.48 182.392C1095.3 183.011 1093.94 183.32 1092.38 183.32C1091.21 183.32 1090.14 183.096 1089.18 182.648C1088.22 182.179 1087.4 181.496 1086.72 180.6C1086.03 179.704 1085.51 178.595 1085.15 177.272C1084.79 175.949 1084.61 174.424 1084.61 172.696ZM1092.61 180.984C1093.54 180.984 1094.35 180.792 1095.04 180.408C1095.74 180.024 1096.29 179.395 1096.67 178.52C1097.05 177.645 1097.25 176.483 1097.25 175.032C1097.25 173.283 1096.91 171.907 1096.25 170.904C1095.61 169.88 1094.55 169.368 1093.05 169.368C1092.11 169.368 1091.26 169.581 1090.49 170.008C1089.73 170.413 1089.09 170.883 1088.57 171.416C1088.06 171.949 1087.7 172.397 1087.49 172.76C1087.49 173.805 1087.56 174.819 1087.71 175.8C1087.86 176.781 1088.11 177.667 1088.48 178.456C1088.86 179.224 1089.38 179.843 1090.05 180.312C1090.73 180.76 1091.58 180.984 1092.61 180.984ZM1112.28 165.528C1113.75 165.528 1115.01 165.848 1116.06 166.488C1117.12 167.128 1117.93 168.035 1118.49 169.208C1119.07 170.36 1119.35 171.715 1119.35 173.272V174.968H1107.61C1107.65 176.909 1108.14 178.392 1109.08 179.416C1110.04 180.419 1111.37 180.92 1113.08 180.92C1114.17 180.92 1115.13 180.824 1115.96 180.632C1116.81 180.419 1117.69 180.12 1118.59 179.736V182.2C1117.71 182.584 1116.85 182.861 1115.99 183.032C1115.14 183.224 1114.13 183.32 1112.95 183.32C1111.33 183.32 1109.89 182.989 1108.63 182.328C1107.4 181.667 1106.43 180.685 1105.72 179.384C1105.04 178.061 1104.7 176.451 1104.7 174.552C1104.7 172.675 1105.01 171.064 1105.63 169.72C1106.27 168.376 1107.15 167.341 1108.28 166.616C1109.43 165.891 1110.77 165.528 1112.28 165.528ZM1112.25 167.832C1110.91 167.832 1109.84 168.269 1109.05 169.144C1108.28 169.997 1107.82 171.192 1107.67 172.728H1116.41C1116.41 171.747 1116.26 170.893 1115.96 170.168C1115.66 169.443 1115.2 168.877 1114.59 168.472C1113.99 168.045 1113.21 167.832 1112.25 167.832ZM1129.23 165.528C1130.53 165.528 1131.66 165.709 1132.62 166.072C1133.58 166.413 1134.33 166.925 1134.86 167.608C1135.4 168.269 1135.66 169.08 1135.66 170.04C1135.66 171.085 1135.38 171.917 1134.8 172.536C1134.22 173.133 1133.43 173.571 1132.43 173.848V173.976C1133.11 174.168 1133.74 174.435 1134.32 174.776C1134.9 175.117 1135.35 175.565 1135.7 176.12C1136.06 176.675 1136.24 177.389 1136.24 178.264C1136.24 179.203 1135.97 180.056 1135.44 180.824C1134.93 181.592 1134.13 182.2 1133.04 182.648C1131.97 183.096 1130.6 183.32 1128.91 183.32C1128.1 183.32 1127.32 183.277 1126.58 183.192C1125.85 183.107 1125.19 182.979 1124.59 182.808C1124.02 182.637 1123.5 182.435 1123.06 182.2V179.672C1123.78 180.013 1124.63 180.323 1125.62 180.6C1126.62 180.877 1127.71 181.016 1128.88 181.016C1129.73 181.016 1130.5 180.92 1131.18 180.728C1131.89 180.536 1132.44 180.237 1132.85 179.832C1133.25 179.405 1133.46 178.829 1133.46 178.104C1133.46 177.443 1133.27 176.909 1132.91 176.504C1132.55 176.077 1132.01 175.757 1131.28 175.544C1130.58 175.331 1129.67 175.224 1128.56 175.224H1126.26V172.92H1128.11C1129.58 172.92 1130.76 172.728 1131.63 172.344C1132.53 171.939 1132.98 171.256 1132.98 170.296C1132.98 169.485 1132.63 168.877 1131.95 168.472C1131.29 168.067 1130.33 167.864 1129.07 167.864C1128.13 167.864 1127.3 167.96 1126.58 168.152C1125.87 168.323 1125.09 168.589 1124.24 168.952L1123.25 166.712C1124.17 166.307 1125.13 166.008 1126.13 165.816C1127.13 165.624 1128.17 165.528 1129.23 165.528ZM1161.08 165.848H1164.15L1156.83 174.104L1164.76 183H1161.5L1153.75 174.296V183H1150.94V165.848H1153.75V174.168L1161.08 165.848ZM1183.16 174.392C1183.16 175.821 1182.97 177.091 1182.59 178.2C1182.22 179.288 1181.69 180.216 1180.99 180.984C1180.3 181.752 1179.46 182.339 1178.46 182.744C1177.48 183.128 1176.38 183.32 1175.16 183.32C1174.03 183.32 1172.99 183.128 1172.03 182.744C1171.07 182.339 1170.24 181.752 1169.53 180.984C1168.83 180.216 1168.27 179.288 1167.87 178.2C1167.48 177.091 1167.29 175.821 1167.29 174.392C1167.29 172.493 1167.61 170.893 1168.25 169.592C1168.89 168.269 1169.81 167.267 1171 166.584C1172.2 165.88 1173.62 165.528 1175.26 165.528C1176.82 165.528 1178.18 165.88 1179.36 166.584C1180.55 167.267 1181.48 168.269 1182.14 169.592C1182.82 170.893 1183.16 172.493 1183.16 174.392ZM1170.2 174.392C1170.2 175.736 1170.37 176.909 1170.72 177.912C1171.08 178.893 1171.63 179.651 1172.38 180.184C1173.13 180.717 1174.08 180.984 1175.23 180.984C1176.38 180.984 1177.33 180.717 1178.08 180.184C1178.82 179.651 1179.37 178.893 1179.71 177.912C1180.07 176.909 1180.25 175.736 1180.25 174.392C1180.25 173.027 1180.07 171.864 1179.71 170.904C1179.34 169.944 1178.79 169.208 1178.04 168.696C1177.32 168.163 1176.37 167.896 1175.2 167.896C1173.45 167.896 1172.18 168.472 1171.39 169.624C1170.6 170.776 1170.2 172.365 1170.2 174.392ZM1207.03 165.848V183H1204.5V172.056C1204.5 171.608 1204.51 171.139 1204.53 170.648C1204.57 170.157 1204.62 169.677 1204.66 169.208H1204.56L1198.96 183H1196.59L1191.15 169.208H1191.06C1191.1 169.677 1191.12 170.157 1191.12 170.648C1191.14 171.139 1191.15 171.64 1191.15 172.152V183H1188.63V165.848H1192.37L1197.78 179.64L1203.28 165.848H1207.03ZM1216.16 176.312C1216.16 176.504 1216.15 176.781 1216.13 177.144C1216.13 177.485 1216.11 177.859 1216.09 178.264C1216.07 178.648 1216.05 179.021 1216.03 179.384C1216.01 179.725 1215.99 180.003 1215.97 180.216L1225.15 165.848H1228.61V183H1225.98V172.888C1225.98 172.547 1225.98 172.099 1225.98 171.544C1226 170.989 1226.02 170.445 1226.05 169.912C1226.07 169.357 1226.09 168.941 1226.11 168.664L1216.99 183H1213.5V165.848H1216.16V176.312ZM1241.94 183.32C1240.43 183.32 1239.07 183.011 1237.88 182.392C1236.71 181.773 1235.78 180.813 1235.1 179.512C1234.43 178.211 1234.1 176.547 1234.1 174.52C1234.1 172.408 1234.46 170.691 1235.16 169.368C1235.86 168.045 1236.81 167.075 1238.01 166.456C1239.22 165.837 1240.6 165.528 1242.14 165.528C1243.01 165.528 1243.85 165.624 1244.66 165.816C1245.47 165.987 1246.14 166.2 1246.65 166.456L1245.78 168.792C1245.27 168.6 1244.67 168.419 1243.99 168.248C1243.31 168.077 1242.67 167.992 1242.07 167.992C1240.92 167.992 1239.97 168.237 1239.22 168.728C1238.48 169.219 1237.92 169.944 1237.56 170.904C1237.2 171.864 1237.02 173.059 1237.02 174.488C1237.02 175.853 1237.2 177.016 1237.56 177.976C1237.92 178.936 1238.47 179.661 1239.19 180.152C1239.92 180.643 1240.82 180.888 1241.91 180.888C1242.85 180.888 1243.67 180.792 1244.38 180.6C1245.1 180.408 1245.76 180.173 1246.36 179.896V182.392C1245.78 182.691 1245.14 182.915 1244.44 183.064C1243.76 183.235 1242.93 183.32 1241.94 183.32ZM1258.32 183.32C1256.8 183.32 1255.45 183.011 1254.25 182.392C1253.08 181.773 1252.15 180.813 1251.47 179.512C1250.81 178.211 1250.48 176.547 1250.48 174.52C1250.48 172.408 1250.83 170.691 1251.53 169.368C1252.24 168.045 1253.19 167.075 1254.38 166.456C1255.6 165.837 1256.97 165.528 1258.51 165.528C1259.39 165.528 1260.23 165.624 1261.04 165.816C1261.85 165.987 1262.51 166.2 1263.02 166.456L1262.16 168.792C1261.65 168.6 1261.05 168.419 1260.37 168.248C1259.68 168.077 1259.04 167.992 1258.45 167.992C1257.29 167.992 1256.35 168.237 1255.6 168.728C1254.85 169.219 1254.3 169.944 1253.93 170.904C1253.57 171.864 1253.39 173.059 1253.39 174.488C1253.39 175.853 1253.57 177.016 1253.93 177.976C1254.3 178.936 1254.84 179.661 1255.57 180.152C1256.29 180.643 1257.2 180.888 1258.29 180.888C1259.23 180.888 1260.05 180.792 1260.75 180.6C1261.48 180.408 1262.14 180.173 1262.73 179.896V182.392C1262.16 182.691 1261.52 182.915 1260.81 183.064C1260.13 183.235 1259.3 183.32 1258.32 183.32ZM1270.47 176.312C1270.47 176.504 1270.46 176.781 1270.44 177.144C1270.44 177.485 1270.43 177.859 1270.41 178.264C1270.38 178.648 1270.36 179.021 1270.34 179.384C1270.32 179.725 1270.3 180.003 1270.28 180.216L1279.46 165.848H1282.92V183H1280.29V172.888C1280.29 172.547 1280.29 172.099 1280.29 171.544C1280.32 170.989 1280.34 170.445 1280.36 169.912C1280.38 169.357 1280.4 168.941 1280.42 168.664L1271.3 183H1267.81V165.848H1270.47V176.312ZM1292.03 176.312C1292.03 176.504 1292.02 176.781 1292 177.144C1292 177.485 1291.99 177.859 1291.97 178.264C1291.95 178.648 1291.93 179.021 1291.9 179.384C1291.88 179.725 1291.86 180.003 1291.84 180.216L1301.02 165.848H1304.48V183H1301.86V172.888C1301.86 172.547 1301.86 172.099 1301.86 171.544C1301.88 170.989 1301.9 170.445 1301.92 169.912C1301.94 169.357 1301.96 168.941 1301.98 168.664L1292.86 183H1289.38V165.848H1292.03V176.312ZM1309.75 188.952V188.664C1311.95 186.403 1313.62 183.768 1314.75 180.76C1315.9 177.752 1316.47 174.595 1316.47 171.288C1316.47 167.896 1315.87 164.632 1314.65 161.496C1313.46 158.339 1311.66 155.64 1309.27 153.4V153.112H1312.31C1314.55 155.181 1316.27 157.816 1317.47 161.016C1318.68 164.195 1319.29 167.619 1319.29 171.288C1319.29 174.872 1318.71 178.211 1317.56 181.304C1316.43 184.397 1314.84 186.947 1312.79 188.952H1309.75Z" fill="#14142B"/>
<rect x="967.5" y="2.5" width="455" height="290" rx="41.5" stroke="#2394BC" stroke-width="5"/>
</g>
<g filter="url(#filter2_d_78_641)">
<rect x="484" width="459" height="295" rx="44" fill="white"/>
<path d="M606.947 63H602.115V54.168C600.771 54.6373 599.534 54.9893 598.403 55.224C597.294 55.4587 596.174 55.576 595.043 55.576C592.91 55.576 591.235 55.064 590.019 54.04C588.825 52.9947 588.227 51.512 588.227 49.592V40.152H593.059V48.216C593.059 49.3253 593.315 50.1573 593.827 50.712C594.339 51.2667 595.203 51.544 596.419 51.544C597.315 51.544 598.211 51.448 599.107 51.256C600.003 51.064 601.006 50.776 602.115 50.392V40.152H606.947V63ZM620.509 45.208C622.13 45.208 623.517 45.5173 624.669 46.136C625.842 46.7547 626.749 47.6507 627.389 48.824C628.029 49.9973 628.349 51.4373 628.349 53.144V55.448H617.085C617.127 56.792 617.522 57.848 618.269 58.616C619.037 59.384 620.093 59.768 621.437 59.768C622.567 59.768 623.591 59.6613 624.509 59.448C625.426 59.2133 626.375 58.8613 627.357 58.392V62.072C626.503 62.4987 625.597 62.808 624.637 63C623.698 63.2133 622.557 63.32 621.213 63.32C619.463 63.32 617.917 63 616.573 62.36C615.229 61.6987 614.173 60.7067 613.405 59.384C612.637 58.0613 612.253 56.3973 612.253 54.392C612.253 52.344 612.594 50.648 613.277 49.304C613.981 47.9387 614.951 46.9147 616.189 46.232C617.426 45.5493 618.866 45.208 620.509 45.208ZM620.541 48.6C619.623 48.6 618.855 48.8987 618.237 49.496C617.639 50.0933 617.287 51.0213 617.181 52.28H623.869C623.869 51.576 623.741 50.9467 623.485 50.392C623.25 49.8373 622.887 49.4 622.397 49.08C621.906 48.76 621.287 48.6 620.541 48.6ZM642.943 45.208C644.905 45.208 646.495 45.976 647.711 47.512C648.927 49.0267 649.535 51.2667 649.535 54.232C649.535 56.216 649.247 57.8907 648.671 59.256C648.095 60.6 647.305 61.6133 646.303 62.296C645.3 62.9787 644.137 63.32 642.815 63.32C641.983 63.32 641.257 63.2133 640.639 63C640.041 62.7867 639.529 62.5093 639.103 62.168C638.676 61.8267 638.303 61.464 637.983 61.08H637.727C637.812 61.4853 637.876 61.912 637.919 62.36C637.961 62.7867 637.983 63.2133 637.983 63.64V70.68H633.215V45.528H637.087L637.759 47.8H637.983C638.303 47.3307 638.687 46.904 639.135 46.52C639.583 46.1147 640.116 45.7947 640.735 45.56C641.375 45.3253 642.111 45.208 642.943 45.208ZM641.407 49.016C640.575 49.016 639.913 49.1867 639.423 49.528C638.932 49.8693 638.569 50.392 638.335 51.096C638.121 51.7787 638.004 52.6427 637.983 53.688V54.2C637.983 55.3307 638.089 56.2907 638.303 57.08C638.516 57.848 638.879 58.4347 639.391 58.84C639.903 59.2453 640.596 59.448 641.471 59.448C642.196 59.448 642.793 59.2453 643.263 58.84C643.732 58.4347 644.084 57.8373 644.319 57.048C644.553 56.2587 644.671 55.2987 644.671 54.168C644.671 52.4613 644.404 51.1813 643.871 50.328C643.359 49.4533 642.537 49.016 641.407 49.016ZM661.665 45.208C663.286 45.208 664.673 45.5173 665.825 46.136C666.998 46.7547 667.905 47.6507 668.545 48.824C669.185 49.9973 669.505 51.4373 669.505 53.144V55.448H658.241C658.283 56.792 658.678 57.848 659.425 58.616C660.193 59.384 661.249 59.768 662.593 59.768C663.723 59.768 664.747 59.6613 665.665 59.448C666.582 59.2133 667.531 58.8613 668.513 58.392V62.072C667.659 62.4987 666.753 62.808 665.793 63C664.854 63.2133 663.713 63.32 662.369 63.32C660.619 63.32 659.073 63 657.729 62.36C656.385 61.6987 655.329 60.7067 654.561 59.384C653.793 58.0613 653.409 56.3973 653.409 54.392C653.409 52.344 653.75 50.648 654.433 49.304C655.137 47.9387 656.107 46.9147 657.345 46.232C658.582 45.5493 660.022 45.208 661.665 45.208ZM661.697 48.6C660.779 48.6 660.011 48.8987 659.393 49.496C658.795 50.0933 658.443 51.0213 658.337 52.28H665.025C665.025 51.576 664.897 50.9467 664.641 50.392C664.406 49.8373 664.043 49.4 663.553 49.08C663.062 48.76 662.443 48.6 661.697 48.6ZM680.739 45.208C681.998 45.208 683.171 45.3787 684.259 45.72C685.368 46.04 686.254 46.5413 686.915 47.224C687.598 47.9067 687.939 48.7813 687.939 49.848C687.939 50.8933 687.619 51.7253 686.979 52.344C686.36 52.9627 685.518 53.4107 684.451 53.688V53.848C685.198 54.0187 685.87 54.264 686.467 54.584C687.064 54.8827 687.534 55.2987 687.875 55.832C688.238 56.344 688.419 57.0373 688.419 57.912C688.419 58.872 688.11 59.768 687.491 60.6C686.894 61.4107 685.955 62.072 684.675 62.584C683.416 63.0747 681.795 63.32 679.811 63.32C678.872 63.32 677.987 63.2773 677.155 63.192C676.323 63.1067 675.566 62.9893 674.883 62.84C674.2 62.6693 673.603 62.4667 673.091 62.232V58.296C673.816 58.6373 674.702 58.9467 675.747 59.224C676.814 59.5013 677.944 59.64 679.139 59.64C680.014 59.64 680.792 59.576 681.475 59.448C682.179 59.32 682.734 59.1067 683.139 58.808C683.566 58.5093 683.779 58.1147 683.779 57.624C683.779 57.1547 683.598 56.7707 683.235 56.472C682.872 56.152 682.328 55.9173 681.603 55.768C680.878 55.6187 679.95 55.544 678.819 55.544H676.963V52.248H678.723C680.302 52.248 681.518 52.12 682.371 51.864C683.246 51.608 683.683 51.128 683.683 50.424C683.683 49.8693 683.406 49.4533 682.851 49.176C682.296 48.8773 681.39 48.728 680.131 48.728C679.299 48.728 678.392 48.824 677.411 49.016C676.43 49.208 675.502 49.4853 674.627 49.848L673.219 46.52C674.222 46.136 675.32 45.8267 676.515 45.592C677.71 45.336 679.118 45.208 680.739 45.208ZM716.55 63H711.782V49.112H707.398C707.185 51.672 706.918 53.8587 706.598 55.672C706.3 57.464 705.916 58.9253 705.446 60.056C704.998 61.1867 704.422 62.0187 703.718 62.552C703.014 63.064 702.15 63.32 701.126 63.32C700.572 63.32 700.07 63.2773 699.622 63.192C699.174 63.1067 698.769 62.9787 698.406 62.808V59C698.641 59.0853 698.886 59.16 699.142 59.224C699.398 59.288 699.665 59.32 699.942 59.32C700.241 59.32 700.518 59.2027 700.774 58.968C701.052 58.7333 701.308 58.3173 701.542 57.72C701.798 57.1227 702.033 56.3013 702.246 55.256C702.46 54.2107 702.652 52.8987 702.822 51.32C703.014 49.72 703.185 47.7893 703.334 45.528H716.55V63ZM727.135 52.44C727.135 52.8027 727.114 53.2507 727.071 53.784C727.05 54.3173 727.018 54.8613 726.975 55.416C726.954 55.9707 726.922 56.4613 726.879 56.888C726.837 57.3147 726.805 57.6133 726.783 57.784L734.847 45.528H740.575V63H735.967V56.024C735.967 55.448 735.989 54.8187 736.031 54.136C736.074 53.432 736.117 52.7813 736.159 52.184C736.223 51.5653 736.266 51.096 736.287 50.776L728.255 63H722.527V45.528H727.135V52.44ZM750.751 51.928C750.751 52.6747 750.932 53.24 751.295 53.624C751.679 54.008 752.201 54.2 752.863 54.2C753.78 54.2 754.633 54.104 755.423 53.912C756.212 53.6987 757.001 53.4213 757.791 53.08V45.528H762.559V63H757.791V56.056C757.044 56.4613 756.191 56.8347 755.231 57.176C754.271 57.496 753.183 57.656 751.967 57.656C750.153 57.656 748.703 57.1867 747.615 56.248C746.527 55.3093 745.983 53.9013 745.983 52.024V45.528H750.751V51.928ZM773.327 45.528V52.248H779.983V45.528H784.751V63H779.983V55.8H773.327V63H768.559V45.528H773.327ZM790.746 63V45.528H795.514V52.28H797.818C799.61 52.28 801.082 52.472 802.234 52.856C803.386 53.2187 804.239 53.784 804.794 54.552C805.37 55.32 805.658 56.28 805.658 57.432C805.658 58.5627 805.391 59.544 804.858 60.376C804.346 61.208 803.525 61.8587 802.394 62.328C801.285 62.776 799.813 63 797.978 63H790.746ZM797.722 59.704C798.661 59.704 799.418 59.5333 799.994 59.192C800.591 58.8507 800.89 58.2853 800.89 57.496C800.89 56.8133 800.613 56.3227 800.058 56.024C799.525 55.7253 798.725 55.576 797.658 55.576H795.514V59.704H797.722ZM808.186 63V45.528H812.954V63H808.186ZM835.67 38.008C835.563 39.1173 835.254 40.0987 834.742 40.952C834.23 41.784 833.43 42.4347 832.342 42.904C831.254 43.3733 829.792 43.608 827.958 43.608C826.08 43.608 824.608 43.384 823.542 42.936C822.496 42.4667 821.75 41.816 821.302 40.984C820.854 40.152 820.587 39.16 820.502 38.008H824.758C824.864 39.1813 825.163 39.96 825.654 40.344C826.144 40.728 826.944 40.92 828.054 40.92C828.971 40.92 829.718 40.7173 830.294 40.312C830.891 39.8853 831.243 39.1173 831.35 38.008H835.67ZM823.542 52.44C823.542 52.8027 823.52 53.2507 823.478 53.784C823.456 54.3173 823.424 54.8613 823.382 55.416C823.36 55.9707 823.328 56.4613 823.286 56.888C823.243 57.3147 823.211 57.6133 823.19 57.784L831.254 45.528H836.982V63H832.374V56.024C832.374 55.448 832.395 54.8187 832.438 54.136C832.48 53.432 832.523 52.7813 832.566 52.184C832.63 51.5653 832.672 51.096 832.694 50.776L824.661 63H818.934V45.528H823.542V52.44ZM574.968 93.528H580.216L573.304 101.912L580.824 111H575.416L568.28 102.136V111H563.512V93.528H568.28V102.008L574.968 93.528ZM591.492 93.176C593.839 93.176 595.631 93.688 596.868 94.712C598.127 95.7147 598.756 97.2613 598.756 99.352V111H595.428L594.5 108.632H594.372C593.881 109.251 593.369 109.763 592.836 110.168C592.324 110.573 591.727 110.861 591.044 111.032C590.383 111.224 589.561 111.32 588.58 111.32C587.556 111.32 586.628 111.128 585.796 110.744C584.985 110.339 584.345 109.731 583.876 108.92C583.407 108.088 583.172 107.043 583.172 105.784C583.172 103.928 583.823 102.563 585.124 101.688C586.425 100.792 588.377 100.301 590.98 100.216L594.02 100.12V99.352C594.02 98.4347 593.775 97.7627 593.284 97.336C592.815 96.9093 592.153 96.696 591.3 96.696C590.447 96.696 589.615 96.824 588.804 97.08C587.993 97.3147 587.183 97.6133 586.372 97.976L584.804 94.744C585.743 94.2533 586.777 93.8693 587.908 93.592C589.06 93.3147 590.255 93.176 591.492 93.176ZM592.164 102.968C590.628 103.011 589.561 103.288 588.964 103.8C588.367 104.312 588.068 104.984 588.068 105.816C588.068 106.541 588.281 107.064 588.708 107.384C589.135 107.683 589.689 107.832 590.372 107.832C591.396 107.832 592.26 107.533 592.964 106.936C593.668 106.317 594.02 105.453 594.02 104.344V102.904L592.164 102.968ZM603.581 100.536C603.581 97.9547 603.901 95.768 604.541 93.976C605.181 92.1627 606.194 90.7227 607.581 89.656C608.967 88.568 610.781 87.832 613.021 87.448C614.151 87.256 615.293 87.096 616.445 86.968C617.618 86.8187 618.823 86.6693 620.061 86.52L620.605 90.68C620.071 90.744 619.485 90.8187 618.845 90.904C618.205 90.968 617.554 91.0427 616.893 91.128C616.253 91.192 615.634 91.2667 615.037 91.352C614.439 91.4373 613.895 91.512 613.405 91.576C612.615 91.704 611.922 91.8853 611.325 92.12C610.727 92.3333 610.226 92.6427 609.821 93.048C609.415 93.4533 609.095 94.008 608.861 94.712C608.647 95.3947 608.509 96.28 608.445 97.368H608.669C608.925 96.9627 609.277 96.5573 609.725 96.152C610.194 95.7467 610.77 95.4053 611.453 95.128C612.135 94.8507 612.914 94.712 613.789 94.712C615.175 94.712 616.381 95 617.405 95.576C618.429 96.152 619.218 97.0053 619.773 98.136C620.327 99.2667 620.605 100.675 620.605 102.36C620.605 104.344 620.242 105.997 619.517 107.32C618.791 108.643 617.789 109.645 616.509 110.328C615.229 110.989 613.746 111.32 612.061 111.32C610.781 111.32 609.618 111.085 608.573 110.616C607.527 110.147 606.631 109.453 605.885 108.536C605.138 107.619 604.562 106.488 604.157 105.144C603.773 103.8 603.581 102.264 603.581 100.536ZM612.349 107.448C613.031 107.448 613.618 107.299 614.109 107C614.621 106.701 615.015 106.211 615.293 105.528C615.591 104.845 615.741 103.928 615.741 102.776C615.741 101.389 615.506 100.291 615.037 99.48C614.589 98.648 613.799 98.232 612.669 98.232C611.986 98.232 611.346 98.4027 610.749 98.744C610.173 99.064 609.682 99.4373 609.277 99.864C608.871 100.269 608.594 100.621 608.445 100.92C608.445 101.752 608.509 102.563 608.637 103.352C608.765 104.12 608.978 104.813 609.277 105.432C609.575 106.051 609.97 106.541 610.461 106.904C610.973 107.267 611.602 107.448 612.349 107.448ZM630.151 100.44C630.151 100.803 630.13 101.251 630.087 101.784C630.066 102.317 630.034 102.861 629.991 103.416C629.97 103.971 629.938 104.461 629.895 104.888C629.852 105.315 629.82 105.613 629.799 105.784L637.863 93.528H643.591V111H638.983V104.024C638.983 103.448 639.004 102.819 639.047 102.136C639.09 101.432 639.132 100.781 639.175 100.184C639.239 99.5653 639.282 99.096 639.303 98.776L631.271 111H625.543V93.528H630.151V100.44ZM654.342 93.528V100.248H660.998V93.528H665.766V111H660.998V103.8H654.342V111H649.574V93.528H654.342ZM678.962 93.208C680.583 93.208 681.97 93.5173 683.122 94.136C684.295 94.7547 685.202 95.6507 685.842 96.824C686.482 97.9973 686.802 99.4373 686.802 101.144V103.448H675.538C675.58 104.792 675.975 105.848 676.722 106.616C677.49 107.384 678.546 107.768 679.89 107.768C681.02 107.768 682.044 107.661 682.962 107.448C683.879 107.213 684.828 106.861 685.81 106.392V110.072C684.956 110.499 684.05 110.808 683.09 111C682.151 111.213 681.01 111.32 679.666 111.32C677.916 111.32 676.37 111 675.026 110.36C673.682 109.699 672.626 108.707 671.858 107.384C671.09 106.061 670.706 104.397 670.706 102.392C670.706 100.344 671.047 98.648 671.73 97.304C672.434 95.9387 673.404 94.9147 674.642 94.232C675.879 93.5493 677.319 93.208 678.962 93.208ZM678.994 96.6C678.076 96.6 677.308 96.8987 676.69 97.496C676.092 98.0933 675.74 99.0213 675.634 100.28H682.322C682.322 99.576 682.194 98.9467 681.938 98.392C681.703 97.8373 681.34 97.4 680.85 97.08C680.359 96.76 679.74 96.6 678.994 96.6ZM706.132 97.112H700.404V111H695.636V97.112H689.908V93.528H706.132V97.112ZM722.905 93.528V100.248H729.561V93.528H734.329V111H729.561V103.8H722.905V111H718.137V93.528H722.905ZM747.492 93.176C749.839 93.176 751.631 93.688 752.868 94.712C754.127 95.7147 754.756 97.2613 754.756 99.352V111H751.428L750.5 108.632H750.372C749.881 109.251 749.369 109.763 748.836 110.168C748.324 110.573 747.727 110.861 747.044 111.032C746.383 111.224 745.561 111.32 744.58 111.32C743.556 111.32 742.628 111.128 741.796 110.744C740.985 110.339 740.345 109.731 739.876 108.92C739.407 108.088 739.172 107.043 739.172 105.784C739.172 103.928 739.823 102.563 741.124 101.688C742.425 100.792 744.377 100.301 746.98 100.216L750.02 100.12V99.352C750.02 98.4347 749.775 97.7627 749.284 97.336C748.815 96.9093 748.153 96.696 747.3 96.696C746.447 96.696 745.615 96.824 744.804 97.08C743.993 97.3147 743.183 97.6133 742.372 97.976L740.804 94.744C741.743 94.2533 742.777 93.8693 743.908 93.592C745.06 93.3147 746.255 93.176 747.492 93.176ZM748.164 102.968C746.628 103.011 745.561 103.288 744.964 103.8C744.367 104.312 744.068 104.984 744.068 105.816C744.068 106.541 744.281 107.064 744.708 107.384C745.135 107.683 745.689 107.832 746.372 107.832C747.396 107.832 748.26 107.533 748.964 106.936C749.668 106.317 750.02 105.453 750.02 104.344V102.904L748.164 102.968ZM775.522 111.32C773.794 111.32 772.322 111.011 771.106 110.392C769.89 109.752 768.962 108.771 768.322 107.448C767.682 106.125 767.362 104.429 767.362 102.36C767.362 100.227 767.725 98.488 768.45 97.144C769.175 95.8 770.178 94.808 771.458 94.168C772.759 93.528 774.253 93.208 775.938 93.208C777.133 93.208 778.167 93.3253 779.042 93.56C779.938 93.7947 780.717 94.072 781.378 94.392L779.97 98.072C779.223 97.7733 778.519 97.528 777.858 97.336C777.218 97.144 776.578 97.048 775.938 97.048C775.106 97.048 774.413 97.2507 773.858 97.656C773.303 98.04 772.887 98.6267 772.61 99.416C772.354 100.184 772.226 101.155 772.226 102.328C772.226 103.48 772.365 104.44 772.642 105.208C772.941 105.955 773.367 106.52 773.922 106.904C774.477 107.267 775.149 107.448 775.938 107.448C776.941 107.448 777.826 107.32 778.594 107.064C779.362 106.787 780.109 106.413 780.834 105.944V110.008C780.109 110.477 779.341 110.808 778.53 111C777.741 111.213 776.738 111.32 775.522 111.32ZM793.023 93.176C795.37 93.176 797.162 93.688 798.399 94.712C799.658 95.7147 800.287 97.2613 800.287 99.352V111H796.959L796.031 108.632H795.903C795.413 109.251 794.901 109.763 794.367 110.168C793.855 110.573 793.258 110.861 792.575 111.032C791.914 111.224 791.093 111.32 790.111 111.32C789.087 111.32 788.159 111.128 787.327 110.744C786.517 110.339 785.877 109.731 785.407 108.92C784.938 108.088 784.703 107.043 784.703 105.784C784.703 103.928 785.354 102.563 786.655 101.688C787.957 100.792 789.909 100.301 792.511 100.216L795.551 100.12V99.352C795.551 98.4347 795.306 97.7627 794.815 97.336C794.346 96.9093 793.685 96.696 792.831 96.696C791.978 96.696 791.146 96.824 790.335 97.08C789.525 97.3147 788.714 97.6133 787.903 97.976L786.335 94.744C787.274 94.2533 788.309 93.8693 789.439 93.592C790.591 93.3147 791.786 93.176 793.023 93.176ZM793.695 102.968C792.159 103.011 791.093 103.288 790.495 103.8C789.898 104.312 789.599 104.984 789.599 105.816C789.599 106.541 789.813 107.064 790.239 107.384C790.666 107.683 791.221 107.832 791.903 107.832C792.927 107.832 793.791 107.533 794.495 106.936C795.199 106.317 795.551 105.453 795.551 104.344V102.904L793.695 102.968ZM822.904 86.008C822.797 87.1173 822.488 88.0987 821.976 88.952C821.464 89.784 820.664 90.4347 819.576 90.904C818.488 91.3733 817.027 91.608 815.192 91.608C813.315 91.608 811.843 91.384 810.776 90.936C809.731 90.4667 808.984 89.816 808.536 88.984C808.088 88.152 807.821 87.16 807.736 86.008H811.992C812.099 87.1813 812.397 87.96 812.888 88.344C813.379 88.728 814.179 88.92 815.288 88.92C816.205 88.92 816.952 88.7173 817.528 88.312C818.125 87.8853 818.477 87.1173 818.584 86.008H822.904ZM810.776 100.44C810.776 100.803 810.755 101.251 810.712 101.784C810.691 102.317 810.659 102.861 810.616 103.416C810.595 103.971 810.563 104.461 810.52 104.888C810.477 105.315 810.445 105.613 810.424 105.784L818.488 93.528H824.216V111H819.608V104.024C819.608 103.448 819.629 102.819 819.672 102.136C819.715 101.432 819.757 100.781 819.8 100.184C819.864 99.5653 819.907 99.096 819.928 98.776L811.896 111H806.168V93.528H810.776V100.44ZM844.663 97.112H838.935V111H834.167V97.112H828.439V93.528H844.663V97.112ZM855.774 93.208C857.395 93.208 858.782 93.5173 859.934 94.136C861.107 94.7547 862.014 95.6507 862.654 96.824C863.294 97.9973 863.614 99.4373 863.614 101.144V103.448H852.35C852.393 104.792 852.787 105.848 853.534 106.616C854.302 107.384 855.358 107.768 856.702 107.768C857.833 107.768 858.857 107.661 859.774 107.448C860.691 107.213 861.641 106.861 862.622 106.392V110.072C861.769 110.499 860.862 110.808 859.902 111C858.963 111.213 857.822 111.32 856.478 111.32C854.729 111.32 853.182 111 851.838 110.36C850.494 109.699 849.438 108.707 848.67 107.384C847.902 106.061 847.518 104.397 847.518 102.392C847.518 100.344 847.859 98.648 848.542 97.304C849.246 95.9387 850.217 94.9147 851.454 94.232C852.691 93.5493 854.131 93.208 855.774 93.208ZM855.806 96.6C854.889 96.6 854.121 96.8987 853.502 97.496C852.905 98.0933 852.553 99.0213 852.446 100.28H859.134C859.134 99.576 859.006 98.9467 858.75 98.392C858.515 97.8373 858.153 97.4 857.662 97.08C857.171 96.76 856.553 96.6 855.806 96.6ZM613.321 141.528V159H608.553V145.112H602.217V159H597.449V141.528H613.321ZM629.052 141.208C631.015 141.208 632.604 141.976 633.82 143.512C635.036 145.027 635.644 147.267 635.644 150.232C635.644 152.216 635.356 153.891 634.78 155.256C634.204 156.6 633.415 157.613 632.412 158.296C631.409 158.979 630.247 159.32 628.924 159.32C628.092 159.32 627.367 159.213 626.748 159C626.151 158.787 625.639 158.509 625.212 158.168C624.785 157.827 624.412 157.464 624.092 157.08H623.836C623.921 157.485 623.985 157.912 624.028 158.36C624.071 158.787 624.092 159.213 624.092 159.64V166.68H619.324V141.528H623.196L623.868 143.8H624.092C624.412 143.331 624.796 142.904 625.244 142.52C625.692 142.115 626.225 141.795 626.844 141.56C627.484 141.325 628.22 141.208 629.052 141.208ZM627.516 145.016C626.684 145.016 626.023 145.187 625.532 145.528C625.041 145.869 624.679 146.392 624.444 147.096C624.231 147.779 624.113 148.643 624.092 149.688V150.2C624.092 151.331 624.199 152.291 624.412 153.08C624.625 153.848 624.988 154.435 625.5 154.84C626.012 155.245 626.705 155.448 627.58 155.448C628.305 155.448 628.903 155.245 629.372 154.84C629.841 154.435 630.193 153.837 630.428 153.048C630.663 152.259 630.78 151.299 630.78 150.168C630.78 148.461 630.513 147.181 629.98 146.328C629.468 145.453 628.647 145.016 627.516 145.016ZM656.446 150.232C656.446 151.683 656.243 152.973 655.838 154.104C655.454 155.235 654.889 156.195 654.142 156.984C653.417 157.752 652.531 158.339 651.486 158.744C650.441 159.128 649.257 159.32 647.934 159.32C646.718 159.32 645.587 159.128 644.542 158.744C643.518 158.339 642.633 157.752 641.886 156.984C641.139 156.195 640.553 155.235 640.126 154.104C639.721 152.973 639.518 151.683 639.518 150.232C639.518 148.291 639.859 146.659 640.542 145.336C641.225 143.992 642.206 142.968 643.486 142.264C644.766 141.56 646.281 141.208 648.03 141.208C649.673 141.208 651.123 141.56 652.382 142.264C653.641 142.968 654.633 143.992 655.358 145.336C656.083 146.659 656.446 148.291 656.446 150.232ZM644.382 150.232C644.382 151.384 644.499 152.355 644.734 153.144C644.99 153.912 645.385 154.499 645.918 154.904C646.451 155.288 647.145 155.48 647.998 155.48C648.851 155.48 649.534 155.288 650.046 154.904C650.579 154.499 650.963 153.912 651.198 153.144C651.454 152.355 651.582 151.384 651.582 150.232C651.582 149.08 651.454 148.12 651.198 147.352C650.963 146.584 650.579 146.008 650.046 145.624C649.513 145.24 648.819 145.048 647.966 145.048C646.707 145.048 645.79 145.485 645.214 146.36C644.659 147.213 644.382 148.504 644.382 150.232ZM674.155 141.432C676.181 141.603 677.888 142.083 679.275 142.872C680.661 143.64 681.707 144.653 682.411 145.912C683.136 147.171 683.499 148.621 683.499 150.264C683.499 151.885 683.147 153.336 682.443 154.616C681.76 155.896 680.725 156.931 679.339 157.72C677.973 158.488 676.245 158.957 674.155 159.128V166.68H669.739V159.128C667.733 158.936 666.027 158.456 664.619 157.688C663.232 156.899 662.165 155.875 661.419 154.616C660.693 153.336 660.331 151.885 660.331 150.264C660.331 148.6 660.661 147.128 661.323 145.848C662.005 144.568 663.04 143.544 664.427 142.776C665.835 142.008 667.605 141.56 669.739 141.432V134.68H674.155V141.432ZM669.739 145.016C668.821 145.144 668.021 145.453 667.339 145.944C666.656 146.413 666.133 147.021 665.771 147.768C665.408 148.493 665.227 149.325 665.227 150.264C665.227 151.203 665.397 152.045 665.739 152.792C666.101 153.539 666.613 154.147 667.275 154.616C667.957 155.085 668.779 155.384 669.739 155.512V145.016ZM674.155 155.512C675.115 155.384 675.925 155.085 676.587 154.616C677.248 154.147 677.749 153.539 678.091 152.792C678.432 152.045 678.603 151.203 678.603 150.264C678.603 149.325 678.421 148.493 678.059 147.768C677.696 147.021 677.184 146.413 676.523 145.944C675.861 145.475 675.072 145.187 674.155 145.08V155.512ZM693.057 148.44C693.057 148.803 693.036 149.251 692.993 149.784C692.972 150.317 692.94 150.861 692.897 151.416C692.876 151.971 692.844 152.461 692.801 152.888C692.758 153.315 692.726 153.613 692.705 153.784L700.769 141.528H706.497V159H701.889V152.024C701.889 151.448 701.91 150.819 701.953 150.136C701.996 149.432 702.038 148.781 702.081 148.184C702.145 147.565 702.188 147.096 702.209 146.776L694.177 159H688.449V141.528H693.057V148.44ZM728.128 159H723.36V145.112H718.976C718.763 147.672 718.496 149.859 718.176 151.672C717.878 153.464 717.494 154.925 717.024 156.056C716.576 157.187 716 158.019 715.296 158.552C714.592 159.064 713.728 159.32 712.704 159.32C712.15 159.32 711.648 159.277 711.2 159.192C710.752 159.107 710.347 158.979 709.984 158.808V155C710.219 155.085 710.464 155.16 710.72 155.224C710.976 155.288 711.243 155.32 711.52 155.32C711.819 155.32 712.096 155.203 712.352 154.968C712.63 154.733 712.886 154.317 713.12 153.72C713.376 153.123 713.611 152.301 713.824 151.256C714.038 150.211 714.23 148.899 714.4 147.32C714.592 145.72 714.763 143.789 714.912 141.528H728.128V159ZM742.233 148.28C744.025 148.28 745.508 148.472 746.681 148.856C747.855 149.219 748.719 149.784 749.273 150.552C749.849 151.32 750.137 152.28 750.137 153.432C750.137 154.563 749.871 155.544 749.337 156.376C748.825 157.208 748.004 157.859 746.873 158.328C745.743 158.776 744.26 159 742.425 159H734.105V141.528H738.873V148.28H742.233ZM745.369 153.496C745.369 152.813 745.092 152.323 744.537 152.024C744.004 151.725 743.204 151.576 742.137 151.576H738.873V155.704H742.201C743.14 155.704 743.897 155.533 744.473 155.192C745.071 154.851 745.369 154.285 745.369 153.496ZM759.53 141.528V148.248H766.186V141.528H770.954V159H766.186V151.8H759.53V159H754.762V141.528H759.53ZM792.821 150.232C792.821 151.683 792.618 152.973 792.213 154.104C791.829 155.235 791.264 156.195 790.517 156.984C789.792 157.752 788.906 158.339 787.861 158.744C786.816 159.128 785.632 159.32 784.309 159.32C783.093 159.32 781.962 159.128 780.917 158.744C779.893 158.339 779.008 157.752 778.261 156.984C777.514 156.195 776.928 155.235 776.501 154.104C776.096 152.973 775.893 151.683 775.893 150.232C775.893 148.291 776.234 146.659 776.917 145.336C777.6 143.992 778.581 142.968 779.861 142.264C781.141 141.56 782.656 141.208 784.405 141.208C786.048 141.208 787.498 141.56 788.757 142.264C790.016 142.968 791.008 143.992 791.733 145.336C792.458 146.659 792.821 148.291 792.821 150.232ZM780.757 150.232C780.757 151.384 780.874 152.355 781.109 153.144C781.365 153.912 781.76 154.499 782.293 154.904C782.826 155.288 783.52 155.48 784.373 155.48C785.226 155.48 785.909 155.288 786.421 154.904C786.954 154.499 787.338 153.912 787.573 153.144C787.829 152.355 787.957 151.384 787.957 150.232C787.957 149.08 787.829 148.12 787.573 147.352C787.338 146.584 786.954 146.008 786.421 145.624C785.888 145.24 785.194 145.048 784.341 145.048C783.082 145.048 782.165 145.485 781.589 146.36C781.034 147.213 780.757 148.504 780.757 150.232ZM809.826 141.528V145.112H802.53V159H797.762V141.528H809.826ZM829.602 150.232C829.602 151.683 829.4 152.973 828.994 154.104C828.61 155.235 828.045 156.195 827.298 156.984C826.573 157.752 825.688 158.339 824.642 158.744C823.597 159.128 822.413 159.32 821.09 159.32C819.874 159.32 818.744 159.128 817.698 158.744C816.674 158.339 815.789 157.752 815.042 156.984C814.296 156.195 813.709 155.235 813.282 154.104C812.877 152.973 812.674 151.683 812.674 150.232C812.674 148.291 813.016 146.659 813.698 145.336C814.381 143.992 815.362 142.968 816.642 142.264C817.922 141.56 819.437 141.208 821.186 141.208C822.829 141.208 824.28 141.56 825.538 142.264C826.797 142.968 827.789 143.992 828.514 145.336C829.24 146.659 829.602 148.291 829.602 150.232ZM817.538 150.232C817.538 151.384 817.656 152.355 817.89 153.144C818.146 153.912 818.541 154.499 819.074 154.904C819.608 155.288 820.301 155.48 821.154 155.48C822.008 155.48 822.69 155.288 823.202 154.904C823.736 154.499 824.12 153.912 824.354 153.144C824.61 152.355 824.738 151.384 824.738 150.232C824.738 149.08 824.61 148.12 824.354 147.352C824.12 146.584 823.736 146.008 823.202 145.624C822.669 145.24 821.976 145.048 821.122 145.048C819.864 145.048 818.946 145.485 818.37 146.36C817.816 147.213 817.538 148.504 817.538 150.232ZM633.265 194.104C633.265 195.043 632.967 195.843 632.369 196.504C631.793 197.165 630.929 197.592 629.777 197.784V197.912C630.993 198.061 631.964 198.477 632.689 199.16C633.436 199.843 633.809 200.717 633.809 201.784C633.809 202.531 633.66 203.224 633.361 203.864C633.084 204.504 632.636 205.059 632.017 205.528C631.399 205.997 630.599 206.36 629.617 206.616C628.657 206.872 627.484 207 626.097 207H617.777V189.528H626.097C627.463 189.528 628.679 189.677 629.745 189.976C630.833 190.253 631.687 190.723 632.305 191.384C632.945 192.045 633.265 192.952 633.265 194.104ZM628.881 201.528C628.881 200.845 628.615 200.355 628.081 200.056C627.548 199.736 626.748 199.576 625.681 199.576H622.545V203.704H625.777C626.673 203.704 627.409 203.544 627.985 203.224C628.583 202.883 628.881 202.317 628.881 201.528ZM628.433 194.488C628.433 193.933 628.22 193.528 627.793 193.272C627.367 193.016 626.737 192.888 625.905 192.888H622.545V196.344H625.361C626.364 196.344 627.121 196.205 627.633 195.928C628.167 195.629 628.433 195.149 628.433 194.488ZM646.102 189.208C647.724 189.208 649.11 189.517 650.262 190.136C651.436 190.755 652.342 191.651 652.982 192.824C653.622 193.997 653.942 195.437 653.942 197.144V199.448H642.678C642.721 200.792 643.116 201.848 643.862 202.616C644.63 203.384 645.686 203.768 647.03 203.768C648.161 203.768 649.185 203.661 650.102 203.448C651.02 203.213 651.969 202.861 652.95 202.392V206.072C652.097 206.499 651.19 206.808 650.23 207C649.292 207.213 648.15 207.32 646.806 207.32C645.057 207.32 643.51 207 642.166 206.36C640.822 205.699 639.766 204.707 638.998 203.384C638.23 202.061 637.846 200.397 637.846 198.392C637.846 196.344 638.188 194.648 638.87 193.304C639.574 191.939 640.545 190.915 641.782 190.232C643.02 189.549 644.46 189.208 646.102 189.208ZM646.134 192.6C645.217 192.6 644.449 192.899 643.83 193.496C643.233 194.093 642.881 195.021 642.774 196.28H649.462C649.462 195.576 649.334 194.947 649.078 194.392C648.844 193.837 648.481 193.4 647.99 193.08C647.5 192.76 646.881 192.6 646.134 192.6ZM674.521 189.528V203.512H677.081V213.272H672.793V207H661.049V213.272H656.761V203.512H658.233C659.001 202.339 659.651 201.005 660.185 199.512C660.718 197.997 661.145 196.387 661.465 194.68C661.785 192.973 662.019 191.256 662.169 189.528H674.521ZM666.169 193.112C665.998 194.392 665.785 195.64 665.529 196.856C665.273 198.051 664.953 199.203 664.569 200.312C664.206 201.421 663.758 202.488 663.225 203.512H669.753V193.112H666.169ZM696.931 198.232C696.931 199.683 696.728 200.973 696.323 202.104C695.939 203.235 695.373 204.195 694.627 204.984C693.901 205.752 693.016 206.339 691.971 206.744C690.925 207.128 689.741 207.32 688.419 207.32C687.203 207.32 686.072 207.128 685.027 206.744C684.003 206.339 683.117 205.752 682.371 204.984C681.624 204.195 681.037 203.235 680.611 202.104C680.205 200.973 680.003 199.683 680.003 198.232C680.003 196.291 680.344 194.659 681.027 193.336C681.709 191.992 682.691 190.968 683.971 190.264C685.251 189.56 686.765 189.208 688.515 189.208C690.157 189.208 691.608 189.56 692.867 190.264C694.125 190.968 695.117 191.992 695.843 193.336C696.568 194.659 696.931 196.291 696.931 198.232ZM684.867 198.232C684.867 199.384 684.984 200.355 685.219 201.144C685.475 201.912 685.869 202.499 686.403 202.904C686.936 203.288 687.629 203.48 688.483 203.48C689.336 203.48 690.019 203.288 690.531 202.904C691.064 202.499 691.448 201.912 691.683 201.144C691.939 200.355 692.067 199.384 692.067 198.232C692.067 197.08 691.939 196.12 691.683 195.352C691.448 194.584 691.064 194.008 690.531 193.624C689.997 193.24 689.304 193.048 688.451 193.048C687.192 193.048 686.275 193.485 685.699 194.36C685.144 195.213 684.867 196.504 684.867 198.232ZM723.887 189.528V207H719.439V198.424C719.439 197.571 719.45 196.739 719.471 195.928C719.514 195.117 719.567 194.371 719.631 193.688H719.535L714.703 207H711.119L706.223 193.656H706.095C706.18 194.36 706.234 195.117 706.255 195.928C706.298 196.717 706.319 197.592 706.319 198.552V207H701.871V189.528H708.623L712.975 201.368L717.391 189.528H723.887ZM736.975 207.32C735.247 207.32 733.775 207.011 732.559 206.392C731.343 205.752 730.415 204.771 729.775 203.448C729.135 202.125 728.815 200.429 728.815 198.36C728.815 196.227 729.178 194.488 729.903 193.144C730.628 191.8 731.631 190.808 732.911 190.168C734.212 189.528 735.706 189.208 737.391 189.208C738.586 189.208 739.62 189.325 740.495 189.56C741.391 189.795 742.17 190.072 742.831 190.392L741.423 194.072C740.676 193.773 739.972 193.528 739.311 193.336C738.671 193.144 738.031 193.048 737.391 193.048C736.559 193.048 735.866 193.251 735.311 193.656C734.756 194.04 734.34 194.627 734.063 195.416C733.807 196.184 733.679 197.155 733.679 198.328C733.679 199.48 733.818 200.44 734.095 201.208C734.394 201.955 734.82 202.52 735.375 202.904C735.93 203.267 736.602 203.448 737.391 203.448C738.394 203.448 739.279 203.32 740.047 203.064C740.815 202.787 741.562 202.413 742.287 201.944V206.008C741.562 206.477 740.794 206.808 739.983 207C739.194 207.213 738.191 207.32 736.975 207.32ZM761.773 193.112H756.045V207H751.277V193.112H745.549V189.528H761.773V193.112ZM781.484 194.104C781.484 195.043 781.185 195.843 780.588 196.504C780.012 197.165 779.148 197.592 777.996 197.784V197.912C779.212 198.061 780.183 198.477 780.908 199.16C781.655 199.843 782.028 200.717 782.028 201.784C782.028 202.531 781.879 203.224 781.58 203.864C781.303 204.504 780.855 205.059 780.236 205.528C779.617 205.997 778.817 206.36 777.836 206.616C776.876 206.872 775.703 207 774.316 207H765.996V189.528H774.316C775.681 189.528 776.897 189.677 777.964 189.976C779.052 190.253 779.905 190.723 780.524 191.384C781.164 192.045 781.484 192.952 781.484 194.104ZM777.1 201.528C777.1 200.845 776.833 200.355 776.3 200.056C775.767 199.736 774.967 199.576 773.9 199.576H770.764V203.704H773.996C774.892 203.704 775.628 203.544 776.204 203.224C776.801 202.883 777.1 202.317 777.1 201.528ZM776.652 194.488C776.652 193.933 776.439 193.528 776.012 193.272C775.585 193.016 774.956 192.888 774.124 192.888H770.764V196.344H773.58C774.583 196.344 775.34 196.205 775.852 195.928C776.385 195.629 776.652 195.149 776.652 194.488ZM794.289 189.176C796.636 189.176 798.428 189.688 799.665 190.712C800.924 191.715 801.553 193.261 801.553 195.352V207H798.225L797.297 204.632H797.169C796.678 205.251 796.166 205.763 795.633 206.168C795.121 206.573 794.524 206.861 793.841 207.032C793.18 207.224 792.358 207.32 791.377 207.32C790.353 207.32 789.425 207.128 788.593 206.744C787.782 206.339 787.142 205.731 786.673 204.92C786.204 204.088 785.969 203.043 785.969 201.784C785.969 199.928 786.62 198.563 787.921 197.688C789.222 196.792 791.174 196.301 793.777 196.216L796.817 196.12V195.352C796.817 194.435 796.572 193.763 796.081 193.336C795.612 192.909 794.95 192.696 794.097 192.696C793.244 192.696 792.412 192.824 791.601 193.08C790.79 193.315 789.98 193.613 789.169 193.976L787.601 190.744C788.54 190.253 789.574 189.869 790.705 189.592C791.857 189.315 793.052 189.176 794.289 189.176ZM794.961 198.968C793.425 199.011 792.358 199.288 791.761 199.8C791.164 200.312 790.865 200.984 790.865 201.816C790.865 202.541 791.078 203.064 791.505 203.384C791.932 203.683 792.486 203.832 793.169 203.832C794.193 203.832 795.057 203.533 795.761 202.936C796.465 202.317 796.817 201.453 796.817 200.344V198.904L794.961 198.968ZM595.702 260.952C593.654 258.947 592.054 256.397 590.902 253.304C589.771 250.211 589.206 246.872 589.206 243.288C589.206 239.619 589.803 236.195 590.998 233.016C592.214 229.816 593.942 227.181 596.182 225.112H599.222V225.4C596.833 227.64 595.03 230.339 593.814 233.496C592.619 236.632 592.022 239.896 592.022 243.288C592.022 246.595 592.587 249.752 593.718 252.76C594.87 255.768 596.545 258.403 598.742 260.664V260.952H595.702ZM603.105 244.696C603.105 242.2 603.351 240.077 603.841 238.328C604.353 236.557 605.132 235.149 606.177 234.104C607.244 233.037 608.609 232.323 610.273 231.96C611.66 231.661 613.015 231.395 614.337 231.16C615.66 230.925 616.897 230.712 618.049 230.52L618.529 232.984C617.975 233.069 617.356 233.176 616.673 233.304C615.991 233.411 615.297 233.528 614.593 233.656C613.889 233.763 613.207 233.88 612.545 234.008C611.905 234.115 611.34 234.221 610.849 234.328C610.145 234.477 609.516 234.733 608.961 235.096C608.407 235.437 607.927 235.907 607.521 236.504C607.137 237.101 606.828 237.837 606.593 238.712C606.359 239.587 606.22 240.621 606.177 241.816H606.369C606.668 241.411 607.073 240.995 607.585 240.568C608.119 240.141 608.748 239.779 609.473 239.48C610.22 239.181 611.063 239.032 612.001 239.032C613.495 239.032 614.732 239.363 615.713 240.024C616.716 240.664 617.463 241.56 617.953 242.712C618.465 243.864 618.721 245.208 618.721 246.744C618.721 248.643 618.391 250.232 617.729 251.512C617.068 252.792 616.151 253.752 614.977 254.392C613.804 255.011 612.439 255.32 610.881 255.32C609.708 255.32 608.641 255.096 607.681 254.648C606.721 254.179 605.9 253.496 605.217 252.6C604.535 251.704 604.012 250.595 603.649 249.272C603.287 247.949 603.105 246.424 603.105 244.696ZM611.105 252.984C612.044 252.984 612.855 252.792 613.537 252.408C614.241 252.024 614.785 251.395 615.169 250.52C615.553 249.645 615.745 248.483 615.745 247.032C615.745 245.283 615.415 243.907 614.753 242.904C614.113 241.88 613.047 241.368 611.553 241.368C610.615 241.368 609.761 241.581 608.993 242.008C608.225 242.413 607.585 242.883 607.073 243.416C606.561 243.949 606.199 244.397 605.985 244.76C605.985 245.805 606.06 246.819 606.209 247.8C606.359 248.781 606.615 249.667 606.977 250.456C607.361 251.224 607.884 251.843 608.545 252.312C609.228 252.76 610.081 252.984 611.105 252.984ZM630.782 237.528C632.254 237.528 633.512 237.848 634.558 238.488C635.624 239.128 636.435 240.035 636.99 241.208C637.566 242.36 637.854 243.715 637.854 245.272V246.968H626.11C626.152 248.909 626.643 250.392 627.582 251.416C628.542 252.419 629.875 252.92 631.582 252.92C632.67 252.92 633.63 252.824 634.462 252.632C635.315 252.419 636.19 252.12 637.086 251.736V254.2C636.211 254.584 635.347 254.861 634.494 255.032C633.64 255.224 632.627 255.32 631.454 255.32C629.832 255.32 628.392 254.989 627.134 254.328C625.896 253.667 624.926 252.685 624.222 251.384C623.539 250.061 623.198 248.451 623.198 246.552C623.198 244.675 623.507 243.064 624.126 241.72C624.766 240.376 625.651 239.341 626.782 238.616C627.934 237.891 629.267 237.528 630.782 237.528ZM630.75 239.832C629.406 239.832 628.339 240.269 627.55 241.144C626.782 241.997 626.323 243.192 626.174 244.728H634.91C634.91 243.747 634.76 242.893 634.462 242.168C634.163 241.443 633.704 240.877 633.086 240.472C632.488 240.045 631.71 239.832 630.75 239.832ZM647.732 237.528C649.033 237.528 650.164 237.709 651.124 238.072C652.084 238.413 652.831 238.925 653.364 239.608C653.897 240.269 654.164 241.08 654.164 242.04C654.164 243.085 653.876 243.917 653.3 244.536C652.724 245.133 651.935 245.571 650.932 245.848V245.976C651.615 246.168 652.244 246.435 652.82 246.776C653.396 247.117 653.855 247.565 654.196 248.12C654.559 248.675 654.74 249.389 654.74 250.264C654.74 251.203 654.473 252.056 653.94 252.824C653.428 253.592 652.628 254.2 651.54 254.648C650.473 255.096 649.097 255.32 647.412 255.32C646.601 255.32 645.823 255.277 645.076 255.192C644.351 255.107 643.689 254.979 643.092 254.808C642.516 254.637 642.004 254.435 641.556 254.2V251.672C642.281 252.013 643.135 252.323 644.116 252.6C645.119 252.877 646.207 253.016 647.38 253.016C648.233 253.016 649.001 252.92 649.684 252.728C650.388 252.536 650.943 252.237 651.348 251.832C651.753 251.405 651.956 250.829 651.956 250.104C651.956 249.443 651.775 248.909 651.412 248.504C651.049 248.077 650.505 247.757 649.78 247.544C649.076 247.331 648.169 247.224 647.06 247.224H644.756V244.92H646.612C648.084 244.92 649.257 244.728 650.132 244.344C651.028 243.939 651.476 243.256 651.476 242.296C651.476 241.485 651.135 240.877 650.452 240.472C649.791 240.067 648.831 239.864 647.572 239.864C646.633 239.864 645.801 239.96 645.076 240.152C644.372 240.323 643.593 240.589 642.74 240.952L641.748 238.712C642.665 238.307 643.625 238.008 644.628 237.816C645.631 237.624 646.665 237.528 647.732 237.528ZM679.583 237.848H682.655L675.327 246.104L683.263 255H679.999L672.255 246.296V255H669.439V237.848H672.255V246.168L679.583 237.848ZM701.663 246.392C701.663 247.821 701.471 249.091 701.087 250.2C700.725 251.288 700.191 252.216 699.487 252.984C698.805 253.752 697.962 254.339 696.959 254.744C695.978 255.128 694.879 255.32 693.663 255.32C692.533 255.32 691.487 255.128 690.527 254.744C689.567 254.339 688.735 253.752 688.031 252.984C687.327 252.216 686.773 251.288 686.367 250.2C685.983 249.091 685.791 247.821 685.791 246.392C685.791 244.493 686.111 242.893 686.751 241.592C687.391 240.269 688.309 239.267 689.503 238.584C690.698 237.88 692.117 237.528 693.759 237.528C695.317 237.528 696.682 237.88 697.855 238.584C699.05 239.267 699.978 240.269 700.639 241.592C701.322 242.893 701.663 244.493 701.663 246.392ZM688.703 246.392C688.703 247.736 688.874 248.909 689.215 249.912C689.578 250.893 690.133 251.651 690.879 252.184C691.626 252.717 692.575 252.984 693.727 252.984C694.879 252.984 695.829 252.717 696.575 252.184C697.322 251.651 697.866 250.893 698.207 249.912C698.57 248.909 698.751 247.736 698.751 246.392C698.751 245.027 698.57 243.864 698.207 242.904C697.845 241.944 697.29 241.208 696.543 240.696C695.818 240.163 694.869 239.896 693.695 239.896C691.946 239.896 690.677 240.472 689.887 241.624C689.098 242.776 688.703 244.365 688.703 246.392ZM725.526 237.848V255H722.998V244.056C722.998 243.608 723.009 243.139 723.03 242.648C723.073 242.157 723.116 241.677 723.158 241.208H723.062L717.462 255H715.094L709.654 241.208H709.558C709.601 241.677 709.622 242.157 709.622 242.648C709.644 243.139 709.654 243.64 709.654 244.152V255H707.126V237.848H710.87L716.278 251.64L721.782 237.848H725.526ZM734.657 248.312C734.657 248.504 734.647 248.781 734.625 249.144C734.625 249.485 734.615 249.859 734.593 250.264C734.572 250.648 734.551 251.021 734.529 251.384C734.508 251.725 734.487 252.003 734.465 252.216L743.649 237.848H747.105V255H744.481V244.888C744.481 244.547 744.481 244.099 744.481 243.544C744.503 242.989 744.524 242.445 744.545 241.912C744.567 241.357 744.588 240.941 744.609 240.664L735.489 255H732.001V237.848H734.657V248.312ZM760.444 255.32C758.929 255.32 757.574 255.011 756.38 254.392C755.206 253.773 754.278 252.813 753.596 251.512C752.934 250.211 752.604 248.547 752.604 246.52C752.604 244.408 752.956 242.691 753.66 241.368C754.364 240.045 755.313 239.075 756.508 238.456C757.724 237.837 759.1 237.528 760.636 237.528C761.51 237.528 762.353 237.624 763.164 237.816C763.974 237.987 764.636 238.2 765.148 238.456L764.284 240.792C763.772 240.6 763.174 240.419 762.492 240.248C761.809 240.077 761.169 239.992 760.572 239.992C759.42 239.992 758.47 240.237 757.724 240.728C756.977 241.219 756.422 241.944 756.06 242.904C755.697 243.864 755.516 245.059 755.516 246.488C755.516 247.853 755.697 249.016 756.06 249.976C756.422 250.936 756.966 251.661 757.692 252.152C758.417 252.643 759.324 252.888 760.412 252.888C761.35 252.888 762.172 252.792 762.876 252.6C763.601 252.408 764.262 252.173 764.86 251.896V254.392C764.284 254.691 763.644 254.915 762.94 255.064C762.257 255.235 761.425 255.32 760.444 255.32ZM776.819 255.32C775.304 255.32 773.949 255.011 772.755 254.392C771.581 253.773 770.653 252.813 769.971 251.512C769.309 250.211 768.979 248.547 768.979 246.52C768.979 244.408 769.331 242.691 770.035 241.368C770.739 240.045 771.688 239.075 772.883 238.456C774.099 237.837 775.475 237.528 777.011 237.528C777.885 237.528 778.728 237.624 779.539 237.816C780.349 237.987 781.011 238.2 781.523 238.456L780.659 240.792C780.147 240.6 779.549 240.419 778.867 240.248C778.184 240.077 777.544 239.992 776.947 239.992C775.795 239.992 774.845 240.237 774.099 240.728C773.352 241.219 772.797 241.944 772.435 242.904C772.072 243.864 771.891 245.059 771.891 246.488C771.891 247.853 772.072 249.016 772.435 249.976C772.797 250.936 773.341 251.661 774.067 252.152C774.792 252.643 775.699 252.888 776.787 252.888C777.725 252.888 778.547 252.792 779.251 252.6C779.976 252.408 780.637 252.173 781.235 251.896V254.392C780.659 254.691 780.019 254.915 779.315 255.064C778.632 255.235 777.8 255.32 776.819 255.32ZM788.97 248.312C788.97 248.504 788.959 248.781 788.938 249.144C788.938 249.485 788.927 249.859 788.906 250.264C788.884 250.648 788.863 251.021 788.842 251.384C788.82 251.725 788.799 252.003 788.778 252.216L797.962 237.848H801.418V255H798.794V244.888C798.794 244.547 798.794 244.099 798.794 243.544C798.815 242.989 798.836 242.445 798.858 241.912C798.879 241.357 798.9 240.941 798.922 240.664L789.802 255H786.314V237.848H788.97V248.312ZM810.532 248.312C810.532 248.504 810.522 248.781 810.5 249.144C810.5 249.485 810.49 249.859 810.468 250.264C810.447 250.648 810.426 251.021 810.404 251.384C810.383 251.725 810.362 252.003 810.34 252.216L819.524 237.848H822.98V255H820.356V244.888C820.356 244.547 820.356 244.099 820.356 243.544C820.378 242.989 820.399 242.445 820.42 241.912C820.442 241.357 820.463 240.941 820.484 240.664L811.364 255H807.876V237.848H810.532V248.312ZM828.255 260.952V260.664C830.452 258.403 832.116 255.768 833.247 252.76C834.399 249.752 834.975 246.595 834.975 243.288C834.975 239.896 834.367 236.632 833.151 233.496C831.956 230.339 830.164 227.64 827.775 225.4V225.112H830.815C833.055 227.181 834.772 229.816 835.967 233.016C837.183 236.195 837.791 239.619 837.791 243.288C837.791 246.872 837.215 250.211 836.063 253.304C834.932 256.397 833.343 258.947 831.295 260.952H828.255Z" fill="#14142B"/>
<rect x="486.5" y="2.5" width="454" height="290" rx="41.5" stroke="#2394BC" stroke-width="5"/>
</g>
<defs>
<filter id="filter0_d_78_641" x="0" y="0" width="468" height="303" filterUnits="userSpaceOnUse" color-interpolation-filters="sRGB">
<feFlood flood-opacity="0" result="BackgroundImageFix"/>
<feColorMatrix in="SourceAlpha" type="matrix" values="0 0 0 0 0 0 0 0 0 0 0 0 0 0 0 0 0 0 127 0" result="hardAlpha"/>
<feOffset dy="4"/>
<feGaussianBlur stdDeviation="2"/>
<feComposite in2="hardAlpha" operator="out"/>
<feColorMatrix type="matrix" values="0 0 0 0 0 0 0 0 0 0 0 0 0 0 0 0 0 0 0.25 0"/>
<feBlend mode="normal" in2="BackgroundImageFix" result="effect1_dropShadow_78_641"/>
<feBlend mode="normal" in="SourceGraphic" in2="effect1_dropShadow_78_641" result="shape"/>
</filter>
<filter id="filter1_d_78_641" x="961" y="0" width="468" height="303" filterUnits="userSpaceOnUse" color-interpolation-filters="sRGB">
<feFlood flood-opacity="0" result="BackgroundImageFix"/>
<feColorMatrix in="SourceAlpha" type="matrix" values="0 0 0 0 0 0 0 0 0 0 0 0 0 0 0 0 0 0 127 0" result="hardAlpha"/>
<feOffset dy="4"/>
<feGaussianBlur stdDeviation="2"/>
<feComposite in2="hardAlpha" operator="out"/>
<feColorMatrix type="matrix" values="0 0 0 0 0 0 0 0 0 0 0 0 0 0 0 0 0 0 0.25 0"/>
<feBlend mode="normal" in2="BackgroundImageFix" result="effect1_dropShadow_78_641"/>
<feBlend mode="normal" in="SourceGraphic" in2="effect1_dropShadow_78_641" result="shape"/>
</filter>
<filter id="filter2_d_78_641" x="480" y="0" width="467" height="303" filterUnits="userSpaceOnUse" color-interpolation-filters="sRGB">
<feFlood flood-opacity="0" result="BackgroundImageFix"/>
<feColorMatrix in="SourceAlpha" type="matrix" values="0 0 0 0 0 0 0 0 0 0 0 0 0 0 0 0 0 0 127 0" result="hardAlpha"/>
<feOffset dy="4"/>
<feGaussianBlur stdDeviation="2"/>
<feComposite in2="hardAlpha" operator="out"/>
<feColorMatrix type="matrix" values="0 0 0 0 0 0 0 0 0 0 0 0 0 0 0 0 0 0 0.25 0"/>
<feBlend mode="normal" in2="BackgroundImageFix" result="effect1_dropShadow_78_641"/>
<feBlend mode="normal" in="SourceGraphic" in2="effect1_dropShadow_78_641" result="shape"/>
</filter>
</defs>
</svg>
