<svg width="878" height="769" viewBox="0 0 878 769" fill="none" xmlns="http://www.w3.org/2000/svg">
<path d="M805.654 650.953H64.2188V660.639H805.654V650.953Z" fill="#E3EDF5"/>
<path d="M772.876 217.006L780.406 217.95L781.433 211.666L773.903 210.721L772.876 217.006ZM783.385 221.431L768.901 219.615L770.924 207.242L785.407 209.056L783.385 221.431Z" fill="#DCF5F9"/>
<path d="M102.246 76.1818L109.776 77.1253L110.803 70.8411L103.272 69.8975L102.246 76.1818ZM112.755 80.6074L98.272 78.7902L100.294 66.417L114.777 68.2326L112.755 80.6074Z" fill="#DCF5F9"/>
<path d="M774.852 469.44L774.291 466.403L779.457 465.671L780.018 468.708L774.852 469.44Z" fill="#DCF5F9"/>
<path d="M780.014 464.511L779.193 460.07L782.66 459.579L783.481 464.019L780.014 464.511Z" fill="#DCF5F9"/>
<path d="M785.665 467.907L785.104 464.871L789.99 464.178L790.551 467.214L785.665 467.907Z" fill="#DCF5F9"/>
<path d="M781.809 474.216L780.94 469.522L784.408 469.032L785.275 473.725L781.809 474.216Z" fill="#DCF5F9"/>
<path d="M105.107 580.134L102.246 578.35L109.481 569.45L120.121 575.73L118.158 578.28L110.357 573.676L105.107 580.134Z" fill="#DCF5F9"/>
<path d="M481.426 99.3686C482.925 75.6288 512.343 60.761 543.986 70.7826C575.78 30.5139 662.773 49.9949 664.747 99.6447C710.771 93.5719 731.509 110.22 731.351 131.168C693.165 130.948 457.776 131.384 420.209 131.168C422.417 106.016 451.058 96.967 481.426 99.3686Z" fill="#DCF5F9"/>
<path d="M463.271 357.083C486.447 344.907 541.838 308.478 602.388 309.126C640.814 309.538 673.208 333.424 673.208 333.424C673.208 333.424 603.086 367.294 564.236 373.093C516.48 380.223 463.271 357.083 463.271 357.083Z" fill="#92F2B8"/>
<path d="M550.598 337.172C533.571 343.372 471.539 374.253 471.539 374.253C486.364 346.578 494.086 278.527 541.599 243.841C573.043 220.885 649.514 190.17 649.514 190.17C649.514 190.17 645.155 240.468 615.156 288.493C600.206 312.425 606.085 316.967 550.598 337.172Z" fill="#BDFFD8"/>
<path d="M328.461 576.236C327.504 591.592 325.721 625.199 325.458 634.813C325.329 639.5 323.201 646.292 322.79 649.074C322.426 651.549 334.986 652.127 337.623 650.851C340.969 649.23 340.559 644.819 340.324 642.986C339.658 637.792 338.807 637.806 339.254 631.644C340.25 617.906 360.365 569.746 359.932 551.872C359.853 548.615 357.903 537.935 357.903 537.935L326.545 540.357C326.545 540.357 329.019 567.27 328.461 576.236Z" fill="#FFC6C3"/>
<path d="M323.228 645.902C324.912 649.346 327.793 646.499 331.505 646.714C334.864 646.91 338.745 650.06 340.474 644.906C341.464 648.303 341.958 649.884 338.253 652.261C335.607 653.96 332.754 654.851 330.229 654.788C328.13 654.737 325.563 653.651 323.39 650.878C321.202 648.085 323.232 646.059 323.228 645.902Z" fill="#003977"/>
<path d="M341.917 534.43C341.917 534.43 327.391 553.51 320.306 557.437C300.3 568.526 268.077 585.974 252.356 598.555C248.152 601.919 240.826 609.636 236.492 612.869C234.36 614.459 232.604 614.409 229.928 613.688C225.456 612.486 222.47 607.572 223.813 603.648C225.14 599.769 231.977 596.656 235.399 593.933C237.386 592.353 238.56 590.643 240.922 589.528C242.225 588.913 247.688 587.166 248.969 586.517C260.482 580.684 279.422 547.113 293.881 538.834C299.8 535.445 317.267 523.85 317.267 523.85L341.917 534.43Z" fill="#FFD0CE"/>
<path d="M396.996 449.683L272.328 456.969C269.577 469.757 267.853 483.836 267.099 500.588C266.512 513.616 263.466 529.946 263.466 529.946C263.466 529.946 276.654 532.155 303.755 544.335C312.595 548.309 327.162 547.624 343.424 544.419C351.542 542.819 356.232 544.928 361.41 543.974C371.441 542.125 377.656 535.976 381.275 534.862C385.601 533.529 390.719 534.334 392.524 533.707C405.722 529.12 412.339 523.321 411.529 521.303C405.553 506.398 402.353 472.214 396.996 449.683Z" fill="#0096C6"/>
<path d="M238.898 610.795C235.027 612.391 235.032 608.587 232.094 606.59C229.434 604.78 224.144 604.878 226.759 600.018C223.443 601.983 221.876 602.878 222.842 606.809C223.533 609.619 224.99 611.945 226.925 613.367C228.534 614.549 231.276 615.231 235.003 614.421C238.757 613.606 238.775 610.911 238.898 610.795Z" fill="#003977"/>
<path d="M256.42 307.978L165.915 297.132L181.154 199.57L271.659 210.415L256.42 307.978Z" fill="#DCF5F9"/>
<path d="M234.082 280.389L244.836 269.044L228.053 270.215L231.686 272.842L218.48 278.844C217.958 278.571 217.366 278.383 216.725 278.306C216.265 278.25 215.817 278.275 215.381 278.335L211.095 272.602C211.161 272.407 211.226 272.211 211.26 272.002C211.607 269.774 209.829 267.717 207.281 267.411C204.9 267.125 202.72 268.478 202.155 270.471L185.978 277.581C184.887 278.061 184.447 279.224 184.994 280.179C185.544 281.136 186.872 281.517 187.959 281.04L203.331 274.284C204.029 274.912 204.949 275.36 206.019 275.489C206.665 275.567 207.298 275.521 207.89 275.377L211.862 280.693C211.686 281.037 211.544 281.399 211.483 281.792C211.134 284.021 212.914 286.078 215.464 286.383C218.012 286.689 220.357 285.126 220.704 282.897C220.742 282.654 220.745 282.415 220.734 282.178L233.72 276.276L234.082 280.389Z" fill="#EA659D"/>
<path d="M270.032 221.401L179.439 210.545L181.154 199.57L271.746 210.425L270.032 221.401Z" fill="#DCF5F9"/>
<path d="M194.335 226.061L202.047 226.977C203.008 227.091 203.893 226.501 204.023 225.659C204.153 224.818 203.479 224.043 202.519 223.929L194.806 223.014C193.845 222.899 192.961 223.49 192.83 224.331C192.7 225.173 193.373 225.948 194.335 226.061ZM209.76 227.892L217.471 228.807C218.432 228.921 219.318 228.331 219.447 227.489C219.577 226.648 218.904 225.873 217.943 225.759L210.231 224.844C209.27 224.729 208.385 225.32 208.255 226.161C208.125 227.003 208.798 227.778 209.76 227.892ZM225.183 229.723L232.896 230.638C233.857 230.752 234.741 230.162 234.872 229.32C235.002 228.478 234.329 227.703 233.367 227.589L225.655 226.674C224.694 226.56 223.809 227.15 223.679 227.992C223.549 228.834 224.223 229.608 225.183 229.723ZM240.608 231.553L248.32 232.468C249.282 232.582 250.166 231.992 250.297 231.15C250.427 230.309 249.753 229.533 248.792 229.42L241.08 228.505C240.119 228.391 239.234 228.981 239.104 229.822C238.974 230.664 239.648 231.438 240.608 231.553Z" fill="#6DF3C7"/>
<path d="M190.178 246.751H249.641V237.062H190.178V246.751Z" fill="#8FF4D6"/>
<path d="M245.489 260.85C245.409 260.85 245.33 260.846 245.251 260.836L189.755 254.251C188.793 254.136 188.12 253.362 188.25 252.52C188.369 251.748 189.123 251.188 189.988 251.188C190.066 251.188 190.146 251.193 190.226 251.202L245.722 257.787C246.683 257.902 247.357 258.676 247.226 259.518C247.107 260.29 246.353 260.85 245.489 260.85Z" fill="#8FF4D6"/>
<path d="M410.066 145.812C409.852 152.47 416.996 173.402 417.158 180.063C417.183 181.105 421.265 185.166 421.265 185.166L406.106 191.949C406.106 191.949 398.339 179.751 397.968 179.748C397.598 179.745 391.802 174.816 390.902 168.777C390.307 164.79 391.634 164.672 391.85 160.656C391.977 158.305 384.843 154.032 384.648 150.832C384.628 150.506 385.79 150.067 384.192 147.007C383.762 146.181 384.792 143.296 384.792 143.296L396.19 147.717L393.757 141.465C393.757 141.465 388.59 139.906 388.157 138.322C387.656 136.498 388.411 135.606 388.411 135.606L396.008 137.809L404.666 144.129C404.666 144.129 400.458 135.895 401.176 133.352C401.494 132.222 403.069 130.676 403.069 130.676C403.069 130.676 410.172 142.481 410.066 145.812Z" fill="#FFD0CE"/>
<path d="M358.623 179.044C363.178 167.154 354.088 155.714 342.824 152.708C332.052 149.833 316.789 159.51 315.69 172.015C315.06 179.175 322.963 186.454 331.995 188.941C342.17 191.742 352.943 193.874 358.623 179.044Z" fill="#00649F"/>
<path d="M305.826 188.003C298.99 196.895 298.292 211.147 305.311 219.148C307.131 221.223 340.963 224.58 343.228 224.592C364.489 224.699 363.754 199.557 360.394 192.5C352.174 175.236 320.428 169.009 305.826 188.003Z" fill="#00649F"/>
<path d="M326.884 289.805C337.867 289.865 362.439 274.263 366.356 268.611C366.356 268.611 355.81 263.868 352.968 263.179C334.352 258.665 326.555 257.059 304.81 265.269C302.236 266.242 295.237 270.383 295.237 270.383C295.45 271.115 317.223 289.752 326.884 289.805Z" fill="#FFC6C3"/>
<path d="M316.556 241.714L342.438 241.973C342.817 241.977 343.122 242.249 343.117 242.581L342.802 266.792C342.753 270.477 339.304 273.43 335.097 273.387L323.077 273.266C318.869 273.225 315.498 270.204 315.546 266.519L315.862 242.309C315.866 241.977 316.177 241.711 316.556 241.714Z" fill="#FFC6C3"/>
<path d="M353.459 217.299C355.016 214.802 358.57 213.872 361.394 215.223C364.218 216.574 365.245 219.695 363.687 222.193C362.129 224.691 358.577 225.621 355.752 224.27C352.928 222.918 351.901 219.798 353.459 217.299Z" fill="#FFC6C3"/>
<path d="M307.766 215.747C307.517 218.585 304.712 220.711 301.504 220.494C298.295 220.278 295.896 217.802 296.146 214.963C296.395 212.126 299.199 210 302.408 210.217C305.617 210.433 308.015 212.909 307.766 215.747Z" fill="#FFC6C3"/>
<path d="M357.285 219.36C356.285 236.656 344.848 245.592 332.111 246.376C331.347 246.423 330.233 245.377 328.96 245.291C327.389 245.186 326.216 246.179 325.273 246.034C313.061 244.153 301.095 232.131 303.69 215.745C306.473 198.165 318.504 184.513 333.305 185.511C348.104 186.509 358.311 201.634 357.285 219.36Z" fill="#FFD0CE"/>
<path d="M350.949 184.556C345.032 179.931 329.197 175.384 313.712 185.189C297.865 195.224 301.213 214.133 304.335 213.551C305.306 213.371 310.162 210.135 312.096 206.09C312.566 205.105 314.1 201.307 314.1 201.307L311.032 210.598C311.032 210.598 314.868 208.691 317.031 204.493C318.34 201.953 319.835 195.963 319.835 195.963C319.835 195.963 344.579 218.458 357.424 216.886C358.664 216.734 358.583 215.617 360.053 210.801C363.834 198.412 355.789 188.339 350.949 184.556Z" fill="#00649F"/>
<path d="M318.66 177.895C317.346 174.695 315.917 171.321 316.385 167.867C317.189 161.924 322.683 160.942 327.26 157.895C327.952 157.434 327.531 156.398 326.609 156.628C317.139 158.988 309.673 171.351 317.89 178.309C318.214 178.583 318.82 178.286 318.66 177.895Z" fill="#00649F"/>
<path d="M319.005 179.488C316.601 176.421 314.104 172.843 313.914 168.995C313.568 161.942 320.651 159.401 326.875 157.153C327.323 156.991 327.137 156.429 326.657 156.518C320.096 157.743 314.003 161.472 313.003 167.62C312.375 171.479 314.205 178.085 318.501 179.951C318.821 180.09 319.231 179.775 319.005 179.488Z" fill="#00649F"/>
<path d="M319.509 194.557C321.399 206.649 338.366 214.795 351.127 216.147C351.884 216.227 352.47 215.318 351.66 214.962C339.105 209.45 325.542 207.427 320.01 194.487C319.916 194.268 319.469 194.292 319.509 194.557Z" fill="#00649F"/>
<path d="M315.75 265.05L330.541 271.474L349.67 263.849L362.311 358.099L311.616 364.814L315.75 265.05Z" fill="#DCF5F9"/>
<path d="M343.873 359.664L373.523 357.147C373.523 357.147 375.715 337.964 378.646 333.285C383.041 326.273 385.544 317.722 385.046 304.305C384.721 295.554 377.807 258.646 377.807 258.646L353.578 262.896L342.494 274.338C342.494 274.338 360.417 307.952 352.472 329.813C348.83 339.835 343.873 359.664 343.873 359.664Z" fill="#00ADD6"/>
<path d="M330.541 271.474L346.791 260.289C346.791 260.289 356.968 261.388 355.157 265.717C353.311 270.132 343.024 282.676 337.985 281.396C334.563 280.526 336.083 278.093 330.541 271.474Z" fill="#DCF5F9"/>
<path d="M419.262 422.829C426.011 417.695 410.023 395.014 405.902 389.843C394.982 376.143 371.606 356.775 371.606 356.775L295.595 362.378C295.595 362.378 274.666 373.969 263.942 400.441C262.734 403.422 256.203 417.635 255.088 420.604C255.088 420.604 345.182 479.181 419.262 422.829Z" fill="#0096C6"/>
<path d="M333.758 360.286L295.65 360.287C296.651 360.274 292.541 342.21 288.206 337.46C272.461 320.205 282.289 275.393 289.55 269.92C294.145 266.455 308.852 262.466 308.852 262.466L324.028 277.471C324.028 277.471 319.597 320.538 325.049 332.728C329.591 342.886 333.758 360.286 333.758 360.286Z" fill="#00ADD6"/>
<path d="M330.541 271.475L309.571 260.396C309.571 260.396 301.981 263.039 303.821 267.017C305.699 271.073 319.884 282.421 324.346 281.033C327.377 280.09 325.891 277.874 330.541 271.475Z" fill="#DCF5F9"/>
<path d="M293.956 363.385C293.956 363.385 317.3 363.965 328.018 364.047C345.104 364.176 376.064 360.562 376.064 360.562L374.116 352.593C374.116 352.593 351.696 356.368 336.103 356.368C324.919 356.368 295.096 355.271 295.096 355.271L293.956 363.385Z" fill="#EA659D"/>
<path d="M206.073 288.173C203.428 288.832 200.693 290.079 198.062 291.932C192.717 295.697 190.867 298.92 191.832 301.519C196.339 313.661 204.953 315.465 209.18 321.003C211.592 324.163 219.231 334.921 219.231 334.921C219.231 334.921 231.395 325.273 231.74 325.154C232.085 325.035 229.312 315.509 228.018 312.793C226.251 309.082 220.399 307.704 218.556 304.02C217.477 301.865 223.35 306.244 225.074 306.09C225.741 306.03 226.838 304.596 226.262 303.986C226.024 303.733 225.094 302.592 225.094 302.592C225.094 302.592 225.635 300.498 225.33 299.565C225.045 298.692 218.518 295.559 218.518 295.559L208.675 294.708L211.275 293.488L213.24 295.103L218.518 295.559C218.518 295.559 215.895 289.482 213.232 288.776C211.595 288.342 208.71 287.515 206.073 288.173Z" fill="#FFD0CE"/>
<path d="M215.177 333.646L210.101 327.528L230.199 317.352L235.191 322.469L215.177 333.646Z" fill="#AEDDF1"/>
<path d="M409.583 239.875L398.252 183.078L419.807 176.515L422.036 184.715L409.583 239.875Z" fill="#AEDDF1"/>
<path d="M268.242 283.658C258.442 295.564 249.976 331.567 249.976 331.567L233.342 317.607L211.718 332.441C211.718 332.441 225.91 353.387 236.193 359.581C255.609 371.277 265.606 368.292 269.862 367.025C273.416 365.968 274.915 353.156 285.576 333.964C288.291 329.074 290.992 269.029 290.992 269.029C290.992 269.029 275.895 274.362 268.242 283.658Z" fill="#00ADD6"/>
<path d="M365.166 260.863L404.586 237.114L398.636 186.185L422.847 179.462C422.847 179.462 427.845 190.193 429.719 196.069C441.737 233.759 438.938 240.642 435.426 250.283C433.539 255.463 384.893 302.162 384.893 302.162L365.166 260.863Z" fill="#00ADD6"/>
<path d="M753.986 633.306C743.22 643.165 727.127 644.986 718.041 637.373L489.768 447.411L528.751 411.711L757.024 601.673C766.111 609.285 764.751 623.448 753.986 633.306Z" fill="#58DBDB"/>
<path d="M520.277 412.585L489.691 440.594L427.423 388.433L458.008 360.425L520.277 412.585Z" fill="#DCF5F9"/>
<path d="M475.893 444.444L524.359 400.059C529.454 395.394 537.902 395.229 543.228 399.692C548.555 404.153 548.743 411.552 543.649 416.217L495.183 460.602C490.088 465.267 481.641 465.432 476.314 460.97C470.987 456.508 470.799 449.109 475.893 444.444Z" fill="#EA659D"/>
<path d="M552.841 460.01L727.79 605.656C729.195 606.826 731.419 606.777 732.755 605.546C734.091 604.315 734.035 602.368 732.629 601.197L557.681 455.55C556.275 454.381 554.052 454.43 552.716 455.661C551.379 456.892 551.436 458.839 552.841 460.01Z" fill="#B4F1F4"/>
<path d="M437.214 375.296C375.08 429.734 274.323 429.749 212.169 375.327C150.014 320.907 149.997 232.659 212.131 178.221C274.267 123.781 375.022 123.767 437.176 178.189C499.332 232.609 499.35 320.856 437.214 375.296ZM478.683 141.822C393.598 67.3244 255.669 67.3428 170.611 141.867C85.5531 216.389 85.5761 337.195 170.661 411.693C255.747 486.192 393.677 486.172 478.735 411.65C563.793 337.127 563.769 216.32 478.683 141.822Z" fill="#8CEAE7"/>
<path d="M324.673 429.43C280.074 429.428 235.469 414.529 201.435 384.731C133.352 325.118 133.334 228.452 201.394 168.822C235.435 138.997 280.052 124.087 324.673 124.087C369.272 124.087 413.875 138.986 447.909 168.785C515.992 228.397 516.012 325.063 447.949 384.696C413.91 414.519 369.294 429.43 324.673 429.43ZM165.541 276.781C165.548 312.45 181.091 348.117 212.168 375.327C243.242 402.535 283.953 416.134 324.673 416.134C365.403 416.134 406.143 402.518 437.214 375.296C468.282 348.076 483.811 312.404 483.804 276.735C483.797 241.065 468.254 205.399 437.176 178.189C429.612 171.565 421.475 165.747 412.906 160.736C403.852 155.442 394.318 151.048 384.462 147.554C365.33 140.772 345.005 137.382 324.672 137.382C283.942 137.382 243.202 150.998 212.131 178.221C204.133 185.228 197.166 192.794 191.228 200.777C188.716 204.153 186.387 207.607 184.244 211.121C181.678 215.329 179.376 219.628 177.338 224C169.47 240.875 165.538 258.828 165.541 276.781Z" fill="#64DADB"/>
<path d="M497.251 672.08C496.774 669.298 496.458 630.875 494.446 610.343C492.288 588.339 501.516 539.819 496.726 522.023C491.977 504.375 467.997 478.029 479.145 469.34C488.508 462.041 508.918 467.547 517.668 475.407C545.062 500.012 551.283 548.944 545.945 573.801C540.617 598.611 497.251 672.08 497.251 672.08Z" fill="#FFD0CE"/>
<path d="M467.4 736.163C467.4 736.163 478.04 711.077 492.898 666.628C499.025 648.295 539.819 514.773 539.819 514.773C539.819 514.773 558.072 471.412 569.607 459.634C584.935 443.982 614.462 435.58 626.387 448.952C633.336 456.746 637.87 472.041 637.87 472.041C637.87 472.041 669.393 461.672 679.001 475.691C682.004 480.073 688.535 494.347 688.535 494.347C688.535 494.347 697.05 495.174 699.903 495.268C709.171 495.576 718.001 500.103 720.516 507.923C722.167 513.056 725.776 528.751 725.776 528.751C725.776 528.751 749.833 530.979 748.418 561.138C747.794 574.448 744.557 590.087 743.421 595.387C738.685 617.472 703.413 668.292 665.833 708.529C651.025 724.383 642.121 746.743 642.121 746.743L467.4 736.163Z" fill="#FFD0CE"/>
<path d="M458.034 721.765L474.423 669.517L661.677 723.245L654.651 746.743L458.034 721.765Z" fill="#93E7F3"/>
<path d="M426.718 751.802L451.301 691.729L672.169 737.137L672.233 751.802H426.718Z" fill="#0096C6"/>
<path d="M156.107 481.499H159.068C159.29 480.197 159.873 478.353 161.391 476.955L161.46 476.894C162.014 476.407 163.801 474.644 163.499 472.388C163.104 469.441 160.627 467.461 157.332 467.461C154.023 467.461 151.33 469.774 151.33 472.619C151.33 474.13 152.031 475.617 153.161 476.498C155.017 477.946 155.788 480.076 156.107 481.499ZM160.691 484.575H154.572C153.636 484.575 152.865 483.933 152.818 483.114C152.766 482.308 152.306 479.951 150.825 478.795C148.941 477.324 147.818 475.016 147.818 472.619C147.818 468.079 152.086 464.385 157.332 464.385C162.414 464.385 166.385 467.529 166.987 472.029C167.471 475.65 164.792 478.323 163.95 479.062C162.686 480.226 162.437 482.308 162.447 483.013C162.453 483.423 162.27 483.823 161.94 484.115C161.61 484.408 161.16 484.575 160.691 484.575Z" fill="#DCF5F9"/>
<path d="M158.794 488.544H156.468C155.499 488.544 154.712 487.855 154.712 487.006C154.712 486.156 155.499 485.468 156.468 485.468H158.794C159.764 485.468 160.55 486.156 160.55 487.006C160.55 487.855 159.764 488.544 158.794 488.544Z" fill="#DCF5F9"/>
<path d="M157.683 479.828C156.713 479.828 155.927 479.14 155.927 478.29V475.343C155.927 474.494 156.713 473.805 157.683 473.805C158.653 473.805 159.439 474.494 159.439 475.343V478.29C159.439 479.14 158.653 479.828 157.683 479.828Z" fill="#DCF5F9"/>
<path d="M157.586 470.277C157.162 470.277 156.817 470.586 156.817 470.964C156.817 471.343 157.162 471.651 157.586 471.651C158.011 471.651 158.356 471.343 158.356 470.964C158.356 470.586 158.011 470.277 157.586 470.277ZM157.586 473.353C156.073 473.353 154.844 472.282 154.844 470.964C154.844 469.647 156.073 468.575 157.586 468.575C159.098 468.575 160.329 469.647 160.329 470.964C160.329 472.282 159.098 473.353 157.586 473.353Z" fill="#DCF5F9"/>
<path d="M149.272 465.68C148.826 465.68 148.381 465.533 148.039 465.237L145.611 463.142C144.921 462.546 144.913 461.572 145.594 460.967C146.274 460.362 147.386 460.354 148.077 460.951L150.504 463.046C151.195 463.642 151.203 464.616 150.522 465.221C150.179 465.527 149.725 465.68 149.272 465.68Z" fill="#DCF5F9"/>
<path d="M166.014 466.315C165.56 466.315 165.107 466.162 164.763 465.857C164.082 465.253 164.09 464.278 164.78 463.682L167.208 461.587C167.899 460.991 169.01 460.998 169.691 461.603C170.372 462.208 170.363 463.182 169.673 463.778L167.246 465.873C166.904 466.169 166.459 466.315 166.014 466.315Z" fill="#DCF5F9"/>
<path d="M170.022 471.312C169.132 471.312 168.369 470.722 168.277 469.931C168.179 469.085 168.881 468.33 169.846 468.244L173.236 467.941C174.199 467.858 175.062 468.47 175.162 469.315C175.26 470.16 174.558 470.915 173.593 471.001L170.203 471.304L170.022 471.312Z" fill="#DCF5F9"/>
<path d="M145.101 471.312L144.921 471.304L141.531 471.001C140.566 470.915 139.863 470.16 139.962 469.315C140.06 468.47 140.922 467.858 141.887 467.941L145.277 468.244C146.242 468.33 146.945 469.085 146.846 469.931C146.754 470.722 145.991 471.312 145.101 471.312Z" fill="#DCF5F9"/>
<path d="M157.683 463.216C156.713 463.216 155.927 462.527 155.927 461.678V458.59C155.927 457.74 156.713 457.052 157.683 457.052C158.653 457.052 159.439 457.74 159.439 458.59V461.678C159.439 462.527 158.653 463.216 157.683 463.216Z" fill="#DCF5F9"/>
<path d="M635.306 402.598V414.363L657.595 414.356C657.887 414.356 658.134 414.14 658.134 413.885C658.134 413.629 657.887 413.413 657.595 413.413C656.626 413.413 655.839 412.725 655.839 411.875C655.839 411.026 656.626 410.337 657.595 410.337H658.907C659.389 410.337 659.795 409.981 659.795 409.56C659.795 409.139 659.389 408.783 658.907 408.783C657.938 408.783 657.151 408.094 657.151 407.245C657.151 406.395 657.938 405.707 658.907 405.707H659.295C659.837 405.707 660.296 405.305 660.296 404.83C660.296 404.355 659.837 403.953 659.295 403.953H658.907C657.938 403.953 657.151 403.264 657.151 402.415C657.151 401.566 657.938 400.877 658.907 400.877C659.389 400.877 659.795 400.521 659.795 400.1C659.795 399.679 659.389 399.322 658.907 399.322L649.336 399.324C648.712 399.324 648.134 399.034 647.82 398.561C647.505 398.089 647.501 397.506 647.808 397.029C647.852 396.956 649.144 394.746 647.905 390.823C647.744 390.311 647.502 389.978 647.188 389.835C647.238 390.932 647.123 392.378 646.461 393.751C645.751 395.222 644.268 396.605 643.116 397.409C640.566 399.19 640.154 401.187 640.138 401.272C639.995 402.005 639.27 402.563 638.421 402.57L635.306 402.598ZM633.55 417.439C633.085 417.439 632.638 417.277 632.308 416.989C631.979 416.7 631.794 416.309 631.794 415.901V401.075C631.794 400.232 632.569 399.546 633.532 399.537L637.09 399.506C637.598 398.337 638.681 396.573 640.927 395.005C641.765 394.419 642.801 393.434 643.225 392.554C644.055 390.836 643.522 388.751 643.517 388.73C643.32 387.982 643.782 387.215 644.601 386.942C644.825 386.867 646.844 386.236 648.765 387.087C649.616 387.464 650.745 388.275 651.291 390.003C652.128 392.656 652.029 394.781 651.716 396.248L658.907 396.246C661.333 396.246 663.307 397.975 663.307 400.1C663.307 400.858 663.056 401.566 662.622 402.162C663.358 402.866 663.808 403.803 663.808 404.83C663.808 405.857 663.358 406.793 662.622 407.498C663.056 408.094 663.307 408.802 663.307 409.56C663.307 410.867 662.561 412.023 661.422 412.721C661.567 413.085 661.646 413.477 661.646 413.885C661.646 415.841 659.828 417.432 657.595 417.432L633.551 417.439H633.55Z" fill="#DCF5F9"/>
</svg>
