<svg width="10" height="36" viewBox="0 0 10 36" fill="none" xmlns="http://www.w3.org/2000/svg">
<path d="M9.37756 0.103997L8.41756 23.096H1.45756L0.497562 0.103997H9.37756ZM5.05756 35.384C3.61756 35.384 2.43356 34.968 1.50556 34.136C0.609562 33.272 0.161562 32.216 0.161562 30.968C0.161562 29.688 0.609562 28.616 1.50556 27.752C2.43356 26.888 3.61756 26.456 5.05756 26.456C6.46556 26.456 7.61756 26.888 8.51356 27.752C9.44156 28.616 9.90556 29.688 9.90556 30.968C9.90556 32.216 9.44156 33.272 8.51356 34.136C7.61756 34.968 6.46556 35.384 5.05756 35.384Z" fill="white"/>
</svg>
