<svg width="954" height="553" viewBox="0 0 954 553" fill="none" xmlns="http://www.w3.org/2000/svg">
<g clip-path="url(#clip0_464_1406)">
<path d="M47.3419 552.927C33.2138 551.669 21.3148 546.221 12.1695 536.822C6.41188 530.905 2.697 524.055 0.803449 515.863L0.138099 512.985V417.257C0.138099 314.165 0.0407313 320.786 1.64137 315.149C3.78316 307.608 8.64293 300.18 15.1673 294.476C22.4305 288.126 30.6864 284.184 41.3463 281.974L44.5653 281.307L153.149 281.224C273.114 281.133 265.144 281.033 271.995 282.72C290.192 287.2 303.881 299.529 308.649 315.733C310.003 320.333 309.917 314.13 310.028 415.335C310.102 483.404 310.042 510.628 309.807 512.473C307.642 529.603 294.893 543.991 276.394 550.182C273.772 551.059 270.815 551.785 266.847 552.527C264.864 552.897 254.359 552.94 156.51 552.977C97.0302 552.998 47.9045 552.977 47.3419 552.927L47.3419 552.927ZM264.375 529.648C269.005 528.619 272.556 526.943 275.954 524.184C279.305 521.463 281.988 517.627 283.286 513.699L283.946 511.704V416.873V322.042L282.988 319.637C281.005 314.656 278.214 311.302 273.424 308.148C270.729 306.374 268.039 305.286 263.924 304.307C262.129 303.88 256.265 303.851 157.241 303.772C81.9475 303.712 51.5525 303.769 49.2435 303.974C38.8365 304.895 30.6715 310.664 27.1187 319.607L26.1514 322.042V417.001V511.96L26.8427 513.882C29.8891 522.353 37.8333 528.623 47.2925 530.023C48.0431 530.134 96.5494 530.239 155.084 530.255L261.511 530.286L264.375 529.648ZM59.1243 498.086C59.0235 497.856 59.0187 490.246 59.114 481.174L59.2863 464.68L87.9463 431.166L116.606 397.651L116.683 389.193L116.76 380.734L126.333 380.667L135.905 380.599V389.061V397.522H155.045H174.186L174.263 389.128L174.34 380.735L183.912 380.667L193.485 380.6V389.095V397.59L221.788 430.683C237.355 448.884 250.312 464.074 250.58 464.439C251.026 465.043 251.062 466.558 250.994 481.739L250.918 498.376L155.113 498.441C66.6991 498.501 59.2941 498.473 59.125 498.087L59.1243 498.086ZM175.508 480.971C184.221 478.712 190.598 472.978 192.781 465.441C193.299 463.655 193.338 462.416 193.338 447.885C193.338 432.414 193.331 432.228 192.673 430.117C190.676 423.715 185.38 418.386 178.613 415.971C174.264 414.419 174.06 414.407 154.172 414.5C136.684 414.582 135.984 414.603 134.15 415.124C125.537 417.571 119.833 422.713 117.43 430.2C116.78 432.224 116.772 432.453 116.766 447.885C116.759 463.444 116.763 463.53 117.437 465.698C119.902 473.626 126.801 479.41 135.904 481.182C137.466 481.486 140.996 481.54 155.779 481.489C172.009 481.432 173.925 481.382 175.508 480.971ZM53.0415 397.339C47.8176 396.234 43.6724 393.44 41.6183 389.639C40.4197 387.421 40.0422 385.86 40.0384 383.105L40.0349 380.606H68.6731H97.3114L97.5137 381.311C97.7964 382.297 97.1566 386.907 96.5444 388.295C95.687 390.24 93.8457 392.587 92.1084 393.951C90.2441 395.415 87.1247 396.821 84.813 397.241C83.2807 397.519 54.3158 397.608 53.0416 397.339L53.0415 397.339ZM225.443 397.255C222.35 396.719 218.838 394.934 216.662 392.792C213.932 390.106 212.692 387.092 212.652 383.041L212.627 380.734L241.344 380.669L270.061 380.604V383.187C270.061 386.03 269.315 388.544 267.795 390.818C266.638 392.549 263.867 394.787 261.569 395.846C258.079 397.454 257.308 397.516 241.125 397.489C233.168 397.477 226.11 397.371 225.442 397.255L225.443 397.255ZM40.1645 375.713C40.1058 375.63 40.3071 374.938 40.6122 374.175C40.917 373.413 41.7675 370.854 42.5018 368.489C45.0778 360.191 47.2006 355.7 49.9299 352.774C52.4078 350.117 53.6131 349.651 65.3174 346.822C78.0026 343.756 90.8887 341.238 101.654 339.722C104.175 339.367 107.026 338.961 107.991 338.821C111.146 338.36 121.041 337.315 125.966 336.922C137.213 336.023 141.251 335.887 156.218 335.904C169.211 335.919 172.541 336.003 179.162 336.484C203.557 338.258 224.399 341.688 247.41 347.715C253.534 349.319 254.264 349.544 255.638 350.247C259.32 352.13 262.555 357.356 267.421 369.281C268.668 372.338 269.787 375.041 269.907 375.288C270.114 375.713 268.642 375.737 241.328 375.737H212.531L212.203 374.395C211.65 372.136 210.439 370.683 207.66 368.946C199.808 364.04 183.221 360.451 163.151 359.317C156.19 358.924 139.001 359.14 133.42 359.69C113.387 361.667 101.395 365.98 97.8944 372.47C97.4195 373.35 97.0288 374.301 97.0262 374.583C97.0158 375.775 98.1327 375.728 68.4163 375.798C52.9366 375.835 40.2234 375.795 40.1647 375.713L40.1645 375.713ZM367.101 552.825C355.804 551.763 344.751 547.168 336.544 540.121C327.892 532.692 322.638 523.345 321.219 512.857C320.979 511.08 320.916 484.741 320.987 415.335L321.085 320.248L321.87 317.325C322.985 313.176 323.96 310.705 325.899 307.12C333.546 292.983 348.91 283.264 366.516 281.426C368.547 281.214 398.358 281.157 477.584 281.213L585.875 281.29L589.09 281.888C611.917 286.135 628.512 302.187 630.735 322.17C630.973 324.308 631.034 350.912 630.957 419.051C630.862 503.46 630.805 513.193 630.389 515.036C628.193 524.767 623.826 532.329 616.571 538.966C608.682 546.184 599.577 550.451 587.629 552.531C585.521 552.898 574.634 552.942 477.292 552.985C417.892 553.009 368.306 552.938 367.101 552.825L367.101 552.825ZM586.021 529.57C594.903 527.191 601.325 521.649 604.051 514.01L604.874 511.704L604.957 418.026C605.013 353.586 604.943 323.855 604.733 322.768C603.526 316.541 599.559 311.275 593.283 307.571C590.677 306.033 588.935 305.353 585.145 304.397L582.953 303.844L478.169 303.767C404.624 303.712 372.452 303.773 370.256 303.966C357.681 305.079 348.191 313.413 346.921 324.46C346.706 326.337 346.638 355.344 346.703 419.051L346.795 510.935L347.406 512.857C348.81 517.276 350.623 520.143 353.948 523.206C357.526 526.502 362.07 528.815 366.809 529.753C369.235 530.233 371.781 530.243 476.561 530.201L583.829 530.157L586.021 529.57ZM464.139 514.472C454.079 513.739 444.627 511.502 436.226 507.864C431.466 505.803 430.196 505.139 425.583 502.3C410.406 492.962 399.773 478.645 396.581 463.249C395.827 459.616 395.663 451.499 396.278 448.253C397.858 439.907 401.717 432.283 407.426 426.228C409.518 424.008 419.07 412.729 422.837 408.03C428.494 400.973 431.582 396.692 433.741 392.916C435.552 389.747 435.722 389.189 436.081 385.21C436.475 380.83 437.156 378.339 438.723 375.543L439.909 373.428L475.918 373.493L511.927 373.558L512.874 375.096C514.539 377.8 515.267 380.286 515.722 384.832C516.001 387.608 516.335 389.441 516.731 390.368C518.947 395.551 530.357 410.418 542.876 424.434C546.829 428.859 549.034 431.831 550.929 435.285C553.891 440.688 555.306 445.26 555.907 451.378C556.78 460.267 554.223 470.651 548.985 479.487C537.261 499.268 514.145 512.641 488.691 514.369C485.458 514.588 466.812 514.666 464.139 514.472V514.472ZM447.263 466.851C452.843 458.284 455.793 453.949 455.976 454.048C456.086 454.107 457.54 456.579 459.207 459.54C460.875 462.501 462.312 464.925 462.402 464.926C462.492 464.929 462.811 464.439 463.113 463.84C465.525 459.041 469.096 452.506 469.287 452.541C469.499 452.58 470.902 455.508 474.882 464.224C475.639 465.88 476.33 467.236 476.418 467.236C476.606 467.236 476.592 467.267 479.77 459.877C481.117 456.746 482.346 453.985 482.501 453.742C482.734 453.376 482.962 453.607 483.819 455.078C484.388 456.056 485.518 457.951 486.329 459.29C487.139 460.63 488.295 462.559 488.897 463.577C489.499 464.596 490.069 465.345 490.164 465.243C490.26 465.141 490.78 464.192 491.321 463.135C493.9 458.095 496.342 453.855 496.546 454.062C496.671 454.189 497.606 455.446 498.626 456.855C500.575 459.549 504.548 464.934 506.19 467.108C506.844 467.973 507.102 468.181 506.983 467.748C506.887 467.396 505.762 462.725 504.484 457.368C503.205 452.011 500.369 440.132 498.181 430.969C495.993 421.806 493.986 413.346 493.721 412.168L493.24 410.026L491.939 410.183C491.223 410.269 490.602 410.37 490.559 410.408C490.515 410.446 490.797 411.801 491.183 413.418C491.57 415.036 492.752 419.993 493.81 424.434C494.869 428.874 496.33 434.987 497.058 438.018C499.807 449.467 501.212 455.573 501.116 455.657C501.025 455.737 499.103 453.21 497.007 450.256C496.533 449.587 496.064 449.039 495.966 449.039C495.869 449.039 495.259 450.048 494.612 451.281C491.973 456.313 490.034 459.803 489.878 459.801C489.788 459.801 488.07 457.039 486.06 453.666C484.051 450.292 482.322 447.612 482.219 447.709C482.116 447.806 481.437 449.269 480.711 450.961C477.2 459.138 476.619 460.457 476.45 460.624C476.276 460.795 475.717 459.654 471.342 450.198L469.447 446.102L467.732 449.3C466.789 451.059 465.233 454.023 464.274 455.886C463.316 457.749 462.446 459.277 462.343 459.282C462.239 459.288 460.812 456.955 459.172 454.1C457.532 451.246 456.155 448.878 456.111 448.837C456.068 448.797 454.865 450.547 453.438 452.726C452.011 454.905 450.801 456.651 450.75 456.606C450.646 456.515 451.331 453.512 455.664 435.07C461.223 411.411 461.345 410.86 461.057 410.626C460.903 410.501 460.314 410.327 459.747 410.239L458.716 410.079L456.586 419.115C455.415 424.084 453.42 432.59 452.154 438.018C450.887 443.445 449.194 450.655 448.391 454.039C447.589 457.424 446.455 462.268 445.872 464.804C445.289 467.34 444.737 469.703 444.646 470.055C444.373 471.113 444.938 470.42 447.263 466.851V466.851ZM490.883 369.19C481.881 368.87 471.161 368.484 467.062 368.333C462.962 368.181 455.564 367.918 450.621 367.748L441.633 367.438V365.82V364.203H443.371C445.343 364.203 490.679 365.752 508.201 366.418L512.658 366.587V368.215V369.842L509.954 369.807C508.467 369.789 499.885 369.511 490.883 369.19V369.19ZM501.551 360.984C490.631 360.571 473.545 359.973 458.074 359.463C451.684 359.253 445.371 359.012 444.044 358.928L441.633 358.775V357.107V355.438L444.921 355.601C448.124 355.759 483.973 357.007 500.674 357.542C505.256 357.689 509.833 357.873 510.845 357.952L512.685 358.095L512.598 359.675L512.512 361.255L511.489 361.288C510.926 361.307 506.454 361.169 501.551 360.984L501.551 360.984ZM506.666 353.673C500.52 353.445 475.195 352.565 459.462 352.033C453.434 351.829 446.956 351.588 445.067 351.497L441.633 351.332V349.694C441.633 348.257 441.701 348.056 442.188 348.056C442.492 348.056 447.524 348.227 453.368 348.437C473.825 349.169 493.299 349.838 502.282 350.118C507.265 350.273 511.645 350.453 512.014 350.518C512.639 350.627 512.68 350.744 512.599 352.209C512.551 353.074 512.381 353.802 512.22 353.825C512.059 353.849 509.56 353.78 506.666 353.673V353.673ZM505.936 345.828C504.046 345.731 491.219 345.281 462.458 344.303L441.633 343.594L441.633 341.917L441.633 340.239L454.42 340.665C466.424 341.064 475.722 341.39 501.111 342.298C506.897 342.505 511.863 342.674 512.145 342.674C512.582 342.674 512.658 342.922 512.658 344.34V346.006L510.101 345.958C508.694 345.931 506.82 345.874 505.936 345.828ZM509.881 337.623C508.756 337.582 497.708 337.199 485.329 336.773C472.951 336.346 458.179 335.827 452.503 335.619C446.826 335.411 442.058 335.241 441.907 335.241C441.756 335.241 441.633 334.492 441.633 333.575V331.909L442.729 331.921C443.332 331.927 447.902 332.088 452.886 332.276C457.869 332.464 462.03 332.575 462.132 332.523C462.233 332.471 462.408 331.789 462.519 331.006C462.836 328.782 464.745 325.696 467.039 323.701C470.196 320.954 473.848 319.607 478.138 319.607C486.735 319.607 493.466 325.042 494.326 332.678L494.427 333.575L496.454 333.736C497.57 333.824 501.507 333.99 505.205 334.105C508.902 334.22 512.059 334.321 512.22 334.329C512.382 334.339 512.512 335.073 512.512 335.989C512.512 336.893 512.38 337.648 512.22 337.666C512.059 337.684 511.007 337.663 509.881 337.623V337.623ZM689.928 552.799C675.242 551.334 661.892 544.355 653.332 533.666C648.937 528.178 646.192 522.465 644.568 515.42C644.099 513.388 644.059 506.881 643.975 418.539C643.876 314.348 643.768 321.048 645.64 314.865C650.07 300.235 662.85 288.276 679.158 283.499C681.063 282.941 684.068 282.216 685.836 281.888L689.051 281.29L797.05 281.21C877.599 281.15 905.829 281.207 908.118 281.427C914.311 282.028 919.822 283.48 925.444 285.994C932.015 288.932 937.227 292.525 941.677 297.183C944.871 300.527 946.655 302.922 948.742 306.664C950.711 310.194 951.389 311.794 952.432 315.378C954.08 321.042 953.995 315.523 954 417.129C954.003 508.548 953.99 511.019 953.439 514.267C951.507 525.661 944.849 535.779 934.424 543.168C927.86 547.82 919.723 551.029 910.749 552.505C908.12 552.937 902.223 552.963 800.119 552.997C736.96 553.018 691.298 552.936 689.928 552.799V552.799ZM907.473 529.884C911.952 529.085 916.223 527.113 919.831 524.18C923.442 521.244 925.991 517.491 927.436 512.985C927.786 511.895 927.847 497.584 927.847 416.873V322.042L926.85 319.514C925.136 315.173 922.351 311.634 918.547 308.965C914.962 306.449 911.119 304.876 906.878 304.188C903.722 303.677 693.773 303.677 690.951 304.188C680.345 306.111 672.552 312.84 670.331 321.994C669.965 323.502 669.907 336.5 669.907 416.99C669.907 501.494 669.951 510.427 670.375 512.252C671.386 516.603 674.138 520.942 677.814 523.983C681.917 527.377 685.456 528.91 691.974 530.117C692.296 530.177 740.408 530.239 798.889 530.255C894.37 530.282 905.45 530.243 907.473 529.883V529.884ZM871.875 520.829C866.365 519.511 862.976 516.532 862.204 512.33C861.368 507.775 863.68 503.189 873.985 488.957C875.593 486.737 876.992 484.924 877.095 484.928C877.673 484.953 887.907 498.862 889.913 502.349C891.741 505.525 892.189 507.062 892.189 510.166C892.189 512.729 892.112 513.13 891.35 514.577C890.354 516.469 887.924 518.622 885.642 519.636C881.928 521.286 875.949 521.805 871.875 520.829ZM882.982 469.529C876.793 469.436 868.737 469.342 865.079 469.322L858.43 469.286V464.691C858.43 457.222 857.748 454.538 855.524 453.247C853.329 451.973 851.722 451.867 834.536 451.862L818.679 451.859V454.153C818.679 457.185 818.287 458.731 816.871 461.278C814.746 465.1 810.443 467.996 805.548 468.899C802.329 469.493 755.989 469.477 752.684 468.881C746.821 467.824 741.951 463.903 740.135 458.779C739.91 458.145 739.649 456.328 739.555 454.742L739.384 451.859H719.698H700.012V434.43V417.002H719.741H739.471L739.474 415.016C739.491 407.839 744.111 402.185 751.599 400.173C753.244 399.731 754.935 399.702 779.073 399.702H804.794L806.84 400.27C811.312 401.513 815.039 404.29 817.001 407.842C818.28 410.158 818.678 411.786 818.678 414.7V416.987L850.464 417.062C882.068 417.136 882.262 417.14 884.484 417.692C887.922 418.548 890.078 419.629 892.459 421.692C894.048 423.069 894.854 424.026 895.632 425.46C897.815 429.488 897.704 428.23 897.811 450.129L897.908 469.8L896.07 469.75C895.06 469.723 889.17 469.624 882.98 469.53L882.982 469.529ZM769.353 382.464L769.43 373.814L779.294 373.747L789.159 373.679V382.397V391.115H779.217H769.276L769.353 382.464ZM825.64 369.292C821.912 368.823 819.154 366.124 818.776 362.575L818.595 360.871H808.885H799.176L799.026 362.51C798.937 363.488 798.598 364.637 798.186 365.36C797.325 366.873 795.14 368.623 793.612 369.024C792.788 369.241 788.564 369.328 779.041 369.326L765.63 369.324L764.168 368.717C761.433 367.581 759.804 365.412 759.449 362.433L759.263 360.871H749.406H739.549L739.407 362.601C739.237 364.684 738.457 366.141 736.762 367.541C734.599 369.327 734.575 369.33 719.47 369.323C707.069 369.317 705.912 369.281 704.835 368.85C703.184 368.19 701.883 367.16 700.956 365.778L700.158 364.587L700.075 352.457L699.991 340.327L700.695 339.001C701.567 337.361 702.967 336.097 704.689 335.394C705.965 334.872 706.41 334.857 719.742 334.857H733.479L734.981 335.551C737.809 336.859 739.471 339.275 739.471 342.079V343.443H749.366H759.262L759.442 341.743C759.745 338.9 761.354 336.723 764.103 335.435C765.335 334.858 765.371 334.857 779.221 334.857H793.105L794.67 335.617C795.531 336.035 796.619 336.785 797.087 337.283C798.226 338.493 799.097 340.611 799.097 342.171V343.443H808.846H818.595L818.778 341.725C819.113 338.578 821.052 336.213 824.166 335.153C825.261 334.78 827.005 334.728 838.404 334.728C850.634 334.728 851.484 334.759 852.939 335.236C855.08 335.939 856.495 337.045 857.462 338.77L858.284 340.239V352.157V364.075L857.499 365.379C856.592 366.886 855.032 368.177 853.309 368.845C852.213 369.27 850.955 369.32 839.525 369.385C832.607 369.425 826.359 369.382 825.64 369.292L825.64 369.292ZM769.283 321.401V312.687H779.221H789.159V321.401V330.115H779.221H769.283V321.401ZM45.8806 271.77C34.8724 270.287 26.67 267.186 18.819 261.537C10.2693 255.387 4.20209 246.936 1.44636 237.34C-0.0619986 232.088 0.00359073 236.675 3.49938e-05 136.224C-0.00213988 73.9001 0.0970652 41.9084 0.296601 40.3785C1.15654 33.7962 3.74132 27.2091 7.61445 21.7299C16.2 9.58414 30.7748 1.5941 46.7573 0.271501C49.5117 0.0435552 76.7722 -0.00729617 157.533 0.0647504C274.372 0.168885 264.879 0.0465967 271.523 1.53738C285.299 4.62872 297.873 13.5187 304.358 24.7509C306.782 28.9512 308.017 32.0589 309.289 37.1644L309.959 39.8556V135.712C309.959 237.828 310.032 232.363 308.602 237.463C304.922 250.584 294.336 261.88 280.292 267.67C276.523 269.224 273.003 270.274 268.78 271.103L265.24 271.798L155.925 271.833C95.8025 271.851 46.2823 271.824 45.8804 271.77L45.8806 271.77ZM263.924 248.789C274.274 246.33 281.16 240.296 283.508 231.627C284.093 229.466 284.096 228.905 284.021 135.295L283.946 41.137L283.291 39.3522C280.238 31.0301 273.69 25.5206 264.396 23.4533L261.511 22.8116L155.523 22.8176C88.4471 22.8207 48.8128 22.9142 47.5691 23.0719C42.3731 23.7309 37.0111 26.2211 33.1254 29.78C29.8318 32.7965 27.7035 36.2235 26.5867 40.3084C26.0174 42.3906 26.0095 43.6986 26.0125 135.969C26.015 214.63 26.0798 229.785 26.4198 231.191C28.7475 240.818 38.018 248.149 49.0958 249.121C50.3015 249.227 98.7037 249.297 156.656 249.277C256.274 249.243 262.128 249.217 263.925 248.79L263.924 248.789ZM99.7678 230.831C80.6359 222.666 69.3178 206.933 66.3712 184.409C65.1159 174.813 65.3227 167.226 67.101 157.625C69.7772 143.177 76.2001 128.194 87.3159 110.466C90.0528 106.101 89.9616 106.233 90.1443 106.393C90.2672 106.501 90.7754 111.17 91.4805 118.668C92.5028 129.54 95.0121 135.42 100.219 139.146L101.509 140.069L101.327 138.659C100.288 130.583 100.318 115.651 101.386 108.8C103.106 97.7668 105.679 89.6924 110.304 80.8118C118.855 64.3931 133.936 50.731 153.773 41.4325L156.881 39.9755L157.34 40.9808C158.973 44.5599 158.724 48.352 156.259 57.412C153.478 67.6394 153.192 72.6904 155.093 78.005C157.118 83.6654 160.368 87.4996 167.904 93.1209C169.997 94.6819 171.775 96.0237 171.855 96.1027C171.935 96.1817 173.119 97.0981 174.486 98.1392C178.262 101.016 182.703 104.79 186.856 108.649C208.345 128.619 216.559 148.701 213.507 173.805C213.278 175.69 212.953 177.854 212.786 178.613C212.245 181.074 212.352 181.228 213.692 179.923C215.424 178.238 217.34 175.59 218.761 172.917C222.149 166.548 223.44 157.871 222.759 146.059C222.443 140.569 221.467 130.033 221.119 128.343C220.944 127.496 221.229 127.45 221.865 128.223C222.122 128.536 223.423 130.115 224.755 131.732C235.36 144.606 241.243 155.022 243.576 165.058C244.643 169.647 244.72 176.249 243.76 180.692C242.015 188.762 237.197 197.453 229.366 206.654C227.685 208.63 221.917 215.013 221.56 215.293C221.47 215.363 220.542 216.286 219.497 217.343C216.404 220.472 210.895 225.798 207.833 228.62L206.304 230.03L208.687 225.826C212.231 219.572 214.663 214.043 216.171 208.813C217.136 205.466 218.033 200.024 218.034 197.507L218.036 195.484L216.063 195.645C209.635 196.172 203.863 199.021 194.966 206.059C193.37 207.322 192.285 208.025 192.389 207.729C192.488 207.449 192.921 206.412 193.35 205.425C193.78 204.438 194.561 202.362 195.085 200.812C201.778 181.003 197.709 163.435 182.261 145.451C175.925 138.073 166.22 129.168 151.833 117.528C143.739 110.979 142.246 109.311 141.44 105.909C141.085 104.409 141.211 98.8855 141.629 97.6755C141.838 97.0677 141.817 97.0712 140.023 97.9319C130.418 102.54 123.265 111.365 119.805 122.876C118.043 128.737 117.652 132.028 117.658 140.966C117.662 147.807 117.761 149.669 118.3 153.169C119.873 163.372 122.706 173.104 126.603 181.695C127.397 183.444 128.246 185.214 128.489 185.627C128.733 186.04 128.871 186.433 128.795 186.499C128.719 186.565 127.565 186.138 126.229 185.549C115.377 180.764 102.464 170.194 98.1787 162.586L96.8079 160.153L95.9312 162.285C88.2534 180.959 86.7942 197.867 91.6071 212.39C93.7479 218.849 97.1228 225.099 101.301 230.341C102.008 231.227 102.543 231.952 102.49 231.952C102.438 231.952 101.213 231.448 99.7678 230.831L99.7678 230.831ZM189.715 182.164C188.216 179.835 180.932 170.408 177.894 166.865C168.899 156.377 161.655 150.064 147.067 140.005C141.493 136.16 139.526 136.98 136.661 144.339C135.422 147.521 134.628 150.593 134.135 154.113C133.686 157.314 133.927 167.934 134.561 172.857C134.814 174.82 134.96 176.48 134.885 176.545C134.6 176.795 131.476 174.468 130.383 173.191C129.076 171.664 127.708 169.364 127.001 167.506C123.375 157.977 125.641 141.044 132.565 125.912C134.951 120.699 138.521 114.973 139.262 115.171C139.42 115.213 140.952 117.162 142.666 119.502C144.38 121.841 146.568 124.657 147.529 125.761C150.14 128.758 156.333 134.2 164.548 140.714C169.63 144.745 175.856 150.305 178.326 153.021C185.011 160.37 188.755 168.033 190.092 177.104C190.599 180.543 190.814 183.256 190.58 183.253C190.489 183.252 190.1 182.762 189.715 182.164H189.715ZM367.101 271.759C364.822 271.548 359.585 270.588 357.35 269.97C349.141 267.702 342.443 264.133 336.265 258.736C328.64 252.074 324.166 244.811 321.727 235.134L321.087 232.593L320.995 137.249C320.914 52.5244 320.954 41.6062 321.354 39.2148C322.728 30.9871 325.896 24.4175 331.739 17.6819C333.592 15.5456 337.161 12.2829 339.626 10.4708C345.967 5.81064 354.666 2.2556 363.447 0.735996L366.955 0.129025H475.538C592.473 0.129025 585.8 0.0527292 592.013 1.46212C601.195 3.5449 608.827 7.40435 615.702 13.4403C620.26 17.4425 622.705 20.3984 625.467 25.2464C627.629 29.0423 628.336 30.6424 629.318 33.9606C630.969 39.5419 630.843 31.8751 630.956 134.046C631.029 200.113 630.967 228.848 630.744 230.907C628.675 250.055 612.673 266.211 591.274 270.756C585.468 271.99 591.029 271.935 475.83 271.893C416.592 271.871 367.663 271.811 367.101 271.758L367.101 271.759ZM581.85 249.105C588.087 248.495 593.18 246.365 597.548 242.539C600.4 240.041 603.044 236.065 604.333 232.337C604.843 230.864 604.869 226.835 604.958 137.249C605.027 67.0554 604.965 43.2201 604.71 41.7778C603.905 37.2254 601.331 32.8619 597.444 29.4583C594.702 27.0581 592.003 25.5079 588.473 24.3058C583.771 22.7048 591.818 22.8116 475.824 22.8116C381.935 22.8116 369.524 22.8564 367.631 23.2022C356.504 25.2353 348.332 33.0348 346.962 42.9311C346.516 46.1537 346.509 225.552 346.955 229.059C348.276 239.446 357.789 247.904 369.49 249.096C372.796 249.433 578.409 249.441 581.85 249.105L581.85 249.105ZM561.271 230.467C559.222 229.825 557.884 228.982 556.628 227.539C554.482 225.075 554.455 224.905 554.455 214.137V204.528H564.392H574.33L574.327 213.819C574.323 225.193 574.167 225.918 571.206 228.402C568.516 230.66 564.531 231.488 561.271 230.467ZM374.7 230.148C368.549 228.761 363.291 225.016 360.501 220.034C357.998 215.565 358.186 218.886 358.186 179.026V143.657L358.848 141.655C359.211 140.555 359.842 139.078 360.249 138.374L360.988 137.094L363.387 138.829C365.677 140.487 372.869 145.786 374.408 146.951C374.81 147.255 377.506 149.237 380.4 151.355C383.293 153.474 385.989 155.454 386.391 155.756C387.121 156.305 398.585 164.732 399.69 165.532C400.012 165.765 401.656 166.977 403.344 168.225C407.009 170.936 406.254 170.38 414.263 176.265C417.822 178.881 423.883 183.34 427.732 186.175C431.58 189.01 436.385 192.54 438.409 194.02C440.434 195.5 443.072 197.445 444.273 198.343C445.473 199.24 446.719 200.164 447.04 200.397C449.531 202.198 454.668 205.96 454.786 206.07C454.866 206.144 455.72 206.78 456.684 207.481C457.647 208.183 458.581 208.873 458.76 209.013C458.938 209.155 459.724 209.731 460.506 210.295C461.289 210.859 463.79 212.704 466.064 214.396C468.339 216.087 472.354 219.046 474.988 220.97C477.621 222.894 480.058 224.682 480.403 224.943C480.747 225.203 481.827 225.992 482.803 226.695C483.778 227.398 484.483 228.053 484.368 228.151C483.785 228.647 480.858 229.719 478.866 230.166C476.667 230.659 475.442 230.67 426.753 230.657C378.488 230.642 376.822 230.626 374.7 230.148ZM493.053 214.064C491.996 213.26 489.3 211.257 487.061 209.614C484.823 207.971 479.965 204.395 476.266 201.669C472.567 198.942 468.424 195.904 467.059 194.917C465.694 193.93 464.183 192.819 463.701 192.448C463.218 192.077 461.771 191 460.485 190.055C459.199 189.111 457.862 188.125 457.513 187.866C454.03 185.279 445.997 179.375 445.138 178.77C444.537 178.347 442.023 176.508 439.551 174.683C437.079 172.857 432.229 169.286 428.773 166.747C425.316 164.208 421.628 161.492 420.576 160.711C419.525 159.93 418.012 158.813 417.215 158.229C416.418 157.645 413.916 155.799 411.654 154.128C409.393 152.457 406.907 150.628 406.131 150.064C405.354 149.501 404.573 148.924 404.396 148.783C404.218 148.642 402.1 147.08 399.69 145.312C397.279 143.544 393.267 140.598 390.776 138.765C388.284 136.933 384.207 133.94 381.715 132.115C376.014 127.94 376.013 127.939 376.28 127.705C376.402 127.598 399.213 127.51 426.97 127.51H477.438L480.326 128.387C487.794 130.653 492.937 135.552 495.014 142.375C495.534 144.086 495.559 145.798 495.554 179.154C495.55 201.358 495.443 214.393 495.261 214.833L494.975 215.526L493.053 214.064ZM515.289 189.923V183.512H530.195C543.247 183.512 545.103 183.464 545.11 183.127C545.114 182.916 545.117 181.128 545.117 179.155C545.117 177.181 545.114 175.393 545.11 175.182C545.104 174.845 543.247 174.797 530.195 174.797H515.289V170.44V166.083H530.195H545.102V161.854V157.625H530.195H515.289V151.09V144.554H548.848C571.759 144.554 582.952 144.642 584.125 144.833C588.542 145.549 591.617 148.02 593.246 152.164C593.672 153.246 593.744 155.302 593.84 169.031C593.911 179.225 593.84 185.376 593.636 186.707C593.034 190.644 590.605 193.784 586.935 195.368L585.011 196.198L550.15 196.267L515.289 196.335V189.923ZM571.434 178.567C572.35 178.149 572.913 177.651 573.38 176.846C574.001 175.778 574.038 175.408 574.038 170.296C574.038 165.099 574.01 164.843 573.38 164.03C571.835 162.039 570.636 161.738 564.246 161.738C557.714 161.738 556.501 162.063 555.117 164.185C554.503 165.126 554.464 165.484 554.461 170.184C554.458 172.933 554.587 175.591 554.746 176.09C555.086 177.164 556.647 178.574 557.843 178.888C558.31 179.01 561.27 179.12 564.419 179.133C569.847 179.154 570.213 179.123 571.434 178.567L571.434 178.567ZM573.322 141.158C573.235 140.7 572.579 135.248 571.863 129.042C570.34 115.841 570.278 115.619 567.445 113.134C564.439 110.498 567.808 110.685 525.08 110.774L488.252 110.851L486.883 111.406C484.807 112.247 484.307 113.3 484.307 116.824V119.615L481.192 119.782C479.479 119.874 477.572 119.949 476.954 119.949H475.83L475.833 117.322C475.836 113.806 476.22 111.942 477.344 109.996C478.899 107.305 482.006 105.339 485.486 104.844C488.281 104.447 566.879 104.469 568.721 104.868C572.385 105.662 576.379 109.28 577.588 112.901C577.73 113.324 578.169 115.573 578.565 117.899C578.961 120.225 580.01 126.338 580.896 131.483C581.783 136.628 582.509 141.097 582.511 141.414C582.515 141.988 582.487 141.991 577.998 141.991H573.481L573.323 141.158L573.322 141.158ZM422.635 123.103C420.166 122.871 416.684 122.196 414.136 121.455C399.498 117.198 388.754 105.946 386.531 92.5438C386.193 90.5014 386.102 88.0979 386.164 82.7858L386.245 75.7375H426.873H467.5L467.479 83.5546C467.459 91.9752 467.26 93.5931 465.695 98.1637C464.779 100.838 462.338 105.205 460.282 107.849C456.898 112.201 450.447 117.109 444.956 119.508C438.202 122.459 429.943 123.789 422.634 123.103H422.635ZM515.382 91.1796C516.005 84.7267 521.664 78.5528 528.734 76.6121C536.729 74.4173 545.401 76.7371 550.263 82.3713C552.715 85.2131 554.434 89.198 554.45 92.0766L554.453 93.0378H534.827H515.201L515.381 91.1796H515.382ZM514.133 74.9827C513.404 74.2132 513.918 73.463 516.019 72.2296C524.795 67.0777 534.093 65.6753 543.576 68.0734C546.562 68.8285 551.323 70.7635 554.016 72.3161C555.592 73.2245 555.916 73.5318 555.916 74.1169C555.916 75.5836 553.925 75.7524 551.725 74.472C549.884 73.4004 546.115 71.732 543.932 71.0228C535.395 68.2478 526.581 69.4507 517.919 74.573C516.476 75.4266 514.732 75.6154 514.133 74.9827ZM386.907 69.5828C384.15 68.6948 381.193 66.1653 379.554 63.2921C378.224 60.9608 377.877 59.3601 377.978 56.026L378.061 53.2711L381.861 52.4148C390.444 50.4807 398.159 47.1611 404.571 42.6442L406.528 41.2652H425.708H444.889L446.111 41.9972C454.237 46.8662 462.747 49.9251 475.027 52.3907L475.83 52.5521V55.3439C475.83 56.8795 475.636 59.0258 475.399 60.1135C474.55 64.0014 471.502 68.2558 468.717 69.438C467.464 69.9697 467.386 69.9707 427.73 69.9526C394.813 69.9375 387.812 69.8743 386.907 69.5827L386.907 69.5828ZM497.29 66.0457C496.634 65.5506 496.556 65.3669 496.82 64.934C497.204 64.3044 506.092 60.3941 510.059 59.1094C523.716 54.6863 537.4 53.9675 551.24 56.946C557.968 58.3941 562.428 59.8559 569.215 62.8379C572.703 64.3704 572.869 64.4798 572.869 65.2516C572.869 66.6769 570.294 66.7757 567.465 65.4589C559.801 61.8926 551.103 59.3207 543.139 58.2659C538.816 57.6934 530.234 57.7062 525.967 58.2902C517.757 59.4161 510.197 61.8003 500.821 66.221C499.567 66.812 498.218 66.7445 497.29 66.0445V66.0457ZM688.183 271.528C667.291 268.682 650.375 255.213 645.397 237.463C643.967 232.363 644.04 237.81 644.04 135.968C644.04 45.2296 644.067 40.2443 644.562 37.9333C647.009 26.5315 653.659 16.7499 663.736 9.73C669.072 6.01259 676.557 2.7955 683.066 1.42175C690.199 -0.0839054 683.297 0.000868387 798.724 0.000868387C871.787 0.000868387 905.514 0.0856336 907.472 0.274226C924.603 1.92455 939.116 10.3896 947.65 23.7086C950.226 27.7275 952.223 32.655 953.343 37.7573C953.833 39.9836 953.861 45.3218 953.861 135.84C953.861 238.932 953.958 232.311 952.357 237.947C949.881 246.667 943.726 255.254 935.757 261.107C931.822 263.998 929.106 265.547 924.632 267.454C919.298 269.728 915.059 270.851 909.16 271.554C904.506 272.109 692.258 272.083 688.183 271.527V271.528ZM907.918 248.794C912.751 247.733 917.272 245.457 920.781 242.32C923.422 239.959 925.422 237.085 926.789 233.686L927.847 231.055V135.968V40.8807L927.028 38.8303C923.918 31.0448 917.762 25.7844 909.141 23.5467L906.803 22.9397H798.95C695.13 22.9397 691.026 22.9579 689.198 23.411C679.654 25.7785 672.299 32.574 670.37 40.8058C669.952 42.5872 669.907 51.9473 669.907 136.069C669.907 238.477 669.769 230.688 671.652 234.968C673.284 238.679 676.568 242.358 680.575 244.964C684.164 247.297 688.322 248.672 693.436 249.214C693.918 249.265 741.926 249.29 800.119 249.269C898.784 249.233 906.061 249.201 907.918 248.794V248.794ZM729.584 215.484C728.458 215.009 727.779 213.498 727.779 211.47V209.677L726.683 209.516C724.077 209.133 721.174 207.993 719.1 206.54C717.397 205.348 715.166 202.835 714.372 201.216C712.822 198.058 712.883 200.29 712.878 146.412L712.871 96.3697H708.483H704.096L704.172 85.6691L704.249 74.9686L708.821 74.8981L713.393 74.8275L713.573 74.0009C713.862 72.6736 715.098 70.5641 716.509 68.9886C718.8 66.4316 722.058 64.6401 725.743 63.9104L727.777 63.5074L727.794 61.2926C727.815 58.5487 728.216 57.4742 729.502 56.7159C730.658 56.034 731.565 55.9795 732.852 56.5146C734.364 57.1441 734.632 57.7557 734.793 60.9549L734.939 63.8573L736.644 64.3612C739.502 65.2057 742.041 66.8333 744.179 69.1905C745.994 71.1918 746.863 73.0612 747.349 76.0115C747.536 77.1473 747.644 95.413 747.647 126.677L747.654 175.566H751.746H755.838V186.331V197.095H751.638H747.438L747.105 198.569C746.06 203.186 742.027 207.154 736.62 208.882L734.794 209.466V211.495C734.794 213.822 734.346 214.828 733.05 215.416C732.057 215.866 730.56 215.896 729.584 215.484L729.584 215.484ZM776.39 215.321C775.072 214.595 774.837 214.058 774.837 211.775V209.761L772.755 209.333C771.61 209.097 769.82 208.554 768.776 208.126C766.306 207.112 763.004 204.259 761.722 202.031C759.806 198.701 759.93 202.539 759.93 146.935V96.3697H755.546H751.162V85.6051V74.8405H755.639H760.116L760.642 73.3769C761.817 70.1072 765.412 66.472 768.877 65.0505C769.865 64.645 771.61 64.1204 772.755 63.8848L774.837 63.4564V60.7251C774.837 58.3748 774.919 57.9022 775.426 57.3371C776.264 56.4032 777.84 55.9937 779.211 56.354C781.145 56.862 781.395 57.3333 781.559 60.7852L781.705 63.8494L783.605 64.4148C788.257 65.7992 791.589 68.8275 793.652 73.5467L794.274 74.9686L794.351 125.267L794.428 175.566L798.589 175.566L802.75 175.566L802.67 186.324L802.591 197.082L798.468 197.153L794.346 197.224L793.85 198.897C792.497 203.46 788.305 207.471 783.392 208.905L781.559 209.44V211.722C781.559 213.855 781.506 214.055 780.746 214.802C779.673 215.854 777.77 216.081 776.39 215.321L776.39 215.321ZM820.544 215.315C819.4 214.702 818.972 213.643 818.972 211.42V209.676L817.876 209.52C812.939 208.819 808.346 205.928 806.072 202.091C803.914 198.45 804.065 202.632 804.065 146.651V96.3683H799.681H795.297V85.6102V74.8521L799.868 74.7816L804.44 74.7111L804.79 73.6859C806.427 68.8929 811.177 65.0592 816.951 63.8709L818.972 63.4551V61.0097C818.972 58.2503 819.431 57.2329 820.989 56.5262C822.152 55.9989 823.014 56.0271 824.14 56.6292C825.54 57.378 825.814 58.0399 825.98 61.0837L826.132 63.8596L827.664 64.3317C831.189 65.4182 834.383 67.7257 836.354 70.6103C838.593 73.8856 838.391 68.884 838.554 125.074L838.7 175.437L842.865 175.508L847.03 175.579V186.337V197.094H842.812H838.595L838.26 198.507C837.193 203.016 832.826 207.293 827.664 208.883L826.131 209.355L825.977 211.619C825.81 214.075 825.36 214.992 824.068 215.508C822.977 215.944 821.577 215.867 820.543 215.315L820.544 215.315ZM867.566 215.54C866.342 215.109 865.739 213.826 865.738 211.651V209.676L864.642 209.52C858.209 208.601 852.943 204.411 851.263 198.877C850.899 197.677 850.838 190.293 850.835 146.924L850.832 96.3684H846.447H842.063V85.6038V74.8392H846.573H851.083L851.533 73.4936C853.068 68.903 858.396 64.7326 863.911 63.8032L865.738 63.4953V60.9529C865.738 59.2285 865.875 58.1784 866.164 57.6889C866.728 56.7322 868.425 56.0335 869.683 56.2403C871.867 56.5996 872.876 58.1707 872.724 60.9768C872.575 63.7178 872.655 63.9934 873.647 64.1673C877.084 64.7701 881.557 68.0054 883.407 71.2257C885.444 74.7729 885.312 70.9969 885.317 125.907L885.32 175.565H889.558H893.797V186.33V197.094H889.45H885.103L884.912 198.359C884.662 200.012 882.768 203.286 881.1 204.947C879.506 206.536 877.193 207.924 874.892 208.673C872.87 209.33 872.613 209.505 872.583 210.244C872.569 210.553 872.537 211.539 872.51 212.434C872.464 213.916 872.371 214.139 871.466 214.933C870.668 215.632 870.251 215.801 869.347 215.788C868.728 215.779 867.927 215.668 867.566 215.541L867.566 215.54Z" fill="#3498DB"/>
</g>
<defs>
<clipPath id="clip0_464_1406">
<rect width="954" height="553" fill="white"/>
</clipPath>
</defs>
</svg>
