<svg width="1283" height="690" viewBox="0 0 1283 690" fill="none" xmlns="http://www.w3.org/2000/svg">
<path d="M1050.83 498.42L712.657 673.892C704.212 678.274 694.63 680.584 684.883 680.584C675.13 680.584 665.554 678.274 657.108 673.892L189.498 431.263C186.088 429.486 183.258 426.935 181.29 423.866C179.322 420.796 178.286 417.315 178.286 413.773C178.286 410.23 179.322 406.749 181.29 403.68C183.258 400.61 186.088 398.059 189.498 396.282L536.688 215.193C541.123 212.885 546.16 211.67 551.284 211.67C556.414 211.67 561.451 212.885 565.886 215.193L1050.81 466.84C1053.89 468.44 1056.44 470.74 1058.22 473.512C1060 476.284 1060.94 479.423 1060.94 482.623C1060.94 485.822 1060.01 488.962 1058.23 491.734C1056.46 494.506 1053.91 496.811 1050.83 498.42Z" fill="#A99EFF"/>
<path d="M259.152 470.308L323.068 440.208L377.679 432.861L413.503 447.328L316.657 500.154L259.152 470.308Z" fill="#6C6AEF"/>
<path d="M385.65 547.84L466.336 512.703L515.158 501.888L561.467 514.938L443.156 577.686L385.65 547.84Z" fill="#6C6AEF"/>
<path d="M504.191 608.695L595.133 566.966L651.57 553.001L685.567 574.085L568.854 641.969L504.191 608.695Z" fill="#6C6AEF"/>
<path d="M629.969 328.214L456.045 392.441L547.02 433.777L679.979 355.254L674.623 338.848L629.969 328.214Z" fill="#6C6AEF"/>
<path d="M997.694 498.033L870.092 563.657L821.041 539.673L958.926 478.042L997.694 498.033Z" fill="#6C6AEF"/>
<path d="M539.099 495.614C538.034 495.614 534.68 495.385 533.439 495.385C529.501 497.784 524.911 499.18 520.162 499.424C514.414 500.174 508.555 498.982 503.734 496.071L502.744 503.984C502.185 510.08 511.043 508.868 514.397 508.733C520.928 508.42 527.41 507.526 533.743 506.061C536.28 505.514 544.356 504.352 544.814 500.631C545.272 496.915 543.926 496.135 539.099 495.614Z" fill="#CA054D"/>
<path d="M523.764 473.775C523.764 473.775 518.689 495.226 521.022 495.132C523.361 495.042 539.099 495.614 539.099 495.614C537.67 498.246 535.524 500.512 532.86 502.201C530.201 503.895 527.106 504.953 523.868 505.286C512.163 506.816 503.81 496.16 503.81 496.16L508.456 469.394" fill="#614335"/>
<path d="M501.753 463.849L498.274 480.919C498.274 480.919 503.733 485.961 522.114 485.365C540.494 484.774 522.114 455.201 522.114 455.201" fill="#C8CCD1"/>
<path d="M491.014 422.57C491.014 422.57 511.529 407.783 525.137 406.026C538.746 404.269 545.851 417.572 544.891 426.448C543.926 435.325 511.325 440.14 511.325 440.14" fill="#F4AC45"/>
<path d="M558.191 508.391C557.126 508.391 553.778 508.162 552.531 508.162C548.592 510.562 544.003 511.958 539.253 512.201C533.505 512.956 527.647 511.759 522.826 508.848L521.811 516.672C521.254 522.767 530.113 521.555 533.467 521.421C539.992 521.103 546.474 520.209 552.812 518.748C555.35 518.202 563.426 517.04 563.878 513.319C564.336 509.598 563.039 508.892 558.191 508.391Z" fill="#CA054D"/>
<path d="M542.855 486.552C542.855 486.552 537.78 508.003 540.114 507.914C542.452 507.819 558.19 508.391 558.19 508.391C556.762 511.024 554.616 513.289 551.951 514.983C549.293 516.672 546.198 517.735 542.96 518.068C531.254 519.593 522.903 508.937 522.903 508.937L527.548 482.171" fill="#614335"/>
<path d="M492.308 423.254C492.308 423.254 512.825 408.467 526.428 406.71C540.037 404.953 547.147 418.257 546.182 427.133C545.216 436.009 512.621 440.824 512.621 440.824" fill="#F4AC45"/>
<path d="M503.251 428.182C505.792 425.901 540.726 411.365 552.989 418.028C565.252 424.691 564.49 429.643 562.94 437.766C561.39 445.889 549.536 489.657 549.536 489.657C540.61 492.752 530.813 493.169 521.607 490.844L525.032 458.325L478.649 435.507" fill="white"/>
<path d="M503.53 424.806L514.524 432.222L561.467 410.521L530.085 390.463L486.113 412.871L503.53 424.806Z" fill="black"/>
<path d="M387.428 416.979L384.686 428.388C388.34 427.733 392.055 427.389 395.781 427.361C398.624 427.703 402.255 432.244 398.7 435.325C395.146 438.405 389.104 438.109 383.036 439.387C376.968 440.665 376.029 440.916 372.144 439.935C368.259 438.953 367.676 434.207 367.676 434.207L370.722 414.309" fill="#00A7E2"/>
<path d="M367.371 405.866L363.893 422.934C363.893 422.934 369.351 427.978 387.733 427.384C406.114 426.791 387.733 397.218 387.733 397.218" fill="#C8CCD1"/>
<path d="M343.505 454.381C357.962 454.381 369.681 450.466 369.681 445.639C369.681 440.812 357.962 436.899 343.505 436.899C329.049 436.899 317.33 440.812 317.33 445.639C317.33 450.466 329.049 454.381 343.505 454.381Z" fill="black"/>
<path d="M339.088 406.551L340.104 441.737H347.924V406.551" fill="black"/>
<path d="M408.832 426.335L406.09 437.744C409.744 437.088 413.458 436.745 417.184 436.717C420.028 437.059 423.658 441.6 420.104 444.681C416.55 447.761 410.507 447.465 404.439 448.742C398.371 450.02 397.432 450.271 393.548 449.29C389.663 448.309 389.079 443.562 389.079 443.562L392.126 423.665" fill="#00A7E2"/>
<path d="M582.032 176.994L595.056 155.773L602.569 144.865L573.526 132.178L554.892 166.543L582.032 176.994Z" fill="#92BFB1"/>
<path d="M612.344 173.092L604.07 164.832C603.397 164.292 602.79 163.688 602.266 163.03C601.824 161.92 601.659 160.735 601.786 159.561C601.637 157.856 601.267 156.171 600.694 154.541C600.534 154.081 600.197 153.686 599.75 153.427C599.298 153.169 598.757 153.063 598.228 153.129C597.693 153.195 597.207 153.428 596.849 153.786C596.49 154.146 596.292 154.607 596.275 155.089C596.275 156.138 596.275 157.211 596.275 158.26L594.267 156.64C591.553 161.067 588.762 165.471 585.789 169.784C587.416 169.784 589.065 169.784 590.715 169.784C596.617 172.939 601.863 177.002 606.204 181.786C606.447 182.03 606.761 182.212 607.109 182.314C607.457 182.416 607.832 182.434 608.19 182.368C608.549 182.301 608.88 182.151 609.155 181.933C609.431 181.715 609.641 181.436 609.757 181.125C609.994 181.081 610.226 181.011 610.441 180.919C610.943 180.64 611.307 180.198 611.461 179.684C611.61 179.17 611.539 178.624 611.257 178.158C611.152 177.936 611.003 177.736 610.81 177.571C610.617 177.406 610.391 177.279 610.137 177.2C609.68 176.721 609.249 176.241 608.819 175.739L609.095 176.013C611.103 177.884 614.275 175.032 612.344 173.092Z" fill="#D08B5B"/>
<path d="M595.464 166.749C594.554 165.606 593.969 164.283 593.76 162.892C593.842 161.506 594.433 160.182 595.437 159.127C595.817 158.626 594.929 158.169 594.548 158.671C593.451 159.864 592.816 161.346 592.745 162.892C592.96 164.445 593.594 165.926 594.598 167.205C594.675 167.288 594.786 167.343 594.902 167.361C595.023 167.38 595.144 167.36 595.244 167.305C595.348 167.251 595.426 167.165 595.47 167.063C595.508 166.961 595.503 166.85 595.464 166.749Z" fill="black"/>
<path d="M621.788 38.7812V200.452C621.793 203.001 622.549 205.505 623.978 207.706C625.412 209.907 627.469 211.727 629.941 212.979L922.673 361.757C925.105 362.998 927.863 363.643 930.666 363.627C933.468 363.612 936.215 362.937 938.631 361.669C941.053 360.401 943.061 358.586 944.456 356.403C945.852 354.22 946.586 351.747 946.586 349.23V195.842C946.58 193.356 945.852 190.915 944.484 188.756C943.11 186.596 941.141 184.793 938.769 183.52L646.01 26.4134C643.577 25.1114 640.808 24.4114 637.978 24.3851C635.148 24.3588 632.357 25.0065 629.897 26.2634C627.436 27.5202 625.39 29.3409 623.967 31.5397C622.538 33.7384 621.788 36.2372 621.788 38.7812Z" fill="#9AC7FF"/>
<path d="M741.623 161.843L737.817 162.732C738.688 162.142 739.29 161.279 739.494 160.314C739.571 159.986 739.549 159.645 739.422 159.33C739.295 159.014 739.069 158.738 738.771 158.534C738.479 158.33 738.12 158.207 737.751 158.179C737.376 158.15 737.006 158.218 736.675 158.374C733.288 159.895 729.851 161.417 726.365 162.938L726.569 162.254C727.132 160.788 727.336 159.233 727.176 157.69C726.442 155.089 723.828 156.526 722.763 158.58C721.312 161.318 721.009 164.262 718.267 166.43C716.662 167.407 714.847 168.068 712.933 168.369C711.008 168.871 709.077 169.327 707.146 169.784C706.755 169.895 706.413 170.115 706.17 170.412C705.927 170.71 705.795 171.069 705.795 171.438C705.795 171.807 705.927 172.166 706.17 172.464C706.413 172.761 706.755 172.982 707.146 173.092C706.871 173.254 706.644 173.479 706.495 173.744C706.347 174.008 706.28 174.303 706.297 174.599C706.313 174.895 706.418 175.182 706.6 175.43C706.782 175.678 707.031 175.879 707.323 176.013C706.462 177.268 707.45 179.299 709.303 178.615C713.832 176.965 718.521 175.719 723.32 174.895C728.042 174.667 732.747 174.309 737.436 173.823C739.847 173.572 739.974 170.195 737.436 170.377H737.078L741.32 169.738C743.427 169.419 742.969 166.11 740.812 166.361H740.305L738.909 166.543L740.912 165.95C742.158 165.562 743.3 165.311 743.934 164.193C744.078 163.891 744.127 163.559 744.067 163.234C744.012 162.909 743.852 162.606 743.609 162.36C743.366 162.114 743.052 161.934 742.699 161.843C742.351 161.751 741.976 161.751 741.623 161.843Z" fill="#D08B5B"/>
<path d="M726.393 164.763C726.343 164.685 726.271 164.623 726.178 164.588C726.089 164.553 725.99 164.547 725.891 164.571C725.797 164.595 725.714 164.648 725.659 164.72C725.599 164.793 725.571 164.881 725.582 164.969C725.913 166.053 725.902 167.201 725.538 168.278C725.179 169.356 724.49 170.321 723.546 171.061C723.144 171.381 723.751 171.928 724.159 171.609C725.196 170.763 725.952 169.676 726.343 168.469C726.74 167.261 726.757 165.979 726.393 164.763Z" fill="black"/>
<path d="M738.071 162.162C734.976 162.892 731.909 163.744 728.881 164.718C728.373 164.878 728.599 165.631 729.107 165.448C732.141 164.49 735.202 163.638 738.297 162.892C738.385 162.851 738.457 162.784 738.495 162.702C738.534 162.621 738.54 162.53 738.512 162.444C738.484 162.359 738.429 162.284 738.347 162.233C738.269 162.182 738.17 162.157 738.071 162.162Z" fill="black"/>
<path d="M740.228 166.087L730.453 167.433C729.923 167.433 730.149 168.255 730.684 168.164L740.459 166.817C740.989 166.749 740.763 165.996 740.228 166.087Z" fill="black"/>
<path d="M738.479 169.989C735.853 170.141 733.222 170.248 730.579 170.308C730.022 170.308 730.022 171.084 730.579 171.084C733.222 171.084 735.853 170.978 738.479 170.765C739.008 170.719 739.008 169.966 738.479 169.989Z" fill="black"/>
<path d="M303.976 142.789V316.804L350.64 294.1V118.761L303.976 142.789Z" fill="#9AC7FF"/>
<path d="M368.59 82.4565V256.472L415.255 233.745V58.4055L368.59 82.4565Z" fill="#9BC7FE"/>
<path d="M990.661 469.369C989.353 469.95 987.991 470.437 986.6 470.829C980.698 469.031 974.299 469.031 968.397 470.829C968.077 470.914 967.796 471.093 967.591 471.331C967.393 471.574 967.288 471.867 967.288 472.166C967.288 472.469 967.393 472.757 967.591 473C967.796 473.239 968.077 473.417 968.397 473.502C974.288 475.141 980.588 475.211 986.523 473.706C987.207 473.934 987.869 474.187 988.531 474.481C990.103 475.166 991.499 473.388 990.583 472.404L992.238 471.743C994.014 471.038 992.437 468.574 990.661 469.369Z" fill="black"/>
<path d="M396.136 327.803C393.876 334.649 390.475 341.768 383.442 345.487C375.825 349.435 366.431 348.363 358.282 346.766C356.657 346.446 355.971 348.682 357.596 349.047C366.457 350.782 376.536 351.831 384.762 347.541C392.379 343.525 396.263 335.813 398.726 328.488C398.776 328.335 398.792 328.175 398.773 328.016C398.754 327.858 398.7 327.704 398.616 327.565C398.531 327.425 398.416 327.301 398.278 327.201C398.141 327.101 397.982 327.027 397.812 326.981C397.642 326.937 397.464 326.922 397.287 326.939C397.111 326.956 396.94 327.004 396.785 327.08C396.629 327.157 396.492 327.26 396.38 327.384C396.269 327.508 396.186 327.65 396.136 327.803Z" fill="black"/>
<path d="M393.827 355.802C385.99 357.323 378.086 358.517 370.114 359.384C369.937 359.397 369.765 359.442 369.607 359.517C369.451 359.592 369.312 359.694 369.2 359.818C368.286 357.338 367.507 354.82 366.864 352.265C366.509 350.804 364.021 351.42 364.325 352.881C365.793 358.693 367.972 364.341 370.825 369.721C371.535 371.067 373.745 369.904 373.059 368.557C371.866 366.275 370.825 363.993 369.885 361.712H370.063C378.255 360.844 386.388 359.627 394.462 358.06C396.137 357.695 395.452 355.482 393.827 355.802Z" fill="#202122"/>
<path d="M372.652 372.117C370.558 375.245 367.868 378.019 364.705 380.309C363.41 381.245 365.238 382.887 366.533 381.952C369.858 379.531 372.686 376.603 374.886 373.304C375.061 373.037 375.111 372.719 375.026 372.42C374.939 372.12 374.725 371.864 374.429 371.706C374.132 371.549 373.779 371.504 373.446 371.581C373.112 371.658 372.827 371.851 372.652 372.117Z" fill="#202122"/>
<path d="M617.882 309.229C617.882 309.229 617.628 320.455 616.155 322.212C614.683 323.969 601.581 330.222 600.92 333.074C600.263 335.926 602.519 339.92 608.764 338.482C615.014 337.045 630.04 328.191 630.04 328.191V303.889" fill="#54595D"/>
<path d="M668.047 322.007L669.647 334.192C669.647 334.192 663.91 352.972 666.193 355.254C668.477 357.536 676.757 360 679.979 355.254C683.206 350.507 678.611 332.96 678.611 332.96L678.379 319.748" fill="#54595D"/>
<path d="M637.912 193.082C637.912 193.082 621.661 252.41 620.955 261.538C620.243 270.665 615.367 314.842 615.367 314.842C615.367 314.842 630.801 321.003 641.21 317.877L649.336 262.154L658.449 203.76C658.449 203.76 641.795 188.86 637.912 193.082Z" fill="black"/>
<path d="M669.09 207.069C680.564 250.79 681.783 283.809 687.751 322.03C687.751 322.03 662.895 330.176 657.412 322.281C653.705 283.329 650.71 244.264 649.314 205.198L669.09 207.069Z" fill="black"/>
<path d="M714.665 160.702C704.228 164.262 691.811 167.547 683.31 166.498C672.614 165.202 662.106 162.861 651.978 159.515C650.61 159.105 635.755 153.993 630.244 158.397C624.739 162.801 626.206 177.131 626.206 177.131L606.154 161.523C598.713 163.919 595.767 170.833 595.056 177.702L595.817 178.409C597.257 179.93 598.713 181.452 600.186 182.973C606.761 189.613 614.302 197.28 623.972 200.178C627.8 201.177 631.893 200.952 635.551 199.539C638.419 198.581 642.633 195.432 645.706 196.459C646.522 196.733 647.284 197.258 648.244 197.166C650.555 196.915 653.655 193.606 655.862 192.602C661.88 189.796 668.941 189.362 675.566 189.065C682.797 188.839 690.007 188.121 697.118 186.921C699.203 186.533 721.389 181.421 721.875 182.357C718.168 175.541 715.735 168.226 714.665 160.702Z" fill="#00A7E2"/>
<path d="M654.058 209.534C659.199 209.579 664.302 208.742 669.09 207.07L670.105 178.432L631.689 194.61C631.689 194.61 633.14 201.456 634.762 207.868C641.034 209.446 647.571 210.01 654.058 209.534Z" fill="#00A7E2"/>
<path d="M356.631 364.587C356.631 364.587 377.145 349.8 390.753 348.043C404.361 346.286 411.47 359.589 410.506 368.466C409.541 377.342 376.942 382.157 376.942 382.157" fill="#C8CCD1"/>
<path d="M367.549 369.516C370.088 367.234 405.022 352.698 417.285 359.362C429.548 366.024 428.786 370.976 427.238 379.1C425.689 387.223 413.909 430.967 413.909 430.967C404.986 434.063 395.189 434.479 385.981 432.153L389.409 399.636L343.023 376.818" fill="white"/>
<path d="M342.16 317.215C344.014 318.447 359.933 320.159 363.208 326.731C366.483 333.302 371.586 367.28 371.586 367.28C371.586 367.28 362.04 380.058 345.512 375.517C340.612 374.17 315.198 332.413 314.512 328.077C312.76 316.804 342.16 317.215 342.16 317.215Z" fill="#9245F4"/>
<path d="M310.83 390.578C310.024 388.86 309.362 387.09 308.85 385.283C304.965 371.592 302.401 319.999 328.171 322.099C356.454 324.38 346.907 388.067 375.571 386.105C404.235 384.143 415.99 390.851 404.26 400.846C380.903 420.835 325.2 421.246 310.83 390.578Z" fill="#BE7ED5"/>
<path d="M348.254 295.332C348.482 296.564 350.793 313.907 345.156 317.808C339.52 321.711 326.623 312.492 326.293 307.905C325.962 303.318 321.646 293.78 327.105 291.384C332.564 288.988 346.705 286.684 348.254 295.332Z" fill="#AE5D29"/>
<path d="M348.253 295.332C348.253 295.332 353.051 292.001 353.889 288.989C354.727 285.976 350.589 283.809 346.552 283.809C342.515 283.809 339.088 284.744 335.61 282.873C333.745 281.921 331.636 281.42 329.491 281.42C327.346 281.42 325.237 281.921 323.372 282.873C320.097 284.881 319.538 289.719 317.33 292.206C315.121 294.693 310.907 294.967 311.008 299.599C311.11 304.231 318.624 304.711 319.209 307.814C319.792 310.918 321.595 315.458 326.241 316.234C330.887 317.01 337.26 317.102 337.793 316.485C338.326 315.869 334.873 305.486 338.072 304.802C341.271 304.117 348.456 302.611 348.253 295.332Z" fill="#54595D"/>
<path d="M413.909 292.343C413.892 290.317 413.063 288.364 411.574 286.843C411.425 286.696 411.243 286.579 411.04 286.501C410.863 284.607 410.279 282.713 408.502 282.051C408.203 281.971 407.885 281.971 407.588 282.051C407.376 282.017 407.16 282.025 406.953 282.077C406.746 282.128 406.554 282.221 406.393 282.348C406.232 282.476 406.105 282.634 406.022 282.812C405.938 282.99 405.901 283.182 405.912 283.375V285.428C405.716 284.966 405.348 284.579 404.871 284.333C404.573 284.181 404.236 284.101 403.893 284.101C403.551 284.101 403.214 284.181 402.916 284.333C402.577 284.378 402.27 284.538 402.058 284.78C401.846 285.022 401.744 285.327 401.773 285.634L402.155 294.328C401.672 292.708 400.631 289.536 398.041 291.201C396.01 292.502 397.483 296.085 397.813 297.773C398.416 301.208 399.315 304.596 400.504 307.905C400.603 308.169 400.789 308.4 401.037 308.566C400.953 308.917 400.851 309.266 400.733 309.616C400.072 311.898 399.387 314.956 397.432 316.462C395.934 317.626 398.118 319.588 399.615 318.424L399.818 318.242C399.311 319.725 401.875 320.752 402.637 319.314L402.941 318.79C403.082 318.919 403.245 319.027 403.424 319.109C403.424 319.406 403.17 319.702 403.068 319.999C402.459 321.71 405.455 322.44 406.039 320.729C406.157 320.94 406.339 321.117 406.563 321.242C406.787 321.366 407.045 321.431 407.308 321.431C407.572 321.431 407.829 321.366 408.054 321.242C408.278 321.117 408.459 320.94 408.578 320.729C408.933 320.044 408.832 322.349 409.136 321.664C409.923 321.961 408.273 319.383 408.781 318.584C410.71 315.298 415.509 312.012 415.382 301.378C415.534 298.686 417.768 293.484 413.909 292.343Z" fill="#AE5D29"/>
<path d="M402.737 285.999C402.737 285.406 401.67 285.406 401.696 285.999C401.882 289.696 402.161 293.385 402.534 297.066C402.534 297.66 403.626 297.66 403.575 297.066C403.219 293.385 402.94 289.696 402.737 285.999Z" fill="black"/>
<path d="M406.799 283.238C406.799 283.114 406.745 282.995 406.647 282.907C406.549 282.82 406.417 282.771 406.279 282.771C406.141 282.771 406.009 282.82 405.911 282.907C405.813 282.995 405.759 283.114 405.759 283.238L406.165 298.116C406.165 298.24 406.219 298.359 406.317 298.447C406.415 298.534 406.547 298.584 406.685 298.584C406.823 298.584 406.956 298.534 407.053 298.447C407.151 298.359 407.206 298.24 407.206 298.116L406.799 283.238Z" fill="black"/>
<path d="M410.328 287.277L410.024 298.686C410.024 298.811 410.079 298.93 410.176 299.017C410.274 299.105 410.406 299.154 410.545 299.154C410.683 299.154 410.815 299.105 410.913 299.017C411.01 298.93 411.065 298.811 411.065 298.686L411.37 287.277C411.37 287.153 411.315 287.034 411.217 286.947C411.119 286.859 410.987 286.809 410.849 286.809C410.711 286.809 410.579 286.859 410.481 286.947C410.384 287.034 410.328 287.153 410.328 287.277Z" fill="black"/>
<path d="M413.527 292.662C413.375 295.461 413.104 298.253 412.714 301.037C412.714 301.63 413.654 301.63 413.755 301.037C414.162 298.253 414.433 295.461 414.568 292.662C414.568 292.046 413.552 292.069 413.527 292.662Z" fill="black"/>
<path d="M356.885 321.71C356.885 321.71 372.55 326.844 376.612 326.525C380.674 326.205 397.786 306.605 397.786 306.605C397.786 306.605 409.642 309.548 413.502 319.04C413.502 319.04 391.413 347.45 381.766 349.161C372.118 350.873 360.338 346.606 360.338 346.606" fill="#9245F4"/>
<path d="M456.662 400.617C456.662 400.617 455.926 375.768 468.519 375.357C481.112 374.946 497.589 383.093 498.478 396.236C499.366 409.38 501.854 433.978 501.854 438.588C501.854 443.197 492.638 460.243 492.638 460.243" fill="#CA054D"/>
<path d="M660.457 533.97C660.457 534.789 659.723 544.81 660.964 545.972C662.211 547.134 665.46 552.818 669.498 553.046C673.53 553.275 677.292 552.569 678.026 556.449C678.765 560.324 655.178 561.65 655.178 561.65C655.178 561.65 652.64 552.748 651.62 553.001C650.605 553.25 650.605 562.813 650.605 562.813L646.214 563.657L641.823 561.034L643.599 543.99L646.467 529.499" fill="black"/>
<path d="M678.18 548.277C677.596 554.303 677.949 562.381 684.248 566.052C687.701 568.059 694.983 566.211 695.899 570.617C696.687 574.497 673.05 575.933 673.05 575.933C673.05 575.933 670.513 567.055 669.443 567.309C668.378 567.557 668.477 577.12 668.477 577.12L664.086 577.989L659.695 575.386L661.345 558.317L664.114 543.806" fill="black"/>
<path d="M667.793 438.702L670.894 434.983C671.125 434.629 671.247 434.226 671.247 433.815C671.247 433.404 671.125 433.001 670.888 432.649C670.656 432.296 670.32 432.006 669.917 431.811C669.514 431.615 669.062 431.52 668.604 431.537C669.244 430.518 669.73 429.429 670.055 428.297C670.127 427.849 670.033 427.393 669.796 426.996C669.553 426.6 669.178 426.283 668.72 426.093C668.268 425.903 667.755 425.851 667.264 425.944C666.773 426.037 666.326 426.27 665.99 426.608L660.915 432.838L663.452 428.73C664.952 426.448 660.738 424.646 659.265 426.95L654.819 433.796V431.788C654.819 429.962 654.416 427.635 651.824 427.521C651.228 427.47 650.627 427.612 650.136 427.921C649.639 428.231 649.286 428.687 649.132 429.209C648.729 430.709 648.729 432.273 649.132 433.773C649.568 435.439 650.732 437.721 649.667 439.341L644.41 446.688C644.156 446.977 643.991 447.322 643.93 447.687C643.875 448.052 643.924 448.425 644.079 448.767C644.233 449.109 644.487 449.407 644.813 449.631C645.138 449.855 645.53 449.997 645.932 450.043C645.971 450.366 646.087 450.678 646.28 450.954C646.473 451.23 646.727 451.465 647.036 451.639C647.339 451.813 647.687 451.922 648.045 451.957C648.404 451.991 648.768 451.957 649.11 451.847C649.579 452.121 650.152 452.23 650.709 452.14C651.007 452.498 651.443 452.751 651.929 452.856C652.414 452.96 652.927 452.91 653.374 452.712C653.517 453.045 653.754 453.338 654.063 453.561C654.367 453.79 654.731 453.939 655.123 453.998C655.514 454.063 655.917 454.033 656.286 453.914C656.662 453.8 656.998 453.596 657.257 453.328C660.992 449.29 665.94 446.301 669.343 441.919C669.509 441.621 669.603 441.293 669.614 440.958C669.625 440.624 669.553 440.292 669.404 439.985C669.261 439.678 669.04 439.403 668.759 439.182C668.483 438.96 668.152 438.796 667.793 438.702Z" fill="#D08B5B"/>
<path d="M617.474 466.472C618.313 468.768 619.896 470.789 622.025 472.265C624.149 473.74 626.725 474.61 629.406 474.754C638.85 475.236 656.778 457.322 656.778 457.322C656.778 457.322 657.257 441.349 649.441 438.588C649.441 438.588 636.467 448.651 634.663 448.765C632.859 448.879 622.35 440.003 622.35 440.003" fill="#72777D"/>
<path d="M672.008 440.163L674.369 436.032C674.529 435.65 674.573 435.237 674.496 434.834C674.413 434.432 674.214 434.057 673.922 433.747C673.624 433.437 673.243 433.204 672.813 433.072C672.383 432.94 671.92 432.915 671.478 432.998C671.914 431.893 672.184 430.743 672.289 429.575C672.273 429.124 672.096 428.69 671.787 428.336C671.478 427.983 671.048 427.728 670.563 427.61C670.077 427.493 669.564 427.518 669.101 427.683C668.632 427.847 668.24 428.143 667.97 428.525L664.037 435.371L665.841 430.921C666.856 428.388 662.387 427.316 661.372 429.803L658.3 437.333L657.814 435.371C657.384 433.568 656.623 431.355 654.058 431.628C653.462 431.675 652.905 431.909 652.486 432.288C652.061 432.668 651.802 433.17 651.747 433.705C651.664 435.276 652.006 436.842 652.739 438.269C653.473 439.843 655.073 441.92 654.312 443.677L650.533 451.733C650.34 452.056 650.241 452.419 650.257 452.786C650.268 453.149 650.39 453.507 650.61 453.819C650.825 454.128 651.129 454.381 651.487 454.555C651.851 454.724 652.254 454.803 652.662 454.788C652.762 455.101 652.938 455.384 653.181 455.623C653.418 455.866 653.716 456.055 654.047 456.174C654.378 456.298 654.736 456.353 655.095 456.333C655.453 456.313 655.801 456.224 656.115 456.065C656.639 456.249 657.219 456.249 657.743 456.065C658.107 456.378 658.581 456.562 659.078 456.592C659.58 456.621 660.076 456.492 660.484 456.229C660.688 456.532 660.981 456.79 661.323 456.964C661.67 457.143 662.062 457.232 662.465 457.232C662.862 457.232 663.254 457.143 663.601 456.964C663.949 456.79 664.235 456.532 664.445 456.229C667.363 451.663 671.655 447.966 674.192 443.175C674.319 442.847 674.358 442.498 674.308 442.154C674.264 441.81 674.126 441.481 673.916 441.19C673.707 440.9 673.426 440.657 673.095 440.479C672.764 440.301 672.394 440.192 672.008 440.163Z" fill="#EDB98A"/>
<path d="M639.462 526.26L635.981 543.324C635.981 543.324 641.442 548.366 659.822 547.775C678.203 547.184 659.822 517.611 659.822 517.611" fill="#C8CCD1"/>
<path d="M615.593 574.795C630.051 574.795 641.773 570.88 641.773 566.052C641.773 561.228 630.051 557.313 615.593 557.313C601.14 557.313 589.418 561.228 589.418 566.052C589.418 570.88 601.14 574.795 615.593 574.795Z" fill="black"/>
<path d="M611.18 526.965L612.195 562.127H619.989V526.965" fill="black"/>
<path d="M665.918 476.194C658.079 477.715 650.175 478.907 642.204 479.776C642.027 479.791 641.856 479.836 641.696 479.91C641.542 479.985 641.404 480.084 641.288 480.208C640.378 477.729 639.594 475.211 638.955 472.657C638.596 471.197 636.108 471.813 636.417 473.273C637.884 479.086 640.063 484.734 642.915 490.114C643.627 491.46 645.833 490.293 645.149 488.947C643.958 486.667 642.915 484.386 641.977 482.101H642.154C650.346 481.237 658.477 480.02 666.553 478.455C668.229 478.112 667.54 475.871 665.918 476.194Z" fill="#202122"/>
<path d="M644.741 492.509C642.65 495.638 639.958 498.41 636.797 500.701C635.501 501.634 637.327 503.279 638.623 502.345C641.95 499.921 644.774 496.995 646.975 493.696C647.151 493.428 647.201 493.11 647.113 492.812C647.03 492.514 646.815 492.255 646.517 492.096C646.225 491.942 645.866 491.898 645.535 491.972C645.204 492.052 644.917 492.24 644.741 492.509Z" fill="#202122"/>
<path d="M628.694 484.977C628.694 484.977 649.209 470.193 662.817 468.435C676.426 466.676 683.537 479.98 682.571 488.857C681.606 497.735 649.005 502.549 649.005 502.549" fill="#C8CCD1"/>
<path d="M639.638 489.906C642.176 487.625 677.11 473.09 689.373 479.751C701.636 486.418 700.874 491.366 699.33 499.493C697.78 507.616 685.92 551.382 685.92 551.382C677 554.477 667.203 554.894 657.996 552.569L661.422 520.05L615.036 497.233" fill="white"/>
<path d="M614.252 437.629C616.106 438.862 632.02 440.573 635.297 447.145C638.574 453.715 643.676 487.695 643.676 487.695C643.676 487.695 634.128 500.472 617.601 495.931C612.702 494.585 587.289 452.826 586.599 448.491C584.851 437.196 614.252 437.629 614.252 437.629Z" fill="#92BFB1"/>
<path d="M582.92 510.994C582.115 509.275 581.453 507.506 580.94 505.698C577.056 492.007 574.491 440.413 600.263 442.513C628.545 444.794 618.997 508.48 647.659 506.518C676.327 504.555 688.082 511.267 676.349 521.262C652.944 541.228 597.29 541.774 582.92 510.994Z" fill="#BE7ED5"/>
<path d="M624.402 419.877C624.584 420.926 626.642 435.69 621.865 439.021C617.093 442.353 606.072 434.458 605.818 430.602C605.564 426.745 601.857 418.576 606.508 416.545C611.152 414.514 623.112 412.575 624.402 419.877Z" fill="#EDB98A"/>
<path d="M628.694 476.055C630.012 478.167 632.004 479.871 634.414 480.949C636.825 482.027 639.539 482.429 642.203 482.101C651.57 480.939 665.305 460.243 665.305 460.243C665.305 460.243 662.338 444.475 654.085 443.129C654.085 443.129 643.522 455.245 641.773 455.677C640.019 456.115 635.324 447.168 635.324 447.168" fill="#92BFB1"/>
<path d="M623.365 444.338C621.285 443.06 618.285 442.056 619.024 439.455C619.581 437.173 622.069 435.667 622.146 433.34C622.174 432.22 621.947 431.107 621.49 430.065C621.032 429.023 620.348 428.073 619.482 427.27C618.389 426.266 616.944 425.695 617.777 424.098C618.406 423.063 619.349 422.208 620.497 421.634L625.825 421.93C626.824 419.424 626.758 416.675 625.643 414.209C624.529 411.743 622.444 409.732 619.785 408.558C616.337 406.935 612.426 406.284 608.565 406.691C604.698 407.098 601.063 408.545 598.128 410.84C596.733 412.226 595.535 413.759 594.548 415.404C593.406 417.468 591.829 419.313 589.903 420.835C588.844 421.399 587.94 422.17 587.25 423.09C586.566 424.01 586.119 425.056 585.943 426.152C585.783 428.284 586.417 430.402 587.747 432.176C589.093 434.458 586.93 436.055 585.204 437.698C583.284 439.228 582.032 441.324 581.679 443.608C581.425 448.56 586.754 450.841 591.349 451.594C595.944 452.349 599.954 452.895 604.273 453.556C609.756 454.401 615.113 456.179 620.723 454.813C622.196 454.44 623.542 453.74 624.634 452.781C625.219 452.25 625.676 451.614 625.974 450.911C626.272 450.211 626.399 449.463 626.355 448.715C626.311 447.966 626.09 447.235 625.709 446.567C625.329 445.9 624.799 445.312 624.154 444.84C623.9 444.66 623.635 444.492 623.365 444.338Z" fill="#54595D"/>
<path d="M538.31 401.028L538.542 400.914C538.746 400.806 538.928 400.663 539.071 400.493C539.215 400.323 539.319 400.129 539.38 399.923C539.435 399.716 539.452 399.501 539.419 399.289C539.386 399.077 539.308 398.874 539.187 398.689C539.071 398.505 538.911 398.344 538.718 398.215C538.531 398.086 538.315 397.992 538.084 397.938C537.858 397.884 537.615 397.871 537.378 397.9C537.146 397.929 536.92 397.999 536.716 398.108L536.28 398.336C536.286 398.051 536.203 397.77 536.048 397.522C535.894 397.273 535.668 397.065 535.397 396.917C535.127 396.77 534.818 396.688 534.498 396.681C534.184 396.674 533.869 396.741 533.588 396.875C531.508 397.788 529.451 398.724 527.421 399.705L528.21 398.838C529.401 397.491 527.901 395.232 526.025 396.282C523.554 397.667 521.127 399.112 518.738 400.617C518.529 400.753 518.347 400.925 518.214 401.124C518.082 401.323 517.994 401.545 517.955 401.776C517.922 402.007 517.938 402.241 518.005 402.466C518.076 402.691 518.198 402.9 518.358 403.082L517.977 403.333C517.591 403.589 517.326 403.963 517.227 404.383C517.127 404.803 517.205 405.242 517.442 405.615C517.354 405.859 517.326 406.118 517.354 406.374C517.387 406.629 517.475 406.876 517.618 407.098C516.504 407.851 517.138 409.38 518.358 409.745L518.512 409.905L516.377 410.566C514.193 411.251 515.131 414.377 517.343 413.693L528.281 410.247C531.139 409.611 533.765 408.322 535.899 406.505C536.148 406.272 536.308 405.976 536.363 405.658C536.418 405.34 536.363 405.014 536.203 404.725C536.997 404.355 537.736 403.904 538.415 403.379C538.613 403.236 538.773 403.053 538.878 402.845C538.983 402.637 539.033 402.409 539.027 402.18C539.016 401.952 538.944 401.728 538.823 401.528C538.696 401.328 538.525 401.157 538.31 401.028Z" fill="#614335"/>
<path d="M493.578 407.144C493.578 407.144 513.255 399.956 519.119 398.404C519.119 398.404 525.187 402.238 523.51 412.301C523.51 412.301 505.737 428.594 494.771 433.499" fill="#CA054D"/>
<path d="M478.268 371.797C478.527 371.482 478.656 371.096 478.633 370.704C478.61 370.313 478.436 369.941 478.141 369.653C477.37 368.653 476.307 367.863 475.069 367.371C474.711 367.271 474.333 367.238 473.96 367.275C473.588 367.311 473.227 367.416 472.901 367.583C472.575 367.75 472.29 367.975 472.065 368.245C471.839 368.514 471.678 368.823 471.591 369.151C471.502 369.797 471.584 370.454 471.831 371.067C472.078 371.68 472.484 372.232 473.014 372.677C473.543 373.122 474.183 373.448 474.881 373.628C475.577 373.809 476.312 373.838 477.024 373.714C477.478 373.592 477.863 373.318 478.099 372.949C478.335 372.58 478.404 372.143 478.293 371.729L478.268 371.797Z" fill="#CA054D"/>
<path d="M481.112 519.364C495.568 519.364 507.286 515.455 507.286 510.626C507.286 505.797 495.568 501.888 481.112 501.888C466.656 501.888 454.937 505.797 454.937 510.626C454.937 515.455 466.656 519.364 481.112 519.364Z" fill="black"/>
<path d="M476.72 471.54L477.736 506.702H485.53V471.54" fill="black"/>
<path d="M445.314 451.733C444.509 450.014 443.847 448.244 443.334 446.438C439.45 432.747 436.885 381.153 462.655 383.253C490.938 385.534 481.391 449.221 510.056 447.259C538.718 445.297 550.473 452.006 538.746 462.001C515.462 481.967 459.608 482.444 445.314 451.733Z" fill="#BE7ED5"/>
<path d="M482.458 353.246C482.458 353.246 491.877 371.09 485.683 376.338C481.29 380.058 472.607 379.807 468.088 372.984C463.569 366.161 473.851 350.097 482.458 353.246Z" fill="#614335"/>
<path d="M473.191 370.314C478.222 366.193 481.476 360.61 482.382 354.547C483.397 345.009 459.963 348.386 456.13 357.627C452.296 366.869 457.958 380.286 473.724 378.392L473.191 370.314Z" fill="black"/>
<path d="M462.3 371.432C460.675 372.665 419.597 410.384 440.898 423.026C458.669 433.568 465.474 378.324 465.448 374.102" fill="black"/>
<path d="M1005.14 440.915C1004.99 440.394 1004.73 439.904 1004.37 439.478C1003.7 438.75 1002.91 438.125 1002.01 437.629C990.054 430.35 973.5 428.342 960.829 435.348C957.938 436.968 953.647 440.664 955.346 444.133C956.339 446.141 959.334 447.328 961.414 448.149C968.37 450.624 975.635 452.324 983.043 453.213C985.735 453.626 988.427 454.013 991.146 454.267C993.011 454.421 994.892 454.157 996.613 453.492C998.334 452.826 999.84 451.783 1000.99 450.454C1002.92 448.422 1006 444.064 1005.14 440.915Z" fill="#72777D"/>
<path d="M955.07 442.65C963.532 448.521 974.189 451.235 984.825 450.226C1003.66 448.925 1005.14 440.916 1005.14 440.916C1005.14 440.916 1000.26 497.074 997.672 497.963C995.079 498.852 985.459 503.095 980.809 503.418C976.164 503.736 961.463 498.44 961.11 496.98C960.752 495.519 955.07 442.65 955.07 442.65Z" fill="#92BFB1"/>
<path d="M987.461 427.019C987.152 427.622 986.976 428.272 986.932 428.935L987.461 427.019Z" fill="#CA054D"/>
<path d="M958.495 360.822C957.911 359.749 956.134 360.685 956.719 361.757C969.616 385.443 972.126 412.096 974.487 437.972C974.487 439.159 976.649 439.159 976.545 437.972C974.184 411.708 971.569 384.827 958.495 360.822Z" fill="black"/>
<path d="M956.868 361.05C956.868 361.05 960.476 373.326 956.868 379.487C953.266 385.649 950.066 386.858 954.507 394.525C958.953 402.192 970.835 403.173 971.619 409.038C972.407 414.902 965.804 371.478 956.868 361.05Z" fill="#F4AC45"/>
<path d="M998.124 383.23C988.211 402.18 982.646 422.729 981.752 443.653C981.752 445.114 984.289 445.114 984.289 443.653C985.172 423.107 990.644 402.93 1000.39 384.325C1000.97 383.07 998.814 381.929 998.124 383.23Z" fill="black"/>
<path d="M999.879 389.231C999.879 387.999 999.575 385.58 999.724 383.412L998.279 384.234C993.38 395.072 986.066 420.561 983.859 428.365C986.827 422.523 999.09 421.725 1002.62 413.328C1004.2 409.786 1004.27 405.847 1002.82 402.26C1001.06 398.089 1000.07 393.688 999.879 389.231Z" fill="#F4AC45"/>
<path d="M636.516 147.353C635.044 153.606 636.29 162.254 643.726 163.326C653.324 164.604 655.708 158.762 655.2 151.529C654.797 145.801 651.471 136.834 642.866 139.435C640.747 140.163 639.021 141.592 638.039 143.428C637.344 144.672 636.831 145.991 636.516 147.353Z" fill="#D08B5B"/>
<path d="M635.959 148.745C634.028 147.849 632.434 146.462 631.381 144.758C630.321 143.053 629.847 141.107 630.018 139.161C630.421 135.328 634.563 130.422 639.357 132.316C642.612 133.548 641.718 133.639 641.718 133.639C642.479 132.828 643.467 132.212 644.575 131.852C645.684 131.491 646.881 131.399 648.045 131.585C652.585 131.951 653.374 134.437 653.374 134.437C653.374 134.437 658.454 135.989 659.9 139.001C661.45 142.378 657.919 152.442 656.242 155.271C654.565 158.101 653.578 152.35 652.993 150.046C652.795 149.118 652.342 148.249 651.675 147.516C651.013 146.783 650.158 146.21 649.187 145.847C646.39 145.162 644.995 147.398 642.788 148.334C641.757 148.854 640.604 149.161 639.423 149.232C638.243 149.303 637.057 149.137 635.959 148.745Z" fill="black"/>
</svg>
